<?xml version="1.0" encoding="UTF-8" standalone="no"?>
<svg
   xmlns:dc="http://purl.org/dc/elements/1.1/"
   xmlns:cc="http://creativecommons.org/ns#"
   xmlns:rdf="http://www.w3.org/1999/02/22-rdf-syntax-ns#"
   xmlns:svg="http://www.w3.org/2000/svg"
   xmlns="http://www.w3.org/2000/svg"
   xmlns:sodipodi="http://sodipodi.sourceforge.net/DTD/sodipodi-0.dtd"
   xmlns:inkscape="http://www.inkscape.org/namespaces/inkscape"
   width="56"
   height="56"
   version="1.1"
   id="svg45"
   sodipodi:docname="abb.svg"
   inkscape:version="1.0.2-2 (e86c870879, 2021-01-15)">
  <metadata
     id="metadata51">
    <rdf:RDF>
      <cc:Work
         rdf:about="">
        <dc:format>image/svg+xml</dc:format>
        <dc:type
           rdf:resource="http://purl.org/dc/dcmitype/StillImage" />
        <dc:title></dc:title>
      </cc:Work>
    </rdf:RDF>
  </metadata>
  <defs
     id="defs49" />
  <sodipodi:namedview
     pagecolor="#ffffff"
     bordercolor="#666666"
     borderopacity="1"
     objecttolerance="10"
     gridtolerance="10"
     guidetolerance="10"
     inkscape:pageopacity="0"
     inkscape:pageshadow="2"
     inkscape:window-width="1920"
     inkscape:window-height="1017"
     id="namedview47"
     showgrid="false"
     inkscape:zoom="15.178571"
     inkscape:cx="28"
     inkscape:cy="22.729412"
     inkscape:window-x="-8"
     inkscape:window-y="-8"
     inkscape:window-maximized="1"
     inkscape:current-layer="svg45" />
  <path
     fill="none"
     d="M0 0h56v56H0z"
     id="path41" />
  <path
     d="m 11.442567,17.07722 v 9.46139 H 5.5291979 l 3.5480214,-9.46139 z m 1.182674,0 v 9.46139 h 5.913369 l -3.548022,-9.46139 z m 6.356871,10.644064 h -6.356871 v 4.730694 h 3.548021 L 17.355936,36 h 4.730695 z m -7.539545,4.730694 V 27.721284 H 5.0856952 L 1.9811765,36 h 4.7306952 l 1.1826738,-3.548022 z m 14.192085,-4.730694 h 4.730696 V 36 h -4.730696 z m 5.913369,8.263342 c 2.95432,-0.151384 7.096043,-1.47243 7.096043,-5.897994 0,-0.913026 -0.13719,-1.695956 -0.363081,-2.365348 h -6.732962 z m 9.461391,-8.263342 V 36 h 4.730695 v -8.278716 z m 5.913369,8.263342 c 2.954319,-0.151384 7.096043,-1.47243 7.096043,-5.897994 0,-0.913026 -0.137191,-1.695956 -0.363081,-2.365348 h -6.732962 z m 6.186566,-9.446016 c -0.794756,-1.316316 -1.928941,-2.010546 -2.638545,-2.365348 0.591337,-0.39383 1.774011,-1.537476 1.774011,-2.956684 0,-3.311488 -2.365348,-4.139358 -3.548022,-4.139358 h -1.77401 v 9.46139 z m -7.36924,-9.46139 v 9.46139 h -4.730695 v -9.46139 z m -8.005519,9.46139 h -6.186567 v -9.46139 h 1.774011 c 1.182674,0 3.548022,0.82787 3.548022,4.139358 0,1.419208 -1.182674,2.562854 -1.774011,2.956684 0.709604,0.354802 1.844971,1.049032 2.638545,2.365348 z m -7.36924,-9.46139 v 9.46139 h -4.730696 v -9.46139 z"
     fill="rgb(233, 40, 44)"
     id="path43"
     style="stroke-width:1.18268" />
</svg>
