<?xml version="1.0" encoding="UTF-8" standalone="no"?>
<svg
   xmlns:dc="http://purl.org/dc/elements/1.1/"
   xmlns:cc="http://creativecommons.org/ns#"
   xmlns:rdf="http://www.w3.org/1999/02/22-rdf-syntax-ns#"
   xmlns:svg="http://www.w3.org/2000/svg"
   xmlns="http://www.w3.org/2000/svg"
   xmlns:sodipodi="http://sodipodi.sourceforge.net/DTD/sodipodi-0.dtd"
   xmlns:inkscape="http://www.inkscape.org/namespaces/inkscape"
   width="56"
   height="56"
   version="1.1"
   id="svg38"
   sodipodi:docname="agricultural-bank-of-china.svg"
   inkscape:version="1.0.2-2 (e86c870879, 2021-01-15)">
  <metadata
     id="metadata44">
    <rdf:RDF>
      <cc:Work
         rdf:about="">
        <dc:format>image/svg+xml</dc:format>
        <dc:type
           rdf:resource="http://purl.org/dc/dcmitype/StillImage" />
        <dc:title></dc:title>
      </cc:Work>
    </rdf:RDF>
  </metadata>
  <defs
     id="defs42" />
  <sodipodi:namedview
     pagecolor="#ffffff"
     bordercolor="#666666"
     borderopacity="1"
     objecttolerance="10"
     gridtolerance="10"
     guidetolerance="10"
     inkscape:pageopacity="0"
     inkscape:pageshadow="2"
     inkscape:window-width="1920"
     inkscape:window-height="1017"
     id="namedview40"
     showgrid="false"
     inkscape:zoom="15.178571"
     inkscape:cx="28"
     inkscape:cy="17.458824"
     inkscape:window-x="-8"
     inkscape:window-y="-8"
     inkscape:window-maximized="1"
     inkscape:current-layer="svg38" />
  <path
  fill="none"
     d="M0 0h56v56H0z"
     id="path34" />
  <path
     d="M 35.03875,1.3931201 V 18.342131 c -0.05446,0.575292 -0.476573,1.056973 -1.050163,1.114841 h -2.759022 c -0.668906,0 -1.296962,0.514021 -1.296962,1.182926 v 6.879684 c 0,-0.636565 0.578697,-1.210157 1.208455,-1.254411 h 6.042276 c 0.692734,0.04255 1.259516,-0.430618 1.259516,-1.13867 V 8.9434127 c 7.145205,3.3972913 10.857375,10.6820633 10.857375,19.1191243 0,10.659936 -7.409022,19.479958 -17.665574,20.948828 V 36.47747 h 5.548683 c 0.706351,0 1.259516,-0.425513 1.259516,-1.206753 v -8.523864 c 0,0.667202 -0.478275,1.220369 -1.148883,1.220369 h -6.064402 c -0.668906,0 -1.296962,0.531039 -1.296962,1.198242 v 7.312006 h -3.404101 v -7.312006 c 0,-0.667203 -0.568484,-1.198242 -1.23739,-1.198242 h -6.026958 a 1.2510065,1.2510065 0 0 1 -1.2459,-1.220369 v 8.523864 c 0,0.752306 0.667204,1.206753 1.358235,1.206753 h 5.449964 V 49.011365 C 14.569902,47.544196 6.9719514,38.722473 6.9719514,28.062537 c 0,-8.437061 3.9010986,-15.721833 11.0463026,-19.1191243 V 25.126501 a 1.2169656,1.2169656 0 0 0 1.358235,1.13867 h 6.001428 a 1.2816434,1.2816434 0 0 1 1.150585,1.254411 v -6.879684 c 0,-0.668905 -0.568484,-1.182926 -1.23739,-1.182926 l -2.721577,-0.02043 -0.0034,0.02043 c -0.575292,-0.05787 -1.089312,-0.539549 -1.143777,-1.114841 V 1.4356713 C 9.3412045,4.2236288 0.99775688,15.040154 0.99775688,27.968924 c 0,15.00527 12.14412512,27.176626 27.13748012,27.229391 l 0.09531,0.0017 c 15.041013,0 27.232796,-12.193484 27.232796,-27.232795 0,-12.991745 -8.246431,-23.8559287 -20.424598,-26.574102 z M 31.008297,0.83144367 A 40.243263,40.243263 0 0 0 28.230553,0.7344275 h -0.09531 A 26.994508,26.994508 0 0 0 24.826454,0.91314275 V 16.384773 c 0,0.762518 0.638269,1.37015 1.400787,1.37015 h 4.033858 a 1.3616397,1.3616397 0 0 0 1.373552,-1.37015 V 0.89101541 a 45.751096,45.751096 0 0 0 -0.626354,-0.0612736 z"

     fill="#008A7D"
     id="path36"
     style="stroke-width:1.70205" />
</svg>
