<?xml version="1.0" standalone="no"?>
<!DOCTYPE svg PUBLIC "-//W3C//DTD SVG 20010904//EN"
 "http://www.w3.org/TR/2001/REC-SVG-20010904/DTD/svg10.dtd">
<svg version="1.0" xmlns="http://www.w3.org/2000/svg"
 width="879.000000pt" height="854.000000pt" viewBox="0 0 879.000000 854.000000"
 preserveAspectRatio="xMidYMid meet">
<metadata>
Created by potrace 1.16, written by Peter Selinger 2001-2019
</metadata>
<g transform="translate(0.000000,854.000000) scale(0.100000,-0.100000)"
fill="#002f87d6" stroke="none">
<path d="M4070 8529 c-591 -41 -1142 -188 -1650 -440 -419 -208 -744 -442
-1075 -774 -246 -246 -435 -483 -585 -732 -81 -136 -252 -472 -313 -619 -141
-340 -240 -733 -293 -1164 -22 -182 -30 -684 -15 -889 70 -909 379 -1715 913
-2373 128 -158 476 -503 638 -632 589 -469 1229 -739 2055 -866 207 -32 598
-46 909 -32 143 7 308 19 366 28 828 123 1535 425 2120 903 147 120 413 383
537 531 518 617 833 1347 948 2200 35 256 29 965 -10 1264 -65 493 -259 1071
-506 1510 -81 143 -268 420 -364 539 -485 602 -1119 1050 -1848 1305 -546 192
-1229 282 -1827 241z m470 -699 c239 -11 343 -22 535 -55 492 -84 977 -282
1383 -563 673 -465 1158 -1186 1357 -2017 116 -483 142 -993 75 -1467 -170
-1201 -846 -2167 -1865 -2663 -378 -184 -826 -311 -1210 -344 -358 -30 -780
-20 -1042 24 -965 164 -1748 647 -2276 1407 -335 482 -537 1035 -613 1683 -25
210 -25 670 0 880 54 464 172 858 382 1278 272 542 684 991 1219 1326 129 80
406 217 560 274 318 120 716 206 1085 236 149 12 180 12 410 1z"/>
<path d="M3410 6826 l0 -273 88 -6 c154 -12 204 -37 246 -127 l21 -45 9 -2252
9 -2253 614 0 614 0 -3 2448 -4 2447 -22 65 c-29 87 -71 148 -129 187 -86 58
-129 63 -528 68 -198 3 -485 7 -637 10 l-278 4 0 -273z"/>
<path d="M2335 6030 c-124 -14 -220 -82 -277 -195 -25 -48 -32 -79 -39 -160
-5 -55 -12 -934 -15 -1952 l-7 -1853 626 0 627 0 0 2085 0 2085 -427 -1 c-236
-1 -455 -5 -488 -9z"/>
<path d="M5540 3955 l0 -2085 615 0 615 0 0 1945 0 1946 -30 60 c-17 33 -46
77 -65 98 -45 49 -134 96 -209 110 -37 7 -224 11 -493 11 l-433 0 0 -2085z"/>
</g>
</svg>
