<?xml version="1.0" encoding="UTF-8" standalone="no"?>
<svg
   xmlns:dc="http://purl.org/dc/elements/1.1/"
   xmlns:cc="http://creativecommons.org/ns#"
   xmlns:rdf="http://www.w3.org/1999/02/22-rdf-syntax-ns#"
   xmlns:svg="http://www.w3.org/2000/svg"
   xmlns="http://www.w3.org/2000/svg"
   xmlns:sodipodi="http://sodipodi.sourceforge.net/DTD/sodipodi-0.dtd"
   xmlns:inkscape="http://www.inkscape.org/namespaces/inkscape"
   width="56"
   height="56"
   version="1.1"
   id="svg14"
   sodipodi:docname="bank-of-china.svg"
   inkscape:version="1.0.2-2 (e86c870879, 2021-01-15)">
  <metadata
     id="metadata20">
    <rdf:RDF>
      <cc:Work
         rdf:about="">
        <dc:format>image/svg+xml</dc:format>
        <dc:type
           rdf:resource="http://purl.org/dc/dcmitype/StillImage" />
        <dc:title></dc:title>
      </cc:Work>
    </rdf:RDF>
  </metadata>
  <defs
     id="defs18" />
  <sodipodi:namedview
     pagecolor="#ffffff"
     bordercolor="#666666"
     borderopacity="1"
     objecttolerance="10"
     gridtolerance="10"
     guidetolerance="10"
     inkscape:pageopacity="0"
     inkscape:pageshadow="2"
     inkscape:window-width="1920"
     inkscape:window-height="1017"
     id="namedview16"
     showgrid="false"
     inkscape:zoom="15.178571"
     inkscape:cx="28"
     inkscape:cy="25.364706"
     inkscape:window-x="-8"
     inkscape:window-y="-8"
     inkscape:window-maximized="1"
     inkscape:current-layer="svg14" />
  <path
     fill="none"
     d="M0 0h56v56H0z"
     id="path10" />
  <path
     fill-rule="evenodd"
     d="M 21.798696,33.123013 A 0.62691017,0.62691017 0 0 1 21.163245,32.49781 v -9.007349 a 0.63203478,0.63203478 0 0 1 0.635451,-0.623493 h 12.418628 c 0.350181,0 0.614953,0.285269 0.614953,0.625201 v 9.005641 a 0.61324456,0.61324456 0 0 1 -0.614953,0.625203 z m 2.784368,16.101512 C 14.234777,47.692269 6.5546997,38.777162 6.5546997,28.001823 6.5546997,17.229901 14.234777,8.3165019 24.583064,6.7893692 V 17.749194 H 21.47072 c -3.592348,0 -5.428666,2.025928 -5.428666,5.619985 v 8.38044 c 0,3.594057 1.836318,6.498 5.428666,6.498 h 3.112344 z m 6.832809,-10.976906 h 2.056676 c 3.59918,0 6.484334,-2.903943 6.484334,-6.498 v -8.38044 c 0,-3.594057 -2.886861,-5.619985 -6.484334,-5.619985 H 31.415873 V 6.7893692 c 10.348289,1.5254245 18.028366,10.4405318 18.028366,21.2124538 0,10.775339 -7.680077,19.690446 -18.028366,21.222702 z M 0.66823529,28.001823 c 0,-15.093674 12.23585171,-27.33465006 27.32781671,-27.33465006 15.098798,0 27.33465,12.24097606 27.33465,27.33465006 0,15.097089 -12.235852,27.332942 -27.33465,27.332942 -15.091965,0 -27.32781671,-12.235853 -27.32781671,-27.332942 z"
     fill="#B00831"
         id="path12"
     style="stroke-width:1.7082" />
</svg>
