<?xml version="1.0" standalone="no"?>
<!DOCTYPE svg PUBLIC "-//W3C//DTD SVG 20010904//EN"
 "http://www.w3.org/TR/2001/REC-SVG-20010904/DTD/svg10.dtd">
<svg version="1.0" xmlns="http://www.w3.org/2000/svg"
 width="266.000000pt" height="273.000000pt" viewBox="0 0 266.000000 273.000000"
 preserveAspectRatio="xMidYMid meet">
<metadata>
Created by potrace 1.16, written by Peter Selinger 2001-2019
</metadata>
<g transform="translate(0.000000,273.000000) scale(0.100000,-0.100000)"
fill="rgb(57, 59, 143)" stroke="none">
<path d="M150 1330 l0 -1160 1155 0 1155 0 0 1160 0 1160 -1155 0 -1155 0 0
-1160z m1990 0 l0 -840 -835 0 -835 0 0 840 0 840 835 0 835 0 0 -840z"/>
<path d="M1703 1973 l-202 -3 -387 -573 c-213 -314 -400 -591 -416 -614 l-29
-43 210 0 210 0 421 606 c232 333 424 612 427 620 3 9 -1 13 -13 12 -11 -2
-110 -4 -221 -5z"/>
</g>
</svg>
