<?xml version="1.0" standalone="no"?>
<!DOCTYPE svg PUBLIC "-//W3C//DTD SVG 20010904//EN"
 "http://www.w3.org/TR/2001/REC-SVG-20010904/DTD/svg10.dtd">
<svg style="background: white" version="1.0" xmlns="http://www.w3.org/2000/svg"
 width="128.000000pt" height="128.000000pt" viewBox="0 0 128.000000 128.000000"
 preserveAspectRatio="xMidYMid meet">

<g transform="translate(0.000000,128.000000) scale(0.100000,-0.100000)"
fill="#000000" stroke="none">
<path d="M555 1240 c-234 -32 -440 -216 -499 -446 -20 -79 -21 -222 -1 -299
58 -223 236 -392 462 -440 357 -76 698 186 720 551 23 380 -305 685 -682 634z
m155 -107 c36 -41 78 -91 94 -110 24 -28 47 -94 117 -337 68 -233 85 -304 76
-312 -7 -6 -90 -73 -185 -148 l-172 -136 -185 146 c-102 80 -185 149 -185 152
0 4 40 141 88 305 l87 297 95 110 c52 61 97 110 100 109 3 0 34 -34 70 -76z"/>
<path d="M555 1037 c-27 -32 -50 -64 -50 -70 0 -29 29 -177 35 -177 3 0 21 21
38 46 32 45 33 46 30 152 l-3 107 -50 -58z"/>
<path d="M670 985 c0 -104 1 -107 35 -158 19 -28 35 -50 35 -47 0 3 9 48 19
100 l19 94 -51 58 c-27 32 -52 58 -53 58 -2 0 -4 -47 -4 -105z"/>
<path d="M461 855 c-1 -5 -21 -77 -46 -159 -24 -82 -40 -145 -36 -140 43 47
111 159 110 182 -1 30 -26 133 -28 117z"/>
<path d="M801 805 c-7 -33 -14 -66 -16 -73 -4 -11 105 -175 112 -168 2 2 -60
226 -81 291 -2 6 -9 -17 -15 -50z"/>
<path d="M591 762 l-39 -58 24 -120 c35 -177 30 -164 64 -164 17 0 30 2 30 4
0 2 11 58 25 126 14 68 25 132 25 143 0 22 -68 127 -81 127 -5 0 -26 -26 -48
-58z"/>
<path d="M428 529 l-78 -109 100 0 c55 0 100 4 100 9 0 12 -40 204 -43 207 -1
1 -37 -47 -79 -107z"/>
<path d="M761 603 c-12 -45 -31 -151 -31 -170 0 -10 23 -13 95 -13 52 0 95 2
95 5 0 3 -33 53 -74 111 l-75 106 -10 -39z"/>
<path d="M385 361 c17 -16 210 -169 212 -168 0 1 -6 40 -16 87 l-17 85 -94 3
c-61 2 -91 -1 -85 -7z"/>
<path d="M624 339 c3 -17 6 -39 6 -47 0 -29 17 2 23 41 5 33 3 37 -15 37 -18
0 -20 -4 -14 -31z"/>
<path d="M715 358 c-10 -26 -33 -153 -30 -157 4 -3 166 122 209 161 6 4 -31 8
-82 8 -65 0 -94 -4 -97 -12z"/>
</g>
</svg>
