<?xml version="1.0" encoding="UTF-8" standalone="no"?>
<svg xmlns:dc="http://purl.org/dc/elements/1.1/" xmlns:cc="http://creativecommons.org/ns#" xmlns:rdf="http://www.w3.org/1999/02/22-rdf-syntax-ns#" xmlns:svg="http://www.w3.org/2000/svg" xmlns="http://www.w3.org/2000/svg" xmlns:sodipodi="http://sodipodi.sourceforge.net/DTD/sodipodi-0.dtd" xmlns:inkscape="http://www.inkscape.org/namespaces/inkscape" width="36px" height="36px" viewBox="0 0 36 36.000001" id="svg2" version="1.1" inkscape:version="0.91 r13725" sodipodi:docname="Coin currency dollar money price taiwan finance - Copy (10).svg">
  <defs id="defs4"/>
  <sodipodi:namedview id="base" pagecolor="#ffffff" bordercolor="#666666" borderopacity="1.0" inkscape:pageopacity="0.0" inkscape:pageshadow="2" inkscape:zoom="11.2" inkscape:cx="-7.9502564" inkscape:cy="11.103205" inkscape:document-units="px" inkscape:current-layer="layer1" showgrid="true" units="px" inkscape:snap-bbox="true" inkscape:bbox-paths="true" inkscape:bbox-nodes="true" inkscape:snap-bbox-midpoints="true" inkscape:window-width="1366" inkscape:window-height="715" inkscape:window-x="-8" inkscape:window-y="-8" inkscape:window-maximized="1">
    <inkscape:grid type="xygrid" id="grid3336"/>
  </sodipodi:namedview>
  
  <g inkscape:label="Layer 1" inkscape:groupmode="layer" id="layer1" transform="translate(0,-1016.3622)">
    <path style="color:#000000;font-style:normal;font-variant:normal;font-weight:normal;font-stretch:normal;font-size:medium;line-height:normal;font-family:sans-serif;text-indent:0;text-align:start;text-decoration:none;text-decoration-line:none;text-decoration-style:solid;text-decoration-color:#000000;letter-spacing:normal;word-spacing:normal;text-transform:none;direction:ltr;block-progression:tb;writing-mode:lr-tb;baseline-shift:baseline;text-anchor:start;white-space:normal;clip-rule:nonzero;display:inline;overflow:visible;visibility:visible;opacity:1;isolation:auto;mix-blend-mode:normal;color-interpolation:sRGB;color-interpolation-filters:linearRGB;solid-color:#000000;solid-opacity:1;fill:#000000;fill-opacity:1;fill-rule:nonzero;stroke:none;stroke-width:0.99999988;stroke-linecap:round;stroke-linejoin:round;stroke-miterlimit:34.17825699;stroke-dasharray:none;stroke-dashoffset:0;stroke-opacity:1;color-rendering:auto;image-rendering:auto;shape-rendering:auto;text-rendering:auto;enable-background:accumulate" d="M 27.478516 2 C 23.335386 2 20 5.3695 20 9.5 C 20 13.632 23.335403 17 27.478516 17 C 31.620623 17 35 13.6356 35 9.5 A 0.50004994 0.50004994 0 0 0 34.960938 9.3046875 A 0.50004994 0.50004994 0 0 0 34.958984 9.3046875 C 34.84727 5.2668875 31.55052 2.0019531 27.478516 2.0019531 L 27.478516 2 z M 27.478516 3 C 31.080571 3 34 5.9094 34 9.5 C 34 13.0924 31.080588 16 27.478516 16 C 23.875288 16 21 13.096 21 9.5 C 21 5.9057 23.875305 3 27.478516 3 z M 26 6 L 26 7 L 29 7 L 29 6 L 26 6 z M 25 8.015625 L 25 9.015625 L 26.005859 9.015625 L 26.005859 11.5 C 26.005859 11.8619 25.810672 12.260794 25.529297 12.558594 C 25.247922 12.856494 24.877043 13.011719 24.755859 13.011719 L 24.755859 14.011719 C 25.333226 14.011719 25.836232 13.690294 26.255859 13.246094 C 26.675487 12.801894 27.005859 12.1942 27.005859 11.5 L 27.005859 9.015625 L 27.933594 9.015625 L 27.933594 12.417969 C 27.933594 12.909869 28.124468 13.341247 28.423828 13.623047 C 28.723189 13.904747 29.109352 14.038969 29.490234 14.042969 C 29.871116 14.042969 30.260258 13.922238 30.5625 13.648438 C 30.864742 13.374638 31.058594 12.947191 31.058594 12.462891 L 30.058594 12.462891 C 30.058594 12.702891 29.986564 12.81935 29.890625 12.90625 C 29.794685 12.99325 29.651981 13.046522 29.501953 13.044922 C 29.351925 13.044922 29.208197 12.987831 29.109375 12.894531 C 29.010555 12.801531 28.933594 12.672869 28.933594 12.417969 L 28.933594 9.015625 L 30 9.015625 L 30 8.015625 L 25 8.015625 z M 12.197266 9.0019531 C 9.3280825 9.0019531 7 11.320194 7 14.183594 L 7 17.273438 L 6.4589844 16.732422 A 0.50005 0.50005 0 0 0 6.0996094 16.582031 A 0.50005 0.50005 0 0 0 5.7519531 17.439453 L 7.1660156 18.853516 A 0.50005 0.50005 0 0 0 7.8730469 18.853516 L 9.2871094 17.439453 A 0.50005 0.50005 0 1 0 8.5800781 16.732422 L 8 17.3125 L 8 14.183594 C 8 11.858394 9.863268 10.001953 12.197266 10.001953 L 18.494141 10.001953 A 0.50005 0.50005 0 1 0 18.494141 9.0019531 L 12.197266 9.0019531 z M 27.472656 18 A 0.50005 0.50005 0 0 0 27.126953 18.146484 L 25.712891 19.560547 A 0.50064305 0.50064305 0 1 0 26.419922 20.269531 L 26.998047 19.689453 L 26.998047 22.818359 C 26.998047 25.143559 25.136732 27 22.802734 27 L 16.505859 27 A 0.50005 0.50005 0 1 0 16.505859 28 L 22.802734 28 C 25.671917 28 27.998047 25.681759 27.998047 22.818359 L 27.998047 19.724609 L 28.541016 20.269531 A 0.50064305 0.50064305 0 1 0 29.248047 19.560547 L 27.833984 18.146484 A 0.50005 0.50005 0 0 0 27.472656 18 z M 7.4804688 20.001953 C 3.337339 20.001953 -5.9211895e-016 23.3695 0 27.5 C 0 31.632 3.3373562 35 7.4804688 35 C 11.622577 35 15 31.6356 15 27.5 A 0.50004994 0.50004994 0 0 0 14.960938 27.304688 A 0.50004994 0.50004994 0 0 0 14.958984 27.304688 C 14.84727 23.266887 11.552473 20.003906 7.4804688 20.003906 L 7.4804688 20.001953 z M 7.4804688 21.001953 C 11.082524 21.001953 14 23.9094 14 27.5 C 14 31.0924 11.082541 34 7.4804688 34 C 3.8772412 34 1 31.096 1 27.5 C 1 23.9057 3.8772585 21.001953 7.4804688 21.001953 z M 8 23 C 6.3466486 23 5 24.3467 5 26 L 4 26 A 0.50005 0.50005 0 1 0 4 27 L 5 27 L 5 28 L 4 28 A 0.50005 0.50005 0 1 0 4 29 L 5 29 C 5 30.6534 6.3466486 32 8 32 C 9.6533514 32 11 30.6534 11 29 A 0.50004997 0.50004997 0 1 0 10 29 C 10 30.1167 9.1166486 31 8 31 C 6.8833514 31 6 30.1167 6 29 L 8 29 A 0.50005 0.50005 0 1 0 8 28 L 6 28 L 6 27 L 8 27 A 0.50005 0.50005 0 1 0 8 26 L 6 26 C 6 24.8834 6.8833514 24 8 24 C 9.1166486 24 10 24.8834 10 26 A 0.50004997 0.50004997 0 1 0 11 26 C 11 24.3467 9.6533514 23 8 23 z " transform="translate(0,1016.3622)" id="path5575-9-44"/>
  </g>

	
	
	
	<metadata>
		<rdf:RDF xmlns:rdf="http://www.w3.org/1999/02/22-rdf-syntax-ns#" xmlns:rdfs="http://www.w3.org/2000/01/rdf-schema#" xmlns:dc="http://purl.org/dc/elements/1.1/">
			<rdf:Description about="https://iconscout.com/legal#licenses" dc:title="Currency, Money, Conversion, Taiwan, Dollar, To, Euro, Finance" dc:description="Currency, Money, Conversion, Taiwan, Dollar, To, Euro, Finance" dc:publisher="Iconscout" dc:date="2016-12-14" dc:format="image/svg+xml" dc:language="en">
				<dc:creator>
					<rdf:Bag>
						<rdf:li>Mohit Gandhi</rdf:li>
					</rdf:Bag>
				</dc:creator>
			</rdf:Description>
		</rdf:RDF>
    </metadata></svg>
