<svg xmlns="http://www.w3.org/2000/svg" viewBox="0 0 48 48"><path d="M47.853 23.304c.009.044.016.087.023.131-.006-.043-.015-.087-.023-.131M24 14c-13.322 0-24 4.993-24 9.999C0 28.975 10.766 34 24 34s24-5.038 24-10.001C48 19.037 37.234 14 24 14" fill="#303F9F"/><path d="M24 16c13.416 0 21.416 5.016 21.97 7.721l.002.014.01.044c.012.074.018.148.018.221 0 2.821-8.353 8-22 8S2 26.82 2 24c0-2.716 7.765-8 22-8m0-1c-13.758 0-23 5.136-23 9 0 3.783 9.445 9 23 9s23-5.217 23-9c0-.14-.013-.28-.038-.421l-.074.011.072-.018-.002-.013-.073.01.071-.017C46.25 19.89 37.021 15 24 15z" fill="#FFF"/><path d="M36.815 21.324c-.09 0-.136.011-.178.094-.139.267-1.834 2.807-2.149 3.3-.053.075-.118.065-.126-.021-.032-.293-.285-.629-.684-.791a1.738 1.738 0 00-.909-.105c-.557.075-1.054.369-1.491.701-.659.5-1.226 1.149-1.959 1.627-.4.261-.948.489-1.314.149-.332-.308-.295-.991.213-1.519.054-.056.118-.01.108.04a.672.672 0 00.192.644c.222.198.539.221.81.089.32-.158.509-.465.563-.813.085-.539-.33-1.015-.85-1.053-.422-.03-.827.117-1.221.443-.197.164-.31.285-.481.528-.042.059-.106.065-.104-.023.02-.691-.266-1.079-.837-1.092-.443-.01-.917.231-1.286.524-.404.325-.758.755-1.137 1.16-.047.05-.089.048-.102-.048-.011-.458-.126-.901-.338-1.216a.28.28 0 00-.365-.09c-.061.033-.274.131-.429.256-.076.063-.107.155-.073.273.204.683.16 1.46-.118 2.116-.255.601-.75 1.144-1.331 1.327-.383.122-.782.062-1.028-.277-.338-.469-.202-1.284.303-1.961.446-.596 1.089-.974 1.732-1.219.076-.029.091-.078.07-.142-.035-.105-.091-.249-.113-.315-.059-.157-.224-.182-.426-.16-.467.054-.888.214-1.304.437-1.089.583-1.635 1.712-1.874 2.316a2.361 2.361 0 01-.341.632c-.171.216-.387.412-.782.759a.138.138 0 00-.032.159c.041.083.246.373.303.398.064.031.139-.012.168-.034a4.09 4.09 0 00.768-.684c.056-.069.114-.04.144.065.151.537.545.977 1.091 1.16.999.337 2.035-.151 2.817-1 .497-.539.676-.887.867-1.122.322-.4.959-1.295 1.718-1.869.278-.213.608-.374.772-.267.133.086.176.287-.037.674-.773 1.413-1.911 3.071-2.12 3.474-.038.069-.006.125.068.125.405-.002.806-.001 1.173-.001.061-.003.089-.031.119-.075.593-.928 1.152-1.813 1.75-2.727.034-.053.064-.012.066.012.012.213.065.503.19.693.226.352.547.503.903.506.282.003.426-.04.73-.153.249-.093.449-.213.601-.323.089-.062.105.042.103.058-.137.737.033 1.611.765 1.973.877.432 1.841-.176 2.396-.724.054-.053.112-.047.118.066.011.209.107.458.28.633.464.466 1.403.281 2.343-.447.604-.466 1.236-1.125 1.807-1.823.022-.027.037-.07-.006-.115-.087-.09-.213-.195-.299-.275-.039-.033-.097-.024-.13.002-.585.556-1.112 1.191-1.874 1.716-.256.179-.666.324-.85.075-.072-.097-.063-.231.008-.406.222-.553 3.737-5.905 3.919-6.221.032-.055 0-.095-.07-.095l-1.213.001m-5.57 6.577c-.181-.094-.259-.347-.255-.55.009-.577.264-1.168.737-1.75.577-.709 1.214-1.078 1.633-.876.433.206.294.708.101 1.101a.114.114 0 00-.008.082c.007.041.06.08.112.099.019.007.029.02.008.063-.149.32-.287.506-.474.783a2.915 2.915 0 01-.602.651c-.274.226-.629.468-.964.468a.601.601 0 01-.288-.071" fill="#FFF"/><path d="M18.132 18.078c-.336 0-.672.013-1.012.04-2.16.182-4.215 1.399-4.22 3.244 0 .937.664 1.695 1.695 1.662 1.212-.041 2.207-1.012 2.728-2.236.197-.464-.169-.657-.343-.39a3.078 3.078 0 01-1.223 1.087c-.57.28-1.18.204-1.364-.26-.26-.653.28-1.63 1.513-2.091 1.78-.659 3.643-.223 5.435.114.026 0 .121.053.036.097-.32.175-.636.317-1.128.741-.354.302-.815.704-1.173 1.143-.354.432-.606.818-.938 1.244-.047.062-.104.059-.103.059-.811.137-1.605.228-2.332.734-.15.104-.216.288-.124.429.082.125.269.138.398.044a2.431 2.431 0 011.45-.511c.023.001.034.006.041.019.006.008 0 .025-.008.038-.799 1.108-.999 1.358-1.599 2.045-.308.353-.61.651-.948.961-1.364 1.267-2.831 1.246-3.357.451-.314-.477-.273-.977-.066-1.393.253-.509.766-.881 1.192-1.099.158-.081.204-.283.045-.467-.1-.121-.345-.142-.527-.109-.559.104-1.219.526-1.609 1.034a2.832 2.832 0 00-.585 2.04c.132 1.403 1.287 2.213 2.597 2.204 1.043-.009 2.026-.324 3.208-1.524 1.103-1.12 2.106-2.791 3.046-4.341.029-.05.05-.077.193-.094.589-.073 1.46-.158 2.018-.19.125-.007.15-.005.199.057.146.183.364.339.539.433.085.047.126.069.193.071a.243.243 0 00.188-.09c.059-.065.076-.149.044-.204-.033-.057-.423-.273-.435-.36-.009-.055.051-.068.051-.068a1.26 1.26 0 00.764-.62c.177-.34.206-.795-.119-1.047-.284-.221-.714-.186-1.057.121a1.283 1.283 0 00-.401 1.115c.008.066.006.089-.086.096-.516.041-1.013.055-1.566.084-.037.003-.048-.022-.027-.048.636-1.106 1.587-1.893 2.637-2.668.069-.052.048-.151.045-.234 1.898.412 3.731 1.18 5.701 1.163.814-.007 1.593-.13 2.337-.539.655-.358.922-.688.941-1.031.016-.238-.149-.387-.384-.337-1.989.457-3.886.452-5.866.213-2.245-.272-4.399-.832-6.633-.832h-.006m3.432 3.986a.8.8 0 01.264-.691c.112-.1.265-.123.359-.043.105.09.055.313-.051.468-.115.171-.312.318-.491.354l-.015.002c-.028-.001-.053-.022-.066-.09" fill="#FFF"/></svg>