<?xml version="1.0" standalone="no"?>
<!DOCTYPE svg PUBLIC "-//W3C//DTD SVG 20010904//EN"
 "http://www.w3.org/TR/2001/REC-SVG-20010904/DTD/svg10.dtd">
<svg version="1.0" xmlns="http://www.w3.org/2000/svg"
 width="109.000000pt" height="98.000000pt" viewBox="0 0 109.000000 98.000000"
 preserveAspectRatio="xMidYMid meet">

<g transform="translate(0.000000,98.000000) scale(0.100000,-0.100000)"
fill="#c89d4b" stroke="none">
<path d="M282 753 l-222 -167 2 -243 c2 -134 6 -243 11 -243 4 0 182 0 397 0
l389 0 3 57 3 58 42 -3 c57 -5 99 21 119 73 18 48 9 83 -32 126 -16 17 -22 29
-15 33 17 11 13 85 -6 117 -20 33 -64 54 -110 51 -26 -2 -33 1 -33 16 0 25
-57 82 -84 83 -70 4 -111 -17 -132 -67 -12 -28 -18 -31 -53 -31 -80 0 -136
-77 -110 -153 11 -29 9 -34 -14 -56 -79 -73 -15 -203 94 -192 35 3 39 1 39
-19 0 -23 -2 -23 -110 -23 l-109 0 0 170 c-1 186 -2 182 69 229 58 38 266 197
270 206 3 9 -165 145 -180 145 -3 0 -106 -75 -228 -167z"/>
</g>
</svg>
