<?xml version="1.0" standalone="no"?>
<!DOCTYPE svg PUBLIC "-//W3C//DTD SVG 20010904//EN"
 "http://www.w3.org/TR/2001/REC-SVG-20010904/DTD/svg10.dtd">
<svg version="1.0" xmlns="http://www.w3.org/2000/svg"
 width="687.000000pt" height="618.000000pt" viewBox="0 0 687.000000 618.000000"
 preserveAspectRatio="xMidYMid meet">
<metadata>
Created by potrace 1.16, written by Peter Selinger 2001-2019
</metadata>
<g transform="translate(0.000000,618.000000) scale(0.100000,-0.100000)"
fill="rgb(30 161 220)" stroke="none">
<path d="M3320 6130 c-496 -38 -951 -249 -1305 -605 -273 -275 -447 -585 -544
-970 -25 -98 -51 -268 -51 -334 0 -103 -2 -105 -119 -167 -198 -104 -344 -209
-500 -359 -329 -315 -554 -767 -611 -1228 -16 -130 -13 -403 5 -536 73 -522
350 -1007 760 -1332 390 -309 868 -465 1365 -446 217 9 399 43 610 114 113 38
343 153 452 226 l96 65 109 -72 c472 -311 1061 -412 1620 -276 420 102 806
341 1081 670 109 130 144 179 215 300 465 799 335 1826 -316 2480 -168 170
-357 309 -549 404 l-98 48 0 52 c0 219 -85 563 -196 792 -331 682 -975 1120
-1724 1174 -157 11 -159 11 -300 0z m380 -224 c630 -79 1160 -459 1440 -1031
94 -191 161 -422 177 -609 l6 -74 -94 24 c-187 49 -269 58 -516 59 l-232 0
-20 35 c-11 20 -53 86 -95 148 -242 361 -488 570 -746 632 -75 18 -221 16
-300 -4 -93 -23 -212 -83 -305 -153 -155 -116 -347 -341 -480 -561 l-59 -97
-225 0 c-242 0 -351 -12 -527 -60 -49 -13 -90 -23 -91 -22 -1 1 3 40 8 86 84
755 632 1386 1370 1580 99 26 167 38 304 54 78 10 282 6 385 -7z m-57 -1050
c181 -68 371 -249 546 -519 35 -55 59 -102 55 -106 -5 -4 -47 -18 -94 -30
-186 -50 -401 -149 -579 -267 l-94 -62 -93 63 c-166 112 -358 201 -563 261
-63 19 -116 35 -117 37 -2 1 32 54 74 118 200 300 399 475 595 525 75 20 188
11 270 -20z m-1306 -796 l23 0 -28 -52 c-82 -155 -279 -619 -362 -855 -18 -51
-36 -90 -40 -88 -28 17 -146 250 -194 383 -56 157 -121 491 -100 512 11 11
211 64 304 80 89 16 265 29 325 24 28 -2 60 -4 72 -4z m2647 -16 c55 -8 153
-28 219 -46 l120 -31 -6 -81 c-17 -237 -114 -528 -258 -775 -37 -64 -31 -70
-94 100 -105 283 -176 451 -310 736 l-53 112 36 4 c58 6 237 -3 346 -19z
m-2281 -39 c187 -49 351 -120 522 -227 l81 -50 -66 -67 c-36 -37 -81 -87 -100
-111 -19 -23 -46 -57 -60 -74 -195 -237 -356 -612 -405 -944 -9 -59 -18 -108
-20 -110 -1 -2 -27 9 -56 23 -122 62 -275 175 -411 304 l-97 92 39 113 c135
393 431 1076 465 1076 6 0 55 -11 108 -25z m1731 -102 c35 -71 89 -186 120
-258 32 -71 62 -139 67 -150 44 -98 239 -624 239 -645 0 -20 -171 -181 -276
-259 -58 -43 -144 -100 -191 -126 -92 -52 -103 -51 -103 9 0 46 -47 263 -79
361 -98 307 -254 571 -470 798 l-91 95 77 49 c101 64 176 102 293 150 97 40
285 97 337 102 7 0 42 -56 77 -126z m-2985 -208 c49 -289 184 -605 356 -836
l42 -55 -54 -170 c-170 -536 -395 -1396 -492 -1883 -12 -58 -23 -107 -26 -109
-2 -2 -38 20 -80 49 -556 384 -862 1044 -794 1710 59 585 410 1124 919 1415
l95 55 7 -28 c3 -15 15 -82 27 -148z m4202 113 c327 -197 577 -470 734 -802
184 -388 227 -823 124 -1241 -105 -426 -381 -821 -749 -1074 -66 -46 -76 -50
-82 -34 -3 10 -32 134 -63 276 -111 511 -319 1290 -454 1709 l-51 156 82 124
c178 265 305 600 335 888 3 33 9 60 13 60 4 0 54 -28 111 -62z m-2043 -351
c271 -298 429 -655 477 -1078 l6 -56 -88 -26 c-355 -105 -716 -102 -1080 10
-50 15 -53 17 -53 49 0 19 7 78 16 132 63 398 229 728 518 1029 l69 72 30 -25
c17 -14 64 -63 105 -107z m-1437 -984 c113 -92 251 -182 370 -243 l106 -54 7
-95 c35 -500 249 -975 593 -1318 29 -29 53 -55 53 -58 0 -8 -124 -86 -201
-127 -96 -52 -285 -126 -393 -153 -292 -74 -628 -76 -905 -5 -161 41 -321 103
-321 124 0 18 41 214 90 436 107 474 258 1041 392 1467 l51 163 41 -38 c23
-20 75 -65 117 -99z m2822 -23 c57 -184 122 -400 141 -471 8 -30 30 -112 50
-184 89 -330 188 -740 257 -1068 21 -104 39 -190 39 -192 0 -15 -246 -99 -363
-124 -156 -34 -232 -42 -402 -42 -367 1 -695 97 -1002 294 l-63 40 86 90 c106
111 149 166 229 287 186 285 295 586 325 898 22 225 11 198 93 236 166 79 359
211 486 332 37 34 69 59 72 56 4 -4 27 -72 52 -152z m-2009 -385 c302 -77 681
-76 989 1 54 13 102 24 106 24 10 0 6 -43 -15 -180 -40 -251 -138 -498 -288
-721 -35 -53 -73 -107 -83 -120 -38 -47 -151 -168 -185 -198 l-35 -30 -84 88
c-255 267 -421 585 -489 936 -24 128 -34 225 -23 225 5 0 53 -11 107 -25z"/>
</g>
</svg>
