<svg xmlns="http://www.w3.org/2000/svg" viewBox="0 0 24 24"><path fill="#F9BA00" d="M11.973 22.753c5.953 0 10.781-4.776 10.781-10.706 0-6.048-4.755-10.797-10.85-10.797-5.832 0-10.66 4.868-10.66 10.777 0 5.925 4.802 10.726 10.729 10.726z"/><path fill="#00235F" d="M9.493 11.459l-.139.275c-.521-.115-1.473-.48-2.472-.937l-.136.253.409.226c1.451.753 1.93.91 2.769.91 1.679 0 2.951-.956 3.542-2.643 1.043-.204 2.383-.295 3.97-.295 1.362 0 2.543.068 4.064.251l-.386.478a26.757 26.757 0 00-2.93-.184c-1.111 0-1.815.023-2.178.046l-.18.41c.931-.046 1.269-.046 1.997-.046 1.225 0 2.199.046 2.994.114l-.385.501c-1.43-.043-2.087-.068-3.153-.068-.591 0-1.023.025-1.726.045l-.183.41a34.836 34.836 0 012.339-.068c.84 0 1.837.024 2.429.046l-.387.503c-.404-.025-1.201-.025-1.816-.025-.974 0-2.199.045-2.835.138l-.183.364a28.298 28.298 0 013.155-.158c.499 0 .816 0 1.386.046l-.434.524c-.772-.046-1.019-.046-1.315-.046-2.156 0-3.562.318-4.972 1.117 1.294 1.298 3.45 2.187 5.382 2.187.158 0 .248 0 .658-.022l-.934.937c-5.127-1.345-6.035-1.712-10.734-4.514-1.859-1.071-3.382-1.8-4.609-2.166l.16-.569c.297.046.93.23 1.523.436l.27-.617 5.04 2.141z"/><path fill="#00235F" d="M12.189 0C5.371 0 0 5.306 0 12.047 0 18.648 5.371 24 11.973 24 18.647 24 24 18.673 24 12.026 24 5.448 18.671-.001 12.189 0zm-.216 22.753c-5.927 0-10.729-4.8-10.729-10.726 0-5.909 4.828-10.777 10.66-10.777 6.095 0 10.85 4.75 10.85 10.797 0 5.929-4.828 10.706-10.781 10.706z"/></svg>