<?xml version="1.0" encoding="UTF-8" standalone="no"?>
<svg
   xmlns:dc="http://purl.org/dc/elements/1.1/"
   xmlns:cc="http://creativecommons.org/ns#"
   xmlns:rdf="http://www.w3.org/1999/02/22-rdf-syntax-ns#"
   xmlns:svg="http://www.w3.org/2000/svg"
   xmlns="http://www.w3.org/2000/svg"
   xmlns:sodipodi="http://sodipodi.sourceforge.net/DTD/sodipodi-0.dtd"
   xmlns:inkscape="http://www.inkscape.org/namespaces/inkscape"
   width="56"
   height="56"
   version="1.1"
   id="svg23"
   sodipodi:docname="novartis.svg"
   inkscape:version="1.0.2-2 (e86c870879, 2021-01-15)">
  <metadata
     id="metadata27">
    <rdf:RDF>
      <cc:Work
         rdf:about="">
        <dc:format>image/svg+xml</dc:format>
        <dc:type
           rdf:resource="http://purl.org/dc/dcmitype/StillImage" />
        <dc:title></dc:title>
      </cc:Work>
    </rdf:RDF>
  </metadata>
  <sodipodi:namedview
     pagecolor="#ffffff"
     bordercolor="#666666"
     borderopacity="1"
     objecttolerance="10"
     gridtolerance="10"
     guidetolerance="10"
     inkscape:pageopacity="0"
     inkscape:pageshadow="2"
     inkscape:window-width="1920"
     inkscape:window-height="1017"
     id="namedview25"
     showgrid="false"
     inkscape:zoom="15.178571"
     inkscape:cx="28"
     inkscape:cy="22.729412"
     inkscape:window-x="-8"
     inkscape:window-y="-8"
     inkscape:window-maximized="1"
     inkscape:current-layer="svg23" />
  <path
     fill="none"
     d="M0 0h56v56H0z"
     id="path10" />
  <path
     d="M 29.288341,41.82247 33.249594,0.99764709 H 25.030567 L 28.990182,41.82247 Z"
     fill="#0460A9"
     id="path12"
     style="stroke-width:1.63824" />
  <path
     d="m 37.155147,24.58332 -0.121231,0.335838 c 1.990456,0.950177 6.4612,4.718118 6.4612,12.311339 0,7.150897 -5.553618,14.354218 -14.285412,14.354218 -10.859861,0 -14.603229,-6.890418 -14.603229,-13.22056 0,-8.109264 5.225971,-13.510526 5.225971,-20.897329 C 19.775107,12.085223 16.298772,7.4621236 11.451234,6.3202736 l -0.178567,0.3342 c 1.725061,1.8151646 2.69162,4.3167494 2.676876,6.9231814 0,7.981483 -6.2007204,13.653053 -6.2007204,22.810789 1.2e-6,8.436911 5.4356654,17.032732 21.1725534,17.032732 14.024932,0 21.421565,-7.452332 21.421565,-15.379753 -0.0098,-6.805229 -4.498594,-12.561988 -13.187794,-13.458103 z"
     fill="url(#paint0_linear)"
     id="path14"
     style="fill:url(#paint0_linear);stroke-width:1.63824" />
  <defs
     id="defs21">
    <linearGradient
       id="paint0_linear"
       x1="14.994"
       y1="43.997"
       x2="40.994"
       y2="43.997"
       gradientUnits="userSpaceOnUse"
       gradientTransform="matrix(1.6382355,0,0,1.6382355,-16.824707,-18.661179)">
      <stop
         offset=".3"
         stop-color="#E74A21"
         id="stop16" />
      <stop
         offset=".7"
         stop-color="#EC9A1E"
         id="stop18" />
    </linearGradient>
  </defs>
</svg>
