<?xml version="1.0" standalone="no"?>
<!DOCTYPE svg PUBLIC "-//W3C//DTD SVG 20010904//EN"
 "http://www.w3.org/TR/2001/REC-SVG-20010904/DTD/svg10.dtd">
<svg version="1.0" xmlns="http://www.w3.org/2000/svg"
 width="128.000000pt" height="128.000000pt" viewBox="0 0 128.000000 128.000000"
 preserveAspectRatio="xMidYMid meet">

<g transform="translate(0.000000,128.000000) scale(0.100000,-0.100000)"
fill="#ffffff" stroke="none">
<path d="M515 1250 c-215 -46 -394 -207 -467 -419 -20 -56 -23 -86 -23 -196 1
-115 4 -138 27 -197 73 -192 218 -333 403 -391 99 -31 271 -31 370 0 185 58
330 199 403 391 23 60 26 81 26 202 0 121 -3 142 -26 202 -71 187 -202 318
-386 385 -52 20 -91 26 -177 29 -60 2 -128 -1 -150 -6z m250 -115 c382 -100
513 -576 235 -855 -279 -278 -755 -147 -855 235 -69 265 98 547 366 619 72 19
181 20 254 1z"/>
<path d="M646 985 c-57 -20 -88 -46 -115 -95 -21 -37 -24 -56 -23 -127 l1 -83
-45 0 -44 0 0 -45 0 -45 55 0 55 0 0 -52 c0 -68 -31 -132 -81 -165 -33 -21
-39 -31 -39 -59 l0 -34 230 0 230 0 0 50 0 50 -152 0 c-144 0 -150 1 -135 18
28 30 47 89 47 142 l0 50 70 0 70 0 0 45 0 45 -75 0 -74 0 -7 36 c-3 19 -4 58
-2 86 8 74 40 101 117 96 31 -2 63 -7 72 -12 12 -5 18 2 28 34 6 22 10 44 7
49 -7 11 -87 31 -123 31 -15 -1 -46 -7 -67 -15z"/>
</g>
</svg>
