<?xml version="1.0" encoding="UTF-8" standalone="no"?>
<svg
   xmlns:dc="http://purl.org/dc/elements/1.1/"
   xmlns:cc="http://creativecommons.org/ns#"
   xmlns:rdf="http://www.w3.org/1999/02/22-rdf-syntax-ns#"
   xmlns:svg="http://www.w3.org/2000/svg"
   xmlns="http://www.w3.org/2000/svg"
   xmlns:sodipodi="http://sodipodi.sourceforge.net/DTD/sodipodi-0.dtd"
   xmlns:inkscape="http://www.inkscape.org/namespaces/inkscape"
   width="56"
   height="56"
   version="1.1"
   id="svg16"
   sodipodi:docname="roche.svg"
   inkscape:version="1.0.2-2 (e86c870879, 2021-01-15)">
  <metadata
     id="metadata22">
    <rdf:RDF>
      <cc:Work
         rdf:about="">
        <dc:format>image/svg+xml</dc:format>
        <dc:type
           rdf:resource="http://purl.org/dc/dcmitype/StillImage" />
        <dc:title></dc:title>
      </cc:Work>
    </rdf:RDF>
  </metadata>
  <defs
     id="defs20" />
  <sodipodi:namedview
     pagecolor="#ffffff"
     bordercolor="#666666"
     borderopacity="1"
     objecttolerance="10"
     gridtolerance="10"
     guidetolerance="10"
     inkscape:pageopacity="0"
     inkscape:pageshadow="2"
     inkscape:window-width="1920"
     inkscape:window-height="1017"
     id="namedview18"
     showgrid="false"
     inkscape:zoom="15.178571"
     inkscape:cx="28"
     inkscape:cy="17.458824"
     inkscape:window-x="-8"
     inkscape:window-y="-8"
     inkscape:window-maximized="1"
     inkscape:current-layer="svg16"
     inkscape:document-rotation="0"
     showguides="true"
     inkscape:guide-bbox="true">
    <sodipodi:guide
       position="29.38353,61.072941"
       orientation="0,-1"
       id="guide17" />
  </sodipodi:namedview>
  <path
     fill="#007AC2"
     d="M0 0h56v56H0z"
     id="path10" />
  <path
     d="m 36.003148,23.526197 c -0.319883,-0.231535 -0.822389,-0.370455 -1.309773,-0.363508 -0.530423,0.0069 -1.037582,0.171335 -1.388871,0.443385 v -3.15464 h -1.588943 v 10.418999 h 1.588943 v -5.458398 c 0,-0.383188 0.332677,-0.805736 0.949179,-0.831204 a 0.88520171,0.88098424 0 0 1 0.777022,0.373926 c 0.205889,0.295205 0.179135,0.696915 0.179135,1.125252 v 4.790424 h 1.738997 V 26.01981 c 0,-1.443611 -0.19542,-1.956456 -0.945689,-2.493613 z m -12.799947,3.769361 c 0,1.024535 -0.0314,1.313953 -0.03955,1.401934 -0.0535,0.569573 -0.290802,1.171559 -0.935219,1.171559 -0.645581,0 -0.907303,-0.643662 -0.935221,-1.198184 -0.0012,-0.0035 -0.03955,-0.350774 -0.03955,-1.375309 0,-1.026849 0.03839,-1.454029 0.03955,-1.457502 0.0081,-0.578834 0.300109,-1.157667 0.934057,-1.157667 0.635112,0 0.92824,0.578833 0.936383,1.151879 0,0.0093 0.03955,0.436441 0.03955,1.46329 z m 1.498212,-1.23523 c -0.218682,-2.240084 -1.458663,-2.720516 -2.47647,-2.720516 -1.442379,0 -2.319438,0.941182 -2.477634,2.715886 -0.01396,0.142393 -0.0349,0.402868 -0.04304,1.23986 -0.0047,0.608933 0.03257,1.107887 0.04071,1.235231 0.09771,1.65662 1.027113,2.678839 2.479961,2.678839 1.45401,0 2.379924,-1.038427 2.481124,-2.678839 0.0069,-0.116925 0.04071,-0.62514 0.04071,-1.235231 0,-0.275524 -0.02559,-1.025692 -0.04421,-1.23523 z m 15.161261,0.179438 c 0.01163,-0.341511 0.0047,-0.343827 0.01163,-0.442229 0.04421,-0.618192 0.321047,-1.131039 0.958484,-1.134513 0.75376,-0.0058 0.930567,0.72933 0.957321,1.137987 0.01396,0.214168 0.03025,0.287101 0.02792,0.438755 z m 1.93558,2.315334 c 0,0 0.0024,-0.06019 -0.01512,0.08103 -0.04536,0.363508 -0.188439,1.141461 -0.953831,1.141461 -0.651396,0 -0.903813,-0.590411 -0.946851,-1.177348 -0.0081,-0.167861 -0.0221,-0.568414 -0.01977,-1.202816 h 3.489626 c 0,0 0.0058,-0.305623 -0.0047,-0.618192 -0.0047,-0.122714 -0.01163,-0.32762 -0.04071,-0.758273 -0.04652,-0.662184 -0.296618,-1.385727 -0.676987,-1.854582 -0.440855,-0.54063 -1.063173,-0.826573 -1.800647,-0.826573 -1.416787,0 -2.303152,0.919187 -2.47647,2.679997 -0.01629,0.157443 -0.04188,0.3774 -0.04188,1.221338 0,0.60083 0.0349,1.103257 0.04071,1.216709 0.09422,1.609155 1.049214,2.642952 2.477634,2.642952 1.423767,0 2.378761,-0.833519 2.477634,-2.545708 z m -27.272589,-6.946 h 0.628133 c 0.840999,0 1.512171,0.551049 1.533109,1.331317 0.0012,0.05556 0.0081,0.121555 0.0081,0.243109 0,0.141236 -0.0024,0.192173 -0.0069,0.246584 -0.04652,0.463066 -0.247762,1.294271 -1.233,1.294271 H 14.52454 V 21.6091 Z m 3.726921,8.655873 -0.168666,-2.587385 c -0.07329,-1.157666 -0.381532,-1.889311 -0.99338,-2.238927 0.442019,-0.259316 1.014318,-0.854358 1.008502,-2.19725 -0.0069,-2.046756 -1.306284,-2.773769 -2.835903,-2.789977 h -2.154262 v 10.418999 h 1.416788 v -4.913137 h 0.975932 c 0.519954,0 1.105048,0.620509 1.193452,1.868474 l 0.167502,2.448464 c 0.01396,0.3473 0.08142,0.596199 0.08142,0.596199 h 1.39236 c 0,0 -0.06979,-0.241954 -0.08375,-0.60546 z M 29.244906,28.5551 c -0.04188,0.571887 -0.25009,1.222496 -0.913119,1.222496 -0.6165,0 -0.860774,-0.65987 -0.906139,-1.146091 -0.02675,-0.294047 -0.01977,-0.522107 -0.02559,-1.390357 -0.0069,-1.012957 0.02327,-1.273432 0.03723,-1.437821 0.05235,-0.64019 0.287313,-1.136829 0.895671,-1.141459 0.623479,-0.0035 0.886364,0.570729 0.893343,1.134512 v 0.443386 h 1.488908 a 16.343081,16.265216 0 0 0 -0.01163,-0.239637 c -0.166338,-2.141683 -1.400503,-2.660317 -2.374108,-2.660317 -1.380729,0 -2.221728,0.928448 -2.372946,2.678841 -0.01163,0.13892 -0.03257,0.397079 -0.03955,1.222495 -0.0069,0.600829 0.02908,1.092837 0.03838,1.216708 0.09306,1.634624 0.981748,2.639479 2.372945,2.642952 1.44238,0.0058 2.215913,-0.826574 2.354335,-2.545708 z"
     fill="#ffffff"
     id="path12"
     style="stroke-width:1.16044" />
  <path
     d="M 14.260453,12.347768 H 42.205376 L 53.821177,26.233978 42.531074,40.131765 H 14.260453 L 2.6399999,26.239766 Z M 14.862995,13.505434 4.3487532,26.239766 14.862995,38.974099 H 41.9169 L 52.122892,26.245555 41.602834,13.505434 Z"
     fill="#ffffff"
     id="path14"
     style="stroke-width:1.16044" />
</svg>
