<?xml version="1.0" standalone="no"?>
<!DOCTYPE svg PUBLIC "-//W3C//DTD SVG 20010904//EN"
 "http://www.w3.org/TR/2001/REC-SVG-20010904/DTD/svg10.dtd">
<svg version="1.0" xmlns="http://www.w3.org/2000/svg"
 width="128.000000pt" height="128.000000pt" viewBox="0 0 128.000000 128.000000"
 preserveAspectRatio="xMidYMid meet">

<g transform="translate(0.000000,128.000000) scale(0.100000,-0.100000)"
fill="#ffffff" stroke="none">
<path d="M549 1250 c-222 -35 -416 -195 -489 -403 -112 -320 57 -676 373 -787
227 -80 471 -24 641 146 167 167 225 410 150 630 -94 279 -387 459 -675 414z
m192 -114 c261 -56 440 -309 400 -566 -42 -277 -302 -473 -571 -431 -220 34
-393 204 -430 423 -44 256 135 517 393 573 81 18 128 18 208 1z"/>
<path d="M351 818 c10 -40 19 -76 19 -80 0 -5 -16 -8 -35 -8 -31 0 -35 -3 -35
-25 0 -23 4 -25 44 -25 41 0 44 -2 50 -31 9 -49 9 -49 -42 -49 -55 0 -62 -4
-55 -31 5 -16 14 -19 63 -19 l58 0 19 -77 c19 -78 19 -78 54 -81 39 -3 37 -7
69 116 l11 42 64 0 64 0 17 -80 17 -80 39 0 c22 0 38 5 38 11 0 7 9 43 20 80
l21 69 64 0 c63 0 65 1 65 25 0 24 -3 25 -56 25 l-56 0 7 33 c10 46 12 47 61
47 40 0 44 2 44 25 0 22 -4 25 -35 25 -41 0 -42 3 -15 90 11 36 20 66 20 68 0
1 -15 2 -34 2 -29 0 -35 -4 -41 -27 -3 -16 -13 -52 -21 -80 l-15 -53 -63 0
-63 0 -17 81 -17 80 -36 -3 -37 -3 -20 -77 -20 -78 -63 0 -62 0 -10 38 c-6 20
-14 55 -19 77 -7 37 -11 40 -44 43 l-36 3 19 -73z m299 -58 c0 -21 -5 -30 -16
-30 -11 0 -14 5 -10 16 3 9 6 22 6 30 0 8 5 14 10 14 6 0 10 -13 10 -30z
m-104 -100 c-3 -11 -9 -29 -12 -40 -8 -30 -60 -28 -69 3 -18 61 -20 57 35 57
47 0 51 -2 46 -20z m124 11 c0 -5 3 -23 6 -40 l7 -31 -48 0 -47 0 7 33 c4 17
9 35 12 40 6 10 63 9 63 -2z m147 -31 c-10 -36 -14 -40 -44 -40 -25 0 -33 4
-33 18 0 9 -3 27 -6 40 -6 21 -3 22 43 22 l50 0 -10 -40z m-308 -112 c0 -13
-4 -32 -9 -43 l-9 -20 0 20 c-1 11 -4 30 -7 43 -5 16 -2 22 10 22 10 0 16 -8
15 -22z m277 0 c-3 -13 -6 -32 -7 -43 -1 -17 -2 -16 -9 5 -13 41 -11 60 6 60
12 0 15 -6 10 -22z"/>
</g>
</svg>
