<?xml version="1.0" encoding="UTF-8" standalone="no"?>
<svg
   xmlns:dc="http://purl.org/dc/elements/1.1/"
   xmlns:cc="http://creativecommons.org/ns#"
   xmlns:rdf="http://www.w3.org/1999/02/22-rdf-syntax-ns#"
   xmlns:svg="http://www.w3.org/2000/svg"
   xmlns="http://www.w3.org/2000/svg"
   xmlns:sodipodi="http://sodipodi.sourceforge.net/DTD/sodipodi-0.dtd"
   xmlns:inkscape="http://www.inkscape.org/namespaces/inkscape"
   width="56"
   height="56"
   version="1.1"
   id="svg20"
   sodipodi:docname="standard-chartered1.svg"
   inkscape:version="1.0.2-2 (e86c870879, 2021-01-15)">
  <metadata
     id="metadata26">
    <rdf:RDF>
      <cc:Work
         rdf:about="">
        <dc:format>image/svg+xml</dc:format>
        <dc:type
           rdf:resource="http://purl.org/dc/dcmitype/StillImage" />
        <dc:title></dc:title>
      </cc:Work>
    </rdf:RDF>
  </metadata>
  <defs
     id="defs24" />
  <sodipodi:namedview
     pagecolor="#ffffff"
     bordercolor="#666666"
     borderopacity="1"
     objecttolerance="10"
     gridtolerance="10"
     guidetolerance="10"
     inkscape:pageopacity="0"
     inkscape:pageshadow="2"
     inkscape:window-width="1920"
     inkscape:window-height="1017"
     id="namedview22"
     showgrid="false"
     inkscape:zoom="15.178571"
     inkscape:cx="28"
     inkscape:cy="14.823529"
     inkscape:window-x="-8"
     inkscape:window-y="-8"
     inkscape:window-maximized="1"
     inkscape:current-layer="svg20" />
  <path
     d="m 17.018716,9.2919552 c -2.907997,1.8260188 -4.74997,4.3061578 -4.74997,8.0945318 0,4.116158 2.509144,6.471562 6.531028,8.299033 l 19.907818,9.009716 c 2.349604,1.083428 3.086392,2.364107 3.086392,3.966769 0,0.913735 -0.50473,1.831821 -1.227015,2.461283 l 1.16755,-0.754194 c 2.504795,-1.599761 4.076998,-3.77242 4.076998,-7.217055 0,-4.417836 -2.852883,-6.839958 -6.371487,-8.44117 L 20.06595,15.944816 c -1.892737,-0.857172 -3.779671,-1.824568 -3.779671,-4.169823 0,-0.986253 0.285722,-1.7984612 0.732437,-2.481587 z"
     fill="#086da9"
     id="path12"
     style="stroke-width:1.45037" />
  <path
     d="M 30.906264,0.55529414 17.010752,9.2831504 a 4.4364669,4.4364669 0 0 0 -0.732641,2.4808226 c 0,2.347354 1.886006,3.31502 3.780717,4.172428 l 6.432731,2.908801 c -1.053262,-0.515025 -2.235642,-1.131604 -2.235642,-1.932431 0,-0.703626 0.612227,-1.16062 1.06777,-1.44497 l 5.147346,-3.193156 c 2.335745,-1.44497 3.721234,-3.3266233 3.721234,-6.1454771 0,-2.6317041 -1.619063,-4.6033059 -3.286003,-5.57387376 z M 32.429577,31.865898 c 1.019895,0.475855 1.36663,0.850154 1.36663,1.444972 0,0.570153 -0.48746,1.095334 -1.999167,1.952741 l -1.80041,1.037304 10.570339,4.822373 c 0.721035,-0.629636 1.227355,-1.549427 1.227355,-2.461964 0,-1.606007 -0.735543,-2.884138 -3.088699,-3.967868 l -6.274597,-2.827558 z m -14.705045,12.756656 -6.731591,4.127453 c 0.166839,3.505069 3.049527,6.409519 6.512525,6.409519 1.337613,0 2.612844,-0.503419 4.018644,-1.363728 l 6.689518,-4.352322 -10.489096,-4.822373 z"
     fill="#80b0d5"
     id="path14"
     style="stroke-width:1.45077" />
  <path
     d="m 41.833494,10.890608 -12.331579,7.629621 10.60951,4.820922 1.286838,-0.752952 c 2.393777,-1.38694 3.741545,-3.326625 3.741545,-6.144028 0,-2.631704 -1.639374,-4.565586 -3.306314,-5.553563 z M 17.170337,26.67793 c -0.612227,0.684766 -0.990879,1.372433 -0.990879,2.685383 0,2.533052 2.115229,3.386107 4.355225,4.414706 l 5.00807,2.258855 c -0.928495,-0.43233 -1.623415,-0.947356 -1.623415,-1.566836 0,-0.573055 0.503418,-0.986526 1.227355,-1.444971 l 2.633153,-1.545074 -10.61096,-4.802063 z"
     fill="#a2d993"
     id="path16"
     style="stroke-width:1.45077" />
  <path
     d="M 43.622299,55.684706 C 40.951424,53.569477 38.100654,52.139014 34.636204,50.524303 L 18.621111,43.241417 c -4.022997,-1.842482 -6.69097,-4.300093 -6.69097,-8.4348 0,-4.018643 1.89326,-5.962681 4.352322,-7.562884 l 0.889325,-0.573056 c -0.610776,0.684766 -0.999584,1.372432 -0.999584,2.686833 0,2.531601 2.115229,3.389008 4.355225,4.417607 l 18.630838,8.439153 c 3.241029,1.429012 6.206411,3.889525 6.206411,8.079359 0,2.302379 -0.853055,4.363929 -1.740928,5.391077 z"
     fill="#35af3b"
     id="path18"
     style="stroke-width:1.45077" />
</svg>
