<svg xmlns="http://www.w3.org/2000/svg" viewBox="0 0 2517.9 2785.3"><path fill="#0f0e9a" d="M1037.7 2577.9c19.4 0 52.8-6.3 79.1-48.4-15-33.4-25.7-100.8-27.2-125.3-7.7-125.6 40.6-243.7 93.6-246.9 38.8-2.3 69.9 34.4 73.4 93.9 9.5 156.5-42.6 221.8-68.6 278.1 4.4 21.9 41.4 59 76.4 59 12.9 0 28.5-6.5 32.5-11.7-2.6-9-5.2-20.7-5.2-37.6 0-90.7 58.3-167.1 108.8-167.1 40.2 0 63.4 53.1 63.4 88.1 0 41.4-35 75.1-86.8 107.5 9.1 9 25.9 15.6 40.2 15.6 73.9 0 112.5-89.4 141.2-171 5.2-15.6 14.3-37.6 32.4-37.6 31.1 0 44.1 204.7 95.8 204.7 22.1 0 40.2-45.4 40.2-80.3 0-25.9-9.1-28.5-9.1-66.1 0-41.4 22-76.3 51.9-76.3 18.1 0 24.7 18 24.7 40 0 82.9-59.6 237.1-147.6 237.1-66.2 0-61-114-84.3-114-26 0-62.3 115.3-190.4 115.3-20.8 0-42.8-10.4-60.9-31.1-31.1 20.8-57.1 29.8-86.9 29.8-47.9 0-68.6-49.2-88-49.2-23.4 0-49.2 50.5-127 50.5-62.2 0-72.5-82.8-94.5-82.8-19.5 0-49.2 82.8-81.6 82.8-54.5 0-66-143.8-114-143.8-37.6 0-156.2 146-188.4 142.7-13-1.4-18.4-11.1-17-24 1.8-17.9 17.2-65.9 23.5-88.6 10.5-39.4 20.1-82.6 25.5-96.3 5.3-13.9 19.7-23.8 31.3-22.7 5.8.5 7.6 11.4 9.4 20.3 6.5 32 15.7 64.7 26 64.7 18.2 0 78.3-115.3 113.2-115.3 42.8 0 48 181.4 106.2 181.4 19.5 0 33.8-23.3 46.7-51.8 1.3-48 14.3-116.5 53.1-116.5 27.2 0 40.2 60.8 20.7 114-.3 63.3 41.1 78.8 68.3 78.9m1036.2-155.4c-16.1 66.6-64.7 164.5-137.3 164.5-16.8 0-46.6-6.5-46.6-23.4 0-18.2 114.1-20.7 114.1-107.5 0-32.3-29.8-77.7-73.8-77.7-58.3 0-115.1 63.5-115.1 151.6 0 79 49.1 104.9 98.2 104.9 85.6 0 137.3-70 164.5-128.3 13 38.9 20.7 128.3 53.2 128.3 12.9 0 22-6.5 37.6-41.4 38.7-86.8 76.3-186.5 128.2-186.5 19.4 0 7.8 35 54.4 35 22 0 37.4-18.1 37.4-39 0-29.8-27.2-53-68.6-53-121.7 0-147.6 182.6-167 182.6-32.4 0-22-146.4-45.4-146.4-20.9 0-31 24.7-33.8 36.3m-859.2-136.4c-2.3-36.2-11-52.5-30.4-51.2-25.8 1.6-37.7 82.7-32.5 168 3.4 55.7 11.6 64.2 19.4 63.7 14.2-.9 48.4-100.3 43.5-180.5M1004 2210c-1.8-20.7-18.1-34.9-40.1-34.9-24.6 0-47.7 25.8-45.3 58.2 1.6 21.3 14.2 38.9 38.9 38.9 28.4 0 49.1-32.4 46.5-62.2m402.9 264.2c0-22-11.7-40.1-25.9-40.1-11.8 0-38.9 12.9-38.9 54.4 0 32.5 11.6 47.9 16.8 54.5 37.6-11.7 48-42.9 48-68.8m506.4-43.9c27.2 0 35 32.2 28.6 51.7-6.5 19.4-29.8 41.5-66.1 48-7.8-19.5-11.7-99.7 37.5-99.7m-1491.4-92c-3.7-11.8-14.5-38.2-17.4-57.8-6.5-43.3 16.2-71.8 36.9-78.3 23.3-6.5 32.4 5.2 41.4 32.4 11.7 41.4 13 95.8 9.1 173.5-5.1 106.2-58.2 234.5-190.3 231.8-114-2.5-164.5-76.4-169.7-189-2.5-53.1 1.3-106.2 23.3-181.3 11.6-40.2 22.1-54.5 58.3-62.2 28.5-5.2 25.9 24.6 19.5 59.7-14.2 77.7-20.8 115.2-15.5 203.3 5.1 93.2 47.9 129.5 94.6 129.5 69.9 1.3 101-57 114-141.2 10.1-67.3 2.3-99.7-4.2-120.4m1527.6-1685c9 65.3 107.9 153.3 134.7 151.2 17.9-1.5 24.8-85.2 24.8-151.2 0-37.8 2.1-67.4-17.9-74.3-31.6 63.9-114.7 77-141.6 74.3m5.5-28.9c71.4 0 136.8-57 136.8-107.2 0-23.4-11-42.6-39.2-46 4.8 6.2 6.9 11 6.9 22 0 37.8-57.6 79.8-120.2 79.8-22.7 0-29.6 15.8-29.6 24-.1 19.2 18.5 27.4 45.3 27.4m-15.1-77.7c-9.6 0-23.4 0-31-15.1-6.2-12.4-4.1-32.3-15.8-41.3 11.7 3.4 24.1 3.4 33.7 3.4 31 0 60.6-21.3 83.2-21.3 15 0 19.8 9.7 19.8 19.2.1 30.4-61 55.1-89.9 55.1M402.5 1085.5c23.3 0 18.5-143 56.3-143 8.9 0 11.7 8.9 11.7 20 0 32.3-15.8 79.7-15.8 105.8 0 13.1 3.4 17.2 9.6 17.2 16.5 0 45.4-157.4 73.6-157.4 8.9 0 13 8.9 13 17.9 0 33-41.9 127.8-41.9 154.6 0 4.1 1.4 7.5 4.8 7.5 17.2 0 51.6-74.2 62.5-111.3 6.2-19.3 14.4-29.6 22-29.6 6.9 0 13.1 7.6 13.1 23.4 0 37.1-34.4 124.4-64.6 182.8-23.4 45.3-59.8 110.6-59.8 147 0 18.6 3.4 37.8 30.2 61.2-44-2.7-61.9-6.9-78.3-41.2-73.5 146.4 135.4 132 63.9 261.8-13.1-23.3-116.1-47.4-116.1-183.5 0-117.5 103.1-186.2 103.1-235.1 0-9.6-3.4-17.8-12.4-25.4-22.7-19.3-23.4-35-41.2-35-13.1 0-28.9 30.2-12.4 57 5.5 8.9 10.3 14.4 10.3 22.7 0 19.2-30.3 70.8-51.5 70.8-21.3 0-37.8-52.9-37.8-138.1 0-75.6 17.2-151.9 38.5-151.9 6.2 0 8.3 4.1 8.3 9.6 0 8.9-2.7 26.8-2.7 57-.1 32.5 7.5 35.2 13.6 35.2"/><path fill="#0f0e9a" d="M577.8 1286.9c28.9 0 52.9-21.3 52.9-68.7v-70.1c0-26.8 2.1-57 20-78.3-2.1 8.9-2.1 18.6-2.1 27.5 0 59.1 33 99.7 33 156.7 0 21.3-6.2 33-22.7 33-15.8 0-14.5-14.5-17.9-14.5-2.7 0-6.9 8.9-6.9 18.6 0 14.4 10.3 37.1 39.2 37.1 24.8 0 44.7-22.7 44.7-48.1 0-61.8-48.1-130.6-48.1-196.5 0-28.9 7.5-48.1 13.7-63.3 0 136.8 116.1 236.4 116.1 293.4 0 13.1-9.6 23.4-24 23.4-15.8 0-23.4-12.4-23.4-22 0-4.8-.7-6.2-2.7-6.2-4.1 0-16.5 13.7-16.5 31.6 0 22.7 18.5 50.2 52.9 50.2 39.1 0 60.5-33 60.5-62.6 0-72.2-140.9-181.4-140.9-298.3 0-19.9 3.4-52.2 17.9-77-90.7 58.4-118.9 136.1-118.9 204.2 0 59.1-2.1 88.6-32.3 88.6-15.8 0-19.9-14.4-25.5-14.4-4.1 0-6.2 12.4-6.2 15.8.1 25.4 18.6 39.9 37.2 39.9m1191-686.6c30.3 0 53-13.7 53-22 0-2.7-4.1-4.8-13.1-4.8-8.9 0-26.8-.7-60.5-6.2-28.9-4.8-50.9-15.8-59.2-15.8-2.7 0-4.1 1.4-4.1 3.4 0 17.9 33 45.4 83.9 45.4M1619 513.1c8.7-5.9 47.4 3.4 97.5-21.3 5.4-3.1 11.6-4.7 17.9-4.8 24.1 0 17.9 27.5 39.9 27.5 17.2 0 39.2-14.4 52.3-14.4 20.5 0 50.1 64.6 50.1 94.9 0 35.1-52.8 56.4-115.4 56.4-91.3 0-146.4-79.7-146.4-131.2 0-4.4 2.1-5.8 4.1-7.1M592.2 1546c-22.7 5.5-59.1 41.2-59.1 97.6 0 67.3 72.2 171.1 191.1 171.1 100.3 0 125.1-69.4 125.1-116.2 0-103.8-63.9-176.6-147-176.6-45.4 0-85.9 33-85.9 81.8 0 45.4 34.4 113.4 116.1 113.4 38.5 0 61.1-27.5 61.1-59.1 0-30.9-28.2-73.5-69.4-73.5-12.4 0-21.3 8.2-21.3 21.3 0 16.5 22.7 33 50.9 33 6.9 0 12.4-1.4 15.1-2.7 1.4 2.1 2.1 5.5 2.1 8.3 0 15.8-15.2 25.5-38.5 25.5-35 0-68.7-26.1-68.7-67.4 0-24.7 21.3-42.6 52.2-42.6 61.2 0 97.6 54.3 97.6 108.6 0 48.7-26.8 77-81.8 77-110-.1-163.6-99.1-139.6-199.5m731.2 265.3c0 15.2 12.3 27.5 27.5 27.5 15.1 0 27.5-12.4 27.5-27.5s-12.3-27.5-27.5-27.5c-15.1.1-27.4 12.3-27.5 27.5m53.3 137.4c32.9 0 31.3-2.7 41.6-2.7s11 6.2 11 10.3c0 15.1-33.7 33.7-93.5 33.7-35.1 0-56.4-18.6-62.6-39.2-34.3 22-86.6 41.9-138.1 41.9-140.9 0-176.6-61.2-220.6-81.1-33.7-15.1-85.2 14.5-157.4-66 9.6 2.1 22.7 2.8 33 2.8 63.2 0 96.9-30.9 96.9-80.4 0-6.2-.7-13-1.4-19.1 19.3 7.5 63.3 40.5 73.6 98.9 1.4 6.9 29.6 13.1 47.4 13.1 24.8 0 56.4-10.3 61.2-50.8 82.5-6.9 138.2-55.7 149.9-117.6 29.5 9.6 63.2 36.5 71.4 50.2 11.7-4.1 25.4-6.2 41.2-6.2 22 0 46.8 4.1 76.3 13.1 1.4-9 2.8-20 16.5-20 20.6 0 15.1 22.7 22 35.7 3.5 6.9 20.7 11 20.7 24.8 0 13.1-11.1 17.9-17.9 17.9-2.8 0-6.2-.7-8.3-1.4-13.7 4.8-14.4 103.7-72.2 103.7-42.6 0-81.8-35-99-79-4.8-13.1-15.1-21.3-24.8-21.3-11 0-17.2 2.1-30.2 16.5-37.1 40.5-99 75.5-175.3 75.5-23.4 0-41.9-2.1-46.8-2.1-2.7 0-2.7.7-2.7 1.4 0 4.8 23.4 23.4 74.2 23.4 120.9 0 150.5-68.1 169.8-68.1 2.7 0 11 0 15.8 11 28.3 65.9 89.8 81.1 128.3 81.1m416.9-437.8c-14.4 0-94.3 106.5-145.7 106.5-12.4 0-22.7-23.4-22.7-41.2 0-9.6 6.1-16.5 28.2-21.3 118.2-26.8 92-115.5 193-115.5 55.7 0 117.6 37.8 117.6 123.1 0 90.7-129.1 203.4-148.4 203.4-15.8 0-33-22.7-33-37.8 0-4.8 2.1-11 15.8-16.5 65.9-26.2 103.7-86.6 103.7-117.6 0-6.9-3.4-13.7-12.4-13.7-11.6 0-61.7 114-117.4 114-38.5 0-77.7-35-77.7-51.5 0-27.5 111.4-78.3 111.4-116.9 0-14.3-6.9-15-12.4-15m74.1-42.6c-9.6 0-19.9 7.6-19.9 26.2 0 20.5 15.8 33.6 24.8 37.7 4.8 2.7 12.4 5.5 19.9 5.5 20 0 35.8-5.5 35.8-22-.1-21.2-31-47.4-60.6-47.4M584 672.5c0 15.2 12.3 27.5 27.5 27.5 15.2-.1 27.4-12.4 27.4-27.5s-12.3-27.4-27.4-27.5c-15.2 0-27.5 12.3-27.5 27.5m-35.8-61.9c0 15.1 12.3 27.4 27.5 27.5 15.1 0 27.5-12.4 27.5-27.5s-12.4-27.5-27.5-27.5c-15.1.1-27.4 12.4-27.5 27.5m-24.7 188.3c-15.8 4.1-48.8 23.4-48.8 57.7 0 24.8 19.2 40.6 43.3 40.6 12.4 0 21.3-2.7 26.8-6.9-19.2-18.6-26.1-39.2-26.1-59.8 0-14.4 2.1-23.3 4.8-31.6m-168.4 9.7c-.7 3.4-.7 6.9-.7 10.3 0 32.3 17.2 50.2 39.8 50.2 17.1 0 37.1-10.3 55-33-8.2 1.4-16.5 2.1-24.8 2-25.3 0-52.8-6.8-69.3-29.5m-24 61.1c0 52.2 15.8 77 44 77 22 0 51.6-15.8 86.6-46.1-26.8 6.2-47.4 10.3-65.9 10.3-24.9.1-44.1-9.6-64.7-41.2m178-274.9c3.4-11 6.2-24.7 6.2-39.8 0-33-15.1-83.2-61.8-83.2-26.8 0-46.1 21.3-46.1 46.8-.1 54.3 54.2 76.2 101.7 76.2M450.6 768c-22.7 0-47.4-28.2-47.4-53.6 0-13.7 10.3-30.9 17.9-30.9 2.7 0 4.1 2.1 4.8 6.9 4.1 33.7 26.1 52.9 46.8 62.5 2.1 1.4 3.4 2.1 3.4 3.5 0 4.7-13.1 11.6-25.5 11.6m63.3-83.8c4.7 6.5 17.9 14.5 17.9 19.3 0 9.6-5.5 22-16.5 22-24.1 0-43.3-36.4-43.3-57.1 0-13 7.6-14.4 17.8-14.4 4.8 0 6.9.7 10.3 2.7 6.2 3.4 6.2 17.2 13.8 27.5m-161.5 85.2c-1.3 2.1-2.1 4.8-2.1 7.6 0 6.2 6.9 13 13 13 5.5 0 8.9-1.4 11.7-1.4 16.5 0 35 11.6 61.9 11.6 15.8 0 34.4-4.8 57.7-16.5 49.5-24.8 68.7-85.9 68.7-96.2 0-13.1-10.5-11.4-19.3-23.4-8.7-12-5.4-22.6-11-28.2-3.2-3.2-13-3.4-25.5-4.8-5-.5-10.1-.7-15.1-.7-22.7 0-49.6 2.8-79.7 22-59.5 38.2-50.7 101.2-60.3 117m228.1-27.5c-15.1 17.8-30.9 48.1-30.9 79 0 37.1 22.7 68 57.8 68 33.7 0 49.5-28.8 49.5-58.4-.1-46-42-78.3-76.4-88.6M433.5 610s-20 15.1-44.7 15.1c-29.5 0-52.9-22-52.9-52.9 0-21.3 11-43.3 36.4-54.3-.7 4.1-.7 7.6-.7 11.7 0 39.1 22 68.7 61.9 80.4m1211.7 228.1c0 15.8 13.1 28.9 28.7 28.9 15.9-.1 28.8-13 28.9-28.9 0-15.8-13.1-28.8-28.9-28.8-15.6 0-28.7 13-28.7 28.8m2 86.6c0 17.8 14.4 32.3 32.3 32.3s32.3-14.4 32.3-32.3c-.3-17.8-15-32-32.9-31.7-17.4.3-31.4 14.3-31.7 31.7m-99 58.4c.1 26.2 21.3 47.4 47.5 47.4 26.1 0 47.5-21.3 47.5-47.4s-21.4-47.4-47.5-47.4c-26.2 0-47.5 21.2-47.5 47.4m25.4-96.9c0 15.2 12.3 27.5 27.5 27.5s27.5-12.3 27.5-27.5-12.3-27.4-27.5-27.5c-15.1.1-27.4 12.3-27.5 27.5m-90 55c0 15.1 12.3 27.4 27.4 27.5 15.2 0 27.5-12.3 27.5-27.5s-12.4-27.5-27.6-27.5c-15 .1-27.2 12.4-27.3 27.5m70.8-160.8c0 24 19.9 43.9 44 43.9s44-19.9 44-43.9c0-24.1-19.9-44-44-44s-44 19.9-44 44m51.5-84.5c0 14.4 11.7 26.1 26.1 26.1 14.4.4 26.5-10.9 26.9-25.4.4-14.4-10.9-26.5-25.4-26.9h-1.5c-14.4 0-26.1 11.7-26.1 26.2m-124.3 65.9c0 14.4 11.6 26.1 26 26.1s26.1-11.7 26.1-26.1c0-14.4-11.7-26.1-26.1-26.1-14.4.1-26 11.8-26 26.1m-3.5 89.4c-.2 23 18.4 41.8 41.4 41.9h.4c23 .2 41.8-18.4 42-41.4v-.5c0-23.3-18.6-41.9-42-41.9-23-.1-41.7 18.5-41.8 41.5v.4m-86.6 44c0 21.3 17.9 39.1 39.2 39.1 21.3 0 39.2-17.8 39.2-39.1S1452 856 1430.7 856c-21.3 0-39.2 17.9-39.2 39.2m23.4-96.9c.1 15.1 12.3 27.4 27.5 27.5 15.2 0 27.6-12.4 27.6-27.5s-12.4-27.5-27.6-27.5c-15.2.1-27.5 12.3-27.5 27.5m241.3 211.6c0-13.7 12.4-25.4 26-25.4 15.2 0 26.8 11.7 26.8 25.4 0 15.8-11.7 26.8-26.8 26.8-13.7 0-26-11-26-26.8m17.7 790.4c3.4 0 7.6 2 7.6 14.4 0 15.1-6.9 35-31.5 50.8-17.2 11.7-40.6 21.3-75 21.9 5.5-16.5 9.6-33.7 9.6-50.1 0-5.5-.7-9.6-1.4-15.8h9c54.3.1 77.7-21.2 81.7-21.2m5.5-68c5.6-4.7 6.9-12.4 6.9-19.9v-15.8c0-19.9-30.1-31.6-71.4-31.6-50.2 0-77 22.6-77 32.3v31.7c0 13.1 30.3 26.1 67.4 26.1 29.5-.1 56.4-7.7 74.1-22.8m35.7 7.5c-17.9 13.8-59.7 44.6-129.2 44.6-37.1 0-53.7-11.7-59.2-11.7-6.9 0-14.4 6.9-22 15.8-16.3 19.3-37.7 55-37.7 94.1 0 27.5 21.3 54.9 61 54.9 128.6 0 224.8-80.4 224.8-145.6.2-36.9-21.8-52.1-37.7-52.1m24.1-578c0 17.2 5.5 37.1 22.7 37.1 14.4 0 26.8-22 26.8-46 0-27.5-4.8-48.8-4.8-59.8 0-4.8 2.1-6.8 4.8-6.8 10.3.7 20 28.8 31 28.8 12.4 0 30.8-22.7 38.4-22.7 2.1 0 2.7 2.7 2.7 3.4 0 10.3-15.8 33-15.8 41.9 0 7.5 39.9 8.9 39.9 15.8 0 10.3-41.8 10.3-61.7 19.3-19.3 8.2-31 18.6-31 32.3s13.7 16.5 33 16.5c45.9 0 78.2-24.7 88.5-24.7 2.1 0 3.4 1.4 3.4 3.5 0 6.9-23.4 29.5-23.4 39.8 0 11.7 42.7 25.4 42 32.3-.7 2.1-3.5 2.7-8.3 2.7-7.6 0-19.3-2-28.2-2-5.5 0-10.3.7-12.4 3.4-4.7 5.5 1.4 41.9-8.2 41.9-9 0-32.4-81.1-85.2-81.1-7.6 0-13.1 6.2-13.1 16.5 0 27.5 26.8 59.1 52.3 74.2 11.5 7.5 30.8 15.1 30.8 19.3 0 8.2-43.9.7-43.9 14.4 0 12.4 5.5 31 5.5 41.9 0 3.4-.7 7.5-4.8 7.5-8.2 0-28.2-37.8-37.8-37.8-8.2 0-26.1 22.7-33.7 22.7-2 0-3.4-2.1-3.4-4.1 0-15.8 25.4-51.6 25.4-86.6 0-16.5-2.1-52.2-22-52.2-16.5 0-35.1 26.1-43.3 52.2-4.8 15.1-1.4 73.5-12.4 73.5-10.3 0-7.6-39.2-21.4-39.2-10.1 0-32.1 18.6-39.7 18.6-1.4 0-2.7-.7-2.7-2.1 0-8.2 19.9-35 19.9-40.5 0-10.3-45.4-11.6-45.4-19.9 0-4.8 17.9-8.3 34.4-11 35-6.2 86.5-31.6 86.5-67.3 0-39.9-38.6-57.1-63.8-73.6-13.1-8.2-27.5-15.1-27.5-20.6s16.5-5.5 23.4-5.5c10.3 0 20.5-.7 20.5-8.9 0-6.2-1.4-18.6-1.4-28.2 0-6.9.7-12.4 3.5-12.4 10.3 0 24.7 33.7 31.6 33.7 11 0 26.1-27.5 36.5-27.5 3.4 0 4.8 2.1 4.8 8.3.1 25.4-13 54.3-13 79m-327.8-201.3c7.6 58.4 86 28.9 86 99.6 0 10.3-2.7 25.5-2.7 38.5 0 15.2 1.4 28.2 12.9 28.2 11.7 0 14.4-8.3 14.4-19.3s-2.8-24.8-2.8-32.3c0-24.1 17.2-29.6 27.5-29.6 26.2 0 46.1 26.8 85.3 26.8-8.9 44-99.8 32.3-99.8 80.4 0 24.1 24.1 29.5 39.9 29.5 14.4 0 19.3-2.1 19.3-14.4 0-6.9-1.4-14.4-1.4-19.3 0-3 2.4-5.5 5.4-5.5h.2c15.1 0 89.3 56.4 89.3 73.6 0 15.8-78.3 31.6-101 31.6-6.9 0-8.3-4.8-8.3-7.5 0-4.8 11.7-19.3 11.7-27.5 0-6.2-10.3-10.3-37.8-10.3-13.1 0-22.7 1.4-22.7 11.7 0 18.5 30.3 41.2 30.3 58.4 0 13.7-8.3 22-30.3 22-18.6 0-46.6-14.4-46.6-38.5 0-19.2 19.8-38.5 19.8-50.1 0-3.5-2.6-9-10.9-9-25.5 0-32.3 67.3-122.4 74.9 14.5-13 26.8-27.5 26.8-57 0-14.4-3.4-26.2-3.4-41.9 0-20.6 9.6-30.9 23.4-30.9 25.4 0 37.8 35.7 54.3 35.7 9 0 18.6-8.2 18.6-20.6 0-52.2-100.4-44.7-100.4-118.2 0-20 6.8-44.7 25.4-79m130.6 446.7c0 9.6 6.9 17.2 16.5 17.2 11 0 17.9-9.7 17.9-20.7 0-14.4-13.1-34.4-25.5-34.4-5.5 0-3.4 8.3-4.8 17.2-.7 6.9-4.1 15.1-4.1 20.7m-35.8-91.4c72.2 13.7 111.4 68 111.4 118.9 0 35.1-22 67.3-60.5 67.3-35.1 0-60.4-24-60.4-62.5 0-28.9 22.5-59.1 22.5-88.6.1-11.8-3.4-23.5-13-35.1m-91.3 116.8c6.8 6.8 8.9 13.7 8.9 20.6 0 10.3-4.8 21.3-4.8 33 0 16.5 12.4 30.9 30.2 30.9 19.3 0 32.4-15.2 32.4-32.9 0-26.2-26.9-51.6-66.7-51.6m227.5-44c4.8 7.5 6.9 15.1 6.9 21.9 0 19.3-13.1 37.1-13.1 57.1 0 22.7 17.2 41.2 43.2 41.2 28.2 0 47.5-22.7 47.5-49.5 0-36.3-33-67.2-84.5-70.7m-211-36.4c31.6 4.1 39.2 15.1 39.2 24.1 0 15.1-13.8 19.9-26.9 19.9-9.6 0-20.6-2-32.3-2-15.1 0-30.2 3.4-42.6 17.9 8.9 1.4 22 7.5 22 21.3 0 39.8-110.7 6.8-110.7 109.3 0 54.3 56.4 113.4 141.6 113.4 44 0 72.2-14.4 72.2-31 0-13-23.4-4.1-23.4-15.1 0-4.8 8.2-13.8 8.2-21.3 0-3.4-2.7-9.6-8.2-9.6-12.4 0-35.8 19.9-83.2 19.9-37.1 0-73.5-21.3-73.5-50.1 0-6.2 2.7-9.6 6.9-9.6s9.6 2.8 14.4 2.8c4.2 0 4.8-2.8 4.8-10.3 0-7.6 0-28.9 13-28.9 13.1 0 37.8 48.1 132.7 48.1 31.5 0 92.7-6.2 115.4-26.8-.7 75.6-59.8 175.2-183.5 175.2-128.5 0-197.3-103.1-197.3-197.9 0-105.2 85.9-200.6 203.5-200.6 30.2 0 55.7 10.3 55.7 23.3.1 17.7-44.6 6.7-48 28M986.7 567.3c45.4 0 65.9 39.2 65.9 83.2 0 19.2-5.5 47.4-14.4 47.4s-7.6-15.8-8.9-30.3c-1.4-18.5-4.8-22.7-11-22.7-11.7 0-19.2 27.5-19.2 52.9 0 15.8 2.7 33.7 15.1 33.7 6.9 0 13.1-3.4 17.2-7.6-2.7 31.6-26.1 59.1-59.1 59.1-60.5 0-83.2-70.8-90-112.1-36.4 38.5-70.1 66.7-130.6 66.7-56.3 0-81.8-41.2-81.8-80.4 0-11.7 4.1-41.9 18.6-41.9 17.2 0 2.1 56.3 35.7 56.3 8.3 0 23.4-6.9 31.6-29.5 4.8-13.8 7.6-28.2 7.6-40.6 0-18.6-4.1-30.2-17.9-30.2-11.7 0-26.2 8.9-31 13.7 16.5-49.5 56.4-74.9 100.3-74.9 54.3 0 83.2 48.1 83.2 101.7 0 7.5-.7 15.8-2.1 23.4 23.4-38.3 55.8-67.9 90.8-67.9m-52.9 81.1c0-11.7-2.7-14.4-5.5-14.4-6.9 0-14.4 8.3-25.4 26.8 1.4 24.8 5.5 35.7 12.4 35.7 7.5.1 18.5-24 18.5-48.1m-94.2 28.2c7.5 0 17.2-8.3 35.1-28.2 1.4-8.9 1.4-17.2 1.4-27.5 0-13.7-5.5-28.9-13.7-28.9-20.7 0-31 55-31 69.5 0 8.2 4.1 15.1 8.2 15.1m112.1 61.2c17.2 0 36.4-66 36.4-107.2 0-8.9-1.4-18.5-5.5-18.5-14.4 0-38.5 68-38.5 105.1 0 14.4 3.4 20.6 7.6 20.6M783.3 700c23.4 0 50.1-126.5 50.1-147.8 0-5.5-2-9.7-6.8-9.7-21.3 0-50.9 120.3-50.9 147.1 0 4.9 1.4 10.4 7.6 10.4"/><path fill="#0f0e9a" d="M858.2 752.2c-29.6 0-30.9 35.8-30.9 107.9-22-47.4-58.4-98.3-101-98.3-28.8 0-39.8 19.3-39.8 52.9 0 6.9.7 17.2 2.1 23.4 3.4-11.6 14.4-16.5 28.2-16.5 29.6 0 65.3 22.7 88.7 53.6-26.8-4.8-52.9-9.6-74.9-9.6-13.7 0-26.1 1.4-36.4 6.2-19.9 8.9-46.7 38.5-46.7 83.1 0 6.9.7 14.4 2.1 22.7 24-53.6 88-77.7 129.2-77.7 8.3 0 14.4.7 19.2 1.4-21.3 19.2-26.1 52.9-27.5 75.6-.7 11-4.8 11.7-12.4 11.7 0 22.7 17.9 56.4 17.9 73.5 0 6.2-3.5 11.7-6.9 13.1 0 30.2 30.2 52.2 30.2 71.5 0 4.8-1.4 8.9-3.5 11 2.1 12.4 35.3 33.2 39.6 43.6 5.3 12.7 11.2 14.8 14.7 14.8 11.7 0 30.2-13.8 30.2-26.1 0-4.1-3.4-8.9-6.1-11-13.1-9.6-20-30.2-25.5-44-4.8 0-11.1-2-13.2-10.1-3.8-14.2-3.9-40.7-9.5-56.6-8.9-2-13.1-5.5-13.1-24 0-9 5.5-44 5.5-56.4-4.1 0-9.6-2.7-9.6-11 0-22 22-39.2 28.2-67.3 39.2 28.8 48.8 58.4 48.8 84.5 0 13.7-2.1 26.8-4.8 39.2 28.9-14.4 72.2-35.7 72.2-79 0-25.5-11.7-53.6-89.3-64.6 24-8.9 54.3-13.7 79.7-13.7 44 0 69.4 13.7 74.9 44.6 8.9-13.7 15.8-29.6 15.8-43.9 0-33.7-28.2-55.7-64-55.7-41.9 0-79 22-118.9 48.8 17.9-37.1 30.2-59.1 52.2-59.1 3.4 0 6.9.7 10.3 1.4-8.3-30.3-39.2-59.9-55.7-59.9m1157.9 495.5c34.4 0 61.9 44.7 61.9 96.9 0 55.6-26.1 116.1-72.7 157.3-.7-92.7-114.2-63.2-114.2-130.5 0-28.9 20.7-48.1 45.4-48.1 22 0 39.2 6.2 51.6 18.6-12.4-11.7-18.6-28.2-18.6-44 0-26.2 16.5-50.2 46.6-50.2m-509.9-703.1c-5.5-8.9-26-13.7-35.6-13.7-30.3 0-50.9 21.3-55 40.6-2.7-6.9-4.8-15.1-4.8-23.4 0-30.2 20.6-67.3 70.9-67.3 43.9 0 61 23.4 67.3 23.4 6.8 0 13.7-6.9 19.3-6.9 7.6 0 7.6 11.7 7.6 20 0 27.4-12.4 74.9-43.3 92.1-5.5-11.7-16.5-24.7-34.3-33-4.2-1.7-7-5.8-6.9-10.3-.2-7.7 6.7-17.3 14.8-21.5m-103.7 50.2c17.9 17.2 33.7 24.8 52.9 24.8 7.6 0 16.6-2 21.4-2 6.2 0 10.3 2.7 10.3 7.5 0 7.6-6.9 19.9-15.1 26.8 8.3 3.4 17.2 4.8 26.8 4.8 39 0 83.8-24.8 83.8-86.6 8.3 11 13.1 33.7 13.1 44 0 74.9-55 103.8-105.8 103.8-33 0-49.6-11-53.7-11-13 0-12.3 26.1-21.3 25.5-15.8-2.7-30.2-37.8-30.2-74.9-.1-22.1 5.4-45.5 17.8-62.7M814.2 157.7c0-4.1-20.6-8.3-48.8-8.3-44.7 0-38.5 37.1-72.8 37.1-35.7 0-26.8-38.5-72.2-38.5-27.5 0-52.9 4.8-52.9 11 0 8.3 32.3 4.8 32.3 27.5 0 24-69.4 30.9-69.4 45.4 0 4.8 5.5 6.8 12.3 6.8 15.1 0 39.2-6.8 56.4-6.8 9.6 0 18.6 2 18.6 11 0 17.2-37.1 48.1-37.1 61.9 0 4.1 3.4 5.5 6.9 5.5 13.7 0 37.1-35.1 59.1-35.1 36.4 0 12.4 77.7 32.3 77.7 20.6 0 11.7-76.3 41.2-76.3 24.1 0 41.9 52.9 58.4 52.9 4.1 0 7.6-3.4 7.6-8.3 0-14.4-20.6-44-20.6-63.2 0-11.7 8.3-17.2 19.3-17.2 15.8 0 37.1 9.6 48.7 9.6 4.1 0 8.3-1.4 8.3-6.2 0-16.5-61.1-34.4-61.1-55.7-.2-21.1 33.5-21.1 33.5-30.8m161.5 70.1c0 12.4 43.3 39.2 63.2 39.2 11.6 0 15.1-15.8 15.1-32.3 0-20.6-8.9-21.3-26.8-21.3-22.6 0-51.5 6.2-51.5 14.4m71.5 136.1c0-41.2-111.5-116.1-112.7-148.4-.1-2.9 1.5-5.9 4-8.5 19.1-20.1 98.4-34.8 98.4-52 0-8.9-16.5-8.9-24.8-8.9-63.9 0-157.4 23.4-157.4 46 0 23.4 83.8 80.4 83.8 108.6 0 7.6-4.8 10.3-12.4 10.3-23.3 0-74.2-28.2-98.3-28.2-11 0-15.1 7.6-15.1 18.6 0 33 39.2 95.5 39.2 114.1 0 2.1-.7 4.8-3.4 4.8-12.4 0-70.8-68.7-91.4-68.7-7.6 0-8.2 10.3-8.2 25.4v23.4c0 15.8-.7 25.4-8.2 25.4-17.9 0-26.2-50.2-43.3-50.2-17.9 0-21.3 89.3-38.5 89.3-19.9 0-2.7-98.3-22-98.3-21.3 0-45.4 65.3-60.5 65.3-5.5 0-6.8-5.5-6.8-10.3 0-19.9 11.6-52.2 11.6-71.4 0-9.7-2.7-15.1-11-15.1-21.3 0-68.1 34.4-85.9 34.4-2.7 0-6.2-1.4-6.2-4.1 0-16.5 74.9-68.7 74.9-92.1 0-22.7-103.1-7.6-103.1-33.7 0-22 73.6-44.7 73.6-67.3 0-20-87.3-28.9-121-28.9-40.6 0-62.5 4.8-62.5 16.5 0 17.9 92.1 23.4 92.1 39.2 0 15.1-95.5 55.7-95.5 79 0 20.6 134.7 1.4 134.7 22.7 0 23.4-117.5 124.4-117.5 158 0 7.6 5.5 11 13 11 35.8 0 128.5-68 153.9-68 8.9 0 9.6 11 9.6 20.6 0 17.9-6.2 45.4-6.2 65.3 0 15.8 4.1 26.8 17.9 26.8 25.5 0 48.8-43.3 66-43.3 22 0 9 127.1 41.9 127.1 28.2 0 39.8-137.5 57.7-137.5 17.9 0 32.4 39.9 48.8 39.9 20.6 0 11-69.4 33-69.4 24 0 92.7 82.5 123.7 82.5 9.6 0 13-7.6 13-17.2 0-36.4-50.8-118.8-50.8-145 0-6.9 2-8.9 9.6-8.9 26.8 0 105.2 37.1 142.3 37.1 12.4-.1 20-7 20-15.9m-627.5-39.8c0 13.7-52.2 59.8-70.7 59.8-6.9 0-8.9-8.2-8.9-15.8 0-13.7 6.2-33 13.8-39.2 8.9-8.3 29.5-12.3 45.3-12.3 9.5-.1 20.5 1.9 20.5 7.5m505.1 70.7c0 24 85.9 141.6 102.4 141.6 13.8 0 24-24 24-44.7 0-5.5-1.4-10.9-4.1-15.1-12.4-17.2-99.7-85.9-118.9-85.9-2 0-3.4 2.1-3.4 4.1m1103.7-208.2c0 9.6 7.6 17.1 17.2 17.1 9.4.1 17.1-7.4 17.2-16.8v-.3c0-9.7-7.6-17.2-17.2-17.2-9.4-.1-17.1 7.4-17.2 16.8v.4m-112 151.9c0-48.8-116.7-61.2-116.7-72.2 0-8.9 65.2-24.1 98.9-24.8-51.5-65.9-125-59.1-125-70.8 0-6.9 55-20.6 105.8-20.6 42.6 0 82.5 9.6 82.5 41.9 0 17.9-14.4 36.5-14.4 64 0 15.1 7.5 28.2 27.5 28.2 21.3 0 26.1-22.7 26.1-46.8 0-19.9-3.5-35-3.5-44.7 0-28.9 19.8-48.1 48-48.1 23.4 0 28.9 10.3 63.3 10.3-18.6 11-25.4 31-25.4 40.6 0 28.9 18.6 48.8 18.6 107.9 0 108.5-101.7 147-226.1 147-34.2 0-70.7-2.7-106.5-8.2-5.5-.7-6.9-2.1-6.9-5.5 0-9 48.8-13.8 48.8-57.7 0-17.2-5.5-33.7-5.5-39.9 0-3.4 2.7-5.5 5.5-5.5 10.3 0 31 39.8 69.3 39.8 10.3.1 35.7-3.3 35.7-34.9m116.1-69.4c0 61.1-44.5 107.9-125.1 120.9 9 .7 17.2.7 25.5.7 94.1 0 128.5-42.6 128.5-78.3 0-19.9-11-37.8-28.9-43.3m-47.3 885.8c11-34.4 24.8-58.4 47.3-95.5-22.5-11.6-82.4-36.4-82.4-77 0-47.4 59.1-84.5 71.4-84.5 5.5 0 6.9 4.8 6.9 13.7 0 24.7-11.7 64.6-11.7 85.9 0 19.2 12.4 37.8 23.4 37.8 11.7 0 44-41.2 44-81.8 0-72.9-64-94.9-83.8-94.9-18.6 0-52.3 30.2-131.4 30.2-147.7 0-181.4-146.3-181.4-210.3 0-2.7.7-3.4 1.4-3.4 3.4 0 17.9 17.9 64.6 17.9 24.1 0 46.1-6.2 81.2-6.2 82.3 0 118.8 57.1 169.7 129.9C2035.4 836 2109 867 2109 954.3c0 77-81.9 119.6-101.7 202 31.5-3.4 50.1-59.8 82.4-59.8 16.5 0 24.1 13.1 24.1 33.7 0 30.2-17.2 75.6-50.2 103.8.7-2.8.7-6.2.7-10.3 0-19.2-7.5-46.7-29.6-46.7-34.2 0-45.3 37.1-64.5 68-19.9-70.1-46.8-133.3-94.9-171.8-48.7-39.2-132.6-17.9-132.6-89.3 0-19.3 12.4-46.7 12.4-68.7 0-7.5-1.4-14.4-5.5-19.9 66 24.8 42.6 68.7 83.2 114.1 25.3 28.9 95.4 56.4 136 175.3.7-3.4 1.4-12.4 1.4-18.6 0-101.7-134.6-201.4-146.3-242.6 78.2 8.9 92 28.2 129.1 131.3 7.5 21.1 32.3 74 32.3 100.1m-17.9-333.3c0-14.4-36.5-15.8-39.9-56.3-.7-6.2-2.7-17.2-10.3-17.2-12.4 0-2.8 37.8-16.5 37.8-31.6 0-41.9-61.9-53.6-61.9-2.8 0-6 2.1-6 10.3 0 7.5 1.4 12.4 1.4 21.3 0 9-2.1 15.1-10.3 15.1-18.6 0-35.1-43.3-50.9-43.3-3.5 0-6.9 2.1-6.9 5.5 0 8.3 13.7 23.4 13.7 30.9 0 16.5-44.7 7.5-44.7 21.3 0 6.2 6.2 8.2 14.4 8.2 14.4 0 37.2-6.2 48.8-6.2 6.9 0 17.2 1.4 17.2 10.3 0 9.6-24.8 22-24.8 30.9 0 4.1 4.1 6.2 7.6 6.2 18.6 0 51.4-32.3 74.8-32.3 4.1 0 14.4 2.1 14.4 8.3 0 8.9-23.3 24.7-23.3 37.8 0 3.4 2.1 7.6 6.2 7.6 12.3 0 28.8-32.3 52.2-32.3 9 0 22 3.5 28.9 3.5 5.6 0 7.6-3.4 7.6-5.5"/><path fill="#0f0e9a" d="M1455.4 409.9c11 0 13.1 26.8 15.2 42.6 1.4 8.3 2.7 8.9 6.2 8.9 8.3 0 21.3-31.6 30.1-31.6 13 0 48.1 36.4 106.6 36.4 83.1 0 161.5-58.4 161.5-161.5 0-99.6-70.2-158.1-167-158.1-46 0-79.8 22.7-97.7 22.7-10.9.7-27.4-26.8-35.6-26.8-3.4 0-6.9 6.8-6.9 18.5 0 7.6 0 31.6-8.3 31.6-16.6 0-80.4-47.4-80.4-30.2 0 15.8 42.6 63.9 42.6 76.3 0 12.4-41.9 24.1-41.9 32.3 0 15.1 44.7 17.8 44.7 37.1 0 19.2-46.8 34.4-46.8 48.8 0 11.6 46.8 3.4 46.8 17.8s-34.4 62.5-34.4 76.2c0 3.5.7 3.5 3.4 3.5 13.1.2 52.3-44.5 61.9-44.5m20-112.6c0-7.6-26.9-22-26.9-30.2 0-1.4 1.4-2.1 3.5-2.1 7.6 0 20.6 2.8 31 2.8 9 0 10.3-38.5 17.1-38.5 4.8 0 13 36.4 20.7 36.4 8.9 0 25.4-10.3 32.3-10.3 1.4 0 2.7.7 2.7 2.1 0 4.8-17.2 23.3-17.2 28.8 0 6.2 38.5 13.7 38.5 19.3 0 6.9-39.2 6.2-39.2 12.4 0 4.8 14.4 24 14.4 30.2 0 1.4-.7 2.1-2.1 2.1-5.5 0-26.8-9.7-33-9.7-7.5 0-19.8 28.2-26 28.2-2.1 0-3.4-2.7-3.4-6.2l-1.4-27.5c0-2.7-1.3-5.5-4.8-5.5-8.3 0-24.1-.7-28.9-.7-3.5 0-4.8-.7-4.8-2 0-5.6 27.5-24.8 27.5-29.6m134 130.5c-48.1 0-79.8-24-79.8-36.4 0-6.2 4.1-10.3 9.7-10.3 15.1 0 48.1 23.3 59.1 23.3 2.7 0 4.8-1.4 4.8-5.5 0-12.4-11.7-33-11.7-43.3 0-2.7 2.1-4.8 6.2-4.8 18.5 0 46.1 7.6 60.6 7.6 4.8 0 6.1-2.8 6.1-5.5 0-15.1-44.7-44.7-44.7-53.6 0-8.3 55.6-20.6 55.6-33.7 0-13.8-75.5-4.2-75.5-17.2 0-9.6 14.4-26.1 14.4-33.7 0-3.4-2.7-4.8-7.5-4.8-6.2 0-39.2 13.1-52.9 13.1-6.9 0-15.2-1.4-15.2-11 0-15.8 26.8-33 68.8-33 68 0 108.6 46.8 108.6 125.1-.1 99-69.5 123.7-106.6 123.7m-465.3 1189c0 6.2-2.1 13.1-7.6 19.9-7.5-13.7-28.9-20.7-38.5-20.6-70.8 0-44 102.4-119.6 102.4-31.6 0-34.4-4.1-46-4.1-4.8 0-7.5 2.1-7.5 6.2 0 17.9 25.4 61.9 96.2 61.9s138.8-43.3 138.8-97c0-8.9-2.1-18.5-6.2-28.1 2.7-4.1 9.7-6.9 15.8-6.9 11 0 17.2 12.4 27.5 12.4 11 0 19.3-8.3 19.3-19.3 0-8.9-4.8-15.1-13.1-19.3 5.5-4.1 9.6-11 9.6-18.5 0-11.7-8.2-22.6-22-22.6-6.2 0-10.3 2.1-15.1 6.8-1.4-12.3-8.2-24-21.3-24-10.3 0-17.9 7.6-17.9 19.3 0 10.8 7.6 19.8 7.6 31.5"/><path fill="#0f0e9a" d="M959.2 1642.9c-20.6 0-51.6-22-51.6-34.4 0-10.3 9.7-15.8 17.2-15.8 17.2 0 48.1 21.3 48.1 39.2 0 4.8-3.4 11-13.7 11M767.5 1489c55 13.7 82.5 43.2 88 78.3 5.5 33.6 12.4 61.1 25.4 74.9 17.2 19.3 50.8 36.4 80.4 36.4 24.8 0 44.6-8.2 44.6-30.9 0-24.8-33.7-80.4-83.1-80.4-4.8 0-11 .7-17.8.7-6.2 0-15.1-1.4-20.7-6.2-11-9.7-14.4-61.2-35-92.1-22.7-34.4-47.4-44-81.1-44-24 0-50.9 13.1-50.9 32.3 0 11.7 6.2 20 50.2 31"/><path fill="#0f0e9a" d="M1112.5 1405.1c0-30.9-64-31.6-64-78.3 0-11.7 7.6-31.6 22.7-52.9 6.2 35.7 20.6 54.3 51.6 66 61.1 22.7 69.4 57 69.4 93.5 0 61.9-43.3 138.8-154.6 138.8-89.4 0-153.3-79.7-153.3-147.1 0-18.6 4.8-39.2 16.5-39.2 10.3 0 13.8 8.2 22 16.5 31 30.9 64.6 39.2 113.4 39.2 44-.1 76.3-17.9 76.3-36.5m2.7 49.5c-23.6 10.8-33 8.9-33 33 0 8.9-2.1 20.5-2.1 26.7 0 8.2 1.4 13.1 11 13.1 24.8 0 64-41.9 64-77.7 0-9.6-5.5-13.7-11.7-13.7-5.5.1-11.7 11-28.2 18.6M896 1107.5c0-44 104.5-67.4 104.5-121.7 0-8.9-3.4-24.7-9.6-36.4 36.4 19.9 63.2 53.7 63.2 81.1 0 47.4-49.5 69.4-49.5 99 0 34.4 52.9 39.8 52.9 82.5 0 35-50.2 75.6-50.2 120.9 0 35 24.8 63.9 62.6 68.7-12.4 2.8-23.4 4.8-35 4.8-69.4 0-140.9-57-140.9-125.1 0-33.7 14.4-63.2 36.4-84.5 19.3 16.5 38.5 27.5 50.8 27.5 11 0 15.8-5.5 15.8-13.7 0-25.4-101-48.8-101-103.1M497.3 1447c2.9 23.5 24.8 41.3 49.5 38.5 8.9-1 17.2-3.5 22.7-6.9 5.5 22 23.9 36.1 48.9 32.8 25.3-3.3 42.5-23.2 39.8-48.7-.5-5.5-1.9-10.8-4.1-15.8 0 0 3.4-.3 5.9-.8 24.8-4.7 41.5-24.6 39.5-48.7-2.7-24.7-24.9-43.1-48.1-40.2-8.9 1.1-17.2 4.5-22.7 9.3-6.2-20.6-25.6-38.5-52.1-34.1-23.9 3.9-39.7 24.2-37.3 49.9.4 4.2 1.4 8.9 3.4 13.7l-6.8 1c-20.1 3.1-41.8 23.3-38.6 50m128.5-27c1.4 14.4-9.1 27.1-23.5 28.5-14 1.4-26.5-8.6-28.4-22.5-1.7-14.3 8.6-27.3 22.9-29s27.3 8.7 29 23"/></svg>