<?xml version="1.0" standalone="no"?>
<!DOCTYPE svg PUBLIC "-//W3C//DTD SVG 20010904//EN"
 "http://www.w3.org/TR/2001/REC-SVG-20010904/DTD/svg10.dtd">
<svg version="1.0" xmlns="http://www.w3.org/2000/svg"
 width="128.000000pt" height="128.000000pt" viewBox="0 0 128.000000 128.000000"
 preserveAspectRatio="xMidYMid meet">

<g transform="translate(0.000000,128.000000) scale(0.100000,-0.100000)"
fill="#ffffff" stroke="none">
<path d="M560 1250 c-235 -31 -433 -197 -506 -424 -37 -115 -37 -257 0 -372
61 -191 209 -339 400 -400 115 -37 257 -37 372 0 139 44 254 133 334 258 124
192 124 464 0 656 -130 202 -367 313 -600 282z m160 -110 c212 -34 388 -212
420 -428 42 -270 -153 -531 -427 -572 -271 -42 -532 153 -573 427 -45 294 186
568 490 582 14 0 54 -4 90 -9z"/>
<path d="M610 1013 c0 -48 -1 -48 -52 -73 -58 -28 -86 -60 -98 -113 -19 -87
23 -150 137 -203 103 -49 133 -77 133 -125 0 -44 -24 -75 -65 -85 -38 -9 -117
0 -155 19 -18 10 -34 17 -36 17 -4 0 -24 -62 -24 -75 0 -14 58 -40 113 -50 37
-7 37 -8 37 -56 l0 -49 40 0 40 0 0 54 c0 53 1 55 31 61 73 16 140 123 123
198 -16 76 -58 116 -179 171 -80 36 -95 51 -95 96 0 69 73 98 171 66 56 -19
63 -16 75 33 4 15 2 26 -7 32 -18 11 -79 29 -101 29 -15 0 -18 9 -18 50 l0 50
-35 0 -35 0 0 -47z"/>
</g>
</svg>
