<?xml version="1.0" encoding="UTF-8" standalone="no"?>
<svg
   xmlns:dc="http://purl.org/dc/elements/1.1/"
   xmlns:cc="http://creativecommons.org/ns#"
   xmlns:rdf="http://www.w3.org/1999/02/22-rdf-syntax-ns#"
   xmlns:svg="http://www.w3.org/2000/svg"
   xmlns="http://www.w3.org/2000/svg"
   xmlns:sodipodi="http://sodipodi.sourceforge.net/DTD/sodipodi-0.dtd"
   xmlns:inkscape="http://www.inkscape.org/namespaces/inkscape"
   width="56"
   height="56"
   version="1.1"
   id="svg14"
   sodipodi:docname="astrazeneca.svg"
   inkscape:version="1.0.2-2 (e86c870879, 2021-01-15)">
  <metadata
     id="metadata20">
    <rdf:RDF>
      <cc:Work
         rdf:about="">
        <dc:format>image/svg+xml</dc:format>
        <dc:type
           rdf:resource="http://purl.org/dc/dcmitype/StillImage" />
        <dc:title></dc:title>
      </cc:Work>
    </rdf:RDF>
  </metadata>
  <defs
     id="defs18">
    <clipPath
       clipPathUnits="userSpaceOnUse"
       id="clipPath2851">
      <rect
         style="fill:none"
         id="rect2853"
         width="28.329414"
         height="36.76236"
         x="11.990589"
         y="11.134117"
         ry="0" />
    </clipPath>
  </defs>
  <sodipodi:namedview
     pagecolor="#ffffff"
     bordercolor="#666666"
     borderopacity="1"
     objecttolerance="10"
     gridtolerance="10"
     guidetolerance="10"
     inkscape:pageopacity="0"
     inkscape:pageshadow="2"
     inkscape:window-width="1920"
     inkscape:window-height="1017"
     id="namedview16"
     showgrid="false"
     inkscape:zoom="15.178571"
     inkscape:cx="32.393232"
     inkscape:cy="23.267609"
     inkscape:window-x="-8"
     inkscape:window-y="-8"
     inkscape:window-maximized="1"
     inkscape:current-layer="svg14"
     inkscape:lockguides="true" />
  <path
     d="m 40.072412,30.271412 a 1.557,1.557 0 0 0 -0.033,-0.215 3.513,3.513 0 0 0 -0.13,-0.424 3.594,3.594 0 0 0 -0.208,-0.422 5.05,5.05 0 0 0 -0.283,-0.436 2.114,2.114 0 0 0 -0.197,-0.232 2.65,2.65 0 0 0 -0.247,-0.234 c -0.2,-0.16 -0.398,-0.324 -0.615,-0.458 -0.476,-0.295 -0.95,-0.602 -1.46,-0.83 -0.616,-0.274 -1.213,-0.599 -1.848,-0.822 l -4.285,-1.505 c 0,-0.825 0.023,-1.649 0,-2.473 a 77.44,77.44 0 0 0 -0.179,-3.665 32.992,32.992 0 0 0 -0.297,-2.537 c -0.102,-0.656 -0.256,-1.304 -0.4,-1.951 -0.033,-0.15 -0.082,-0.293 -0.131,-0.436 a 5.838,5.838 0 0 0 -0.298,-0.722 3.931,3.931 0 0 0 -0.336,-0.541 2.708,2.708 0 0 0 -0.527,-0.53 1.962,1.962 0 0 0 -0.934,-0.37 1.706,1.706 0 0 0 -0.206,-0.017 c -0.118,-0.002 -0.236,-0.004 -0.353,0.004 a 3.006,3.006 0 0 0 -0.762,0.152 c -0.137,0.046 -0.27,0.102 -0.399,0.166 a 6.362,6.362 0 0 0 -0.84,0.532 c -0.239,0.181 -0.482,0.358 -0.7,0.564 a 90.667,90.667 0 0 0 -2.632,2.604 c -0.458,0.473 -0.902,0.961 -1.317,1.471 -1.651,2.022 -3.295,4.05 -4.883,6.124 -0.705,0.92 -1.339,1.893 -1.992,2.85 a 9.68,9.68 0 0 0 -0.456,0.74 c -0.244,0.443 -0.473,0.894 -0.697,1.348 a 3.48,3.48 0 0 0 -0.148,0.367 4.032,4.032 0 0 0 -0.113,0.36 1.968,1.968 0 0 0 -0.073,0.677 c 0.004,0.055 0.02,0.11 0.037,0.16 0.02,0.057 0.045,0.11 0.073,0.163 0.032,0.056 0.07,0.109 0.109,0.16 0.042,0.055 0.086,0.11 0.134,0.159 0.106,0.105 0.214,0.208 0.33,0.304 0.118,0.098 0.24,0.192 0.367,0.277 0.223,0.148 0.454,0.286 0.683,0.422 0.1,0.059 0.207,0.11 0.309,0.164 0.036,0.018 -0.073,-0.039 -0.108,-0.059 -0.005,-0.001 -0.016,-0.008 -0.013,-0.007 0.006,0.002 0.013,0.006 0.018,0.01 l 0.17,0.089 c 1.41,0.745 2.827,1.48 4.232,2.238 1.411,0.76 2.823,1.524 4.217,2.317 l 3.135,1.782 c -1.089,0.834 -2.198,1.639 -3.265,2.5 a 14.307,14.307 0 0 0 -2.004,2.02 8.836,8.836 0 0 0 -0.589,0.837 6.196,6.196 0 0 0 -0.379,0.704 4.548,4.548 0 0 0 -0.214,0.568 3.1,3.1 0 0 0 -0.096,0.415 c -0.014,0.084 -0.017,0.17 -0.022,0.257 -0.001,0.03 0.004,0.059 0.004,0.088 0.002,0.078 -0.002,0.155 0.002,0.232 a 1.997,1.997 0 0 0 0.209,0.78 c 0.029,0.056 0.058,0.113 0.096,0.163 0.072,0.1 0.145,0.2 0.231,0.287 0.086,0.088 0.18,0.168 0.28,0.241 0.099,0.074 0.205,0.139 0.314,0.199 0.11,0.06 0.223,0.112 0.338,0.161 0.115,0.049 0.231,0.1 0.353,0.127 0.438,0.098 0.879,0.187 1.324,0.248 0.217,0.03 0.439,0.043 0.657,0.025 0.758,-0.06 1.515,-0.138 2.266,-0.258 0.876,-0.139 1.746,-0.325 2.613,-0.517 a 75.61,75.61 0 0 0 3.056,-0.735 c 0.716,-0.19 1.444,-0.36 2.129,-0.643 0.54,-0.222 1.085,-0.435 1.62,-0.668 0.12,-0.052 0.234,-0.12 0.347,-0.187 0.102,-0.06 0.203,-0.125 0.299,-0.195 0.084,-0.06 0.168,-0.125 0.243,-0.198 a 1.42,1.42 0 0 0 0.175,-0.2 1.06,1.06 0 0 0 0.175,-0.394 0.86,0.86 0 0 0 0.002,-0.369 1.156,1.156 0 0 0 -0.128,-0.335 1.664,1.664 0 0 0 -0.21,-0.294 2.677,2.677 0 0 0 -0.476,-0.425 4.092,4.092 0 0 0 -0.242,-0.16 c -0.558,-0.34 -1.114,-0.687 -1.676,-1.022 l -2.353,-1.406 c 1.429,-0.98 2.871,-1.943 4.288,-2.944 0.605,-0.428 1.2,-0.87 1.775,-1.34 0.492,-0.402 0.96,-0.833 1.419,-1.272 0.218,-0.209 0.412,-0.44 0.61,-0.67 0.09,-0.104 0.173,-0.215 0.252,-0.328 0.072,-0.102 0.145,-0.205 0.202,-0.318 0.184,-0.37 0.366,-0.742 0.52,-1.126 0.061,-0.156 0.087,-0.325 0.122,-0.49 a 2.522,2.522 0 0 0 0.036,-0.458 3.495,3.495 0 0 0 -0.017,-0.218 z m -17.57,-9.732 c 0.798,-0.837 1.598,-1.673 2.41,-2.497 0.148,-0.15 0.312,-0.285 0.47,-0.425 0.055,-0.048 0.114,-0.094 0.172,-0.14 0.045,-0.034 0.09,-0.07 0.138,-0.101 a 0.712,0.712 0 0 1 0.23,-0.095 0.606,0.606 0 0 1 0.135,-0.005 c 0.023,0 0.046,0.007 0.068,0.015 a 0.434,0.434 0 0 1 0.133,0.075 0.653,0.653 0 0 1 0.128,0.147 c 0.021,0.034 0.044,0.069 0.058,0.107 0.039,0.101 0.074,0.205 0.1,0.312 0.037,0.151 0.066,0.305 0.09,0.461 0.057,0.38 0.11,0.759 0.153,1.14 0.055,0.493 0.094,0.987 0.139,1.481 l 0.242,2.63 -2.896,-0.675 -2.703,-0.45 -0.654,-0.05 -0.212,-0.006 c 0.6,-0.642 1.194,-1.288 1.8,-1.924 z m -1.816,3.657 0.01,-0.016 0.016,-0.009 0.022,-0.002 0.035,0.005 0.101,0.03 0.262,0.101 0.357,0.16 2.76,1.194 c 0.61,0.263 1.221,0.524 1.83,0.788 l 1.206,0.52 0.107,0.05 c 0.065,0.963 0.144,1.926 0.194,2.89 0.04,0.754 0.056,1.509 0.074,2.263 0.002,0.096 -0.005,0.19 -0.012,0.285 a 1.89,1.89 0 0 1 -0.016,0.16 1.208,1.208 0 0 1 -0.034,0.157 0.783,0.783 0 0 1 -0.057,0.148 0.767,0.767 0 0 1 -0.089,0.127 0.642,0.642 0 0 1 -0.128,0.1 0.578,0.578 0 0 1 -0.174,0.062 0.866,0.866 0 0 1 -0.24,0.006 1.003,1.003 0 0 1 -0.13,-0.025 0.963,0.963 0 0 1 -0.133,-0.041 2.591,2.591 0 0 1 -0.275,-0.134 3.043,3.043 0 0 1 -0.291,-0.192 4.341,4.341 0 0 1 -0.299,-0.245 4.548,4.548 0 0 1 -0.303,-0.292 13.804,13.804 0 0 1 -0.608,-0.695 c -0.35,-0.432 -0.713,-0.857 -1.02,-1.32 -0.423,-0.64 -0.858,-1.272 -1.27,-1.919 -0.245,-0.386 -0.498,-0.77 -0.702,-1.182 l -0.93,-1.863 -0.2,-0.594 -0.046,-0.177 -0.028,-0.17 -0.002,-0.123 z m 10.274,16.518 c 0.251,0.16 0.503,0.318 0.75,0.483 0.319,0.212 0.639,0.424 0.948,0.65 0.222,0.162 0.435,0.338 0.645,0.518 0.093,0.08 0.18,0.166 0.264,0.257 0.068,0.075 0.127,0.156 0.188,0.238 a 0.026,0.026 0 0 1 0.003,0.018 0.134,0.134 0 0 1 -0.006,0.043 0.053,0.053 0 0 1 -0.015,0.023 0.107,0.107 0 0 1 -0.03,0.02 0.497,0.497 0 0 1 -0.113,0.023 c -1.22,0.093 -2.444,0.178 -3.665,0.275 l -4.772,0.38 -0.149,0.009 0.069,-0.075 0.3,-0.27 c 0.62,-0.464 1.218,-0.958 1.857,-1.396 l 2.702,-1.853 c 0.34,0.218 0.683,0.437 1.024,0.657 z m 3.676,-9.505 a 0.762,0.762 0 0 1 -0.138,0.264 3.111,3.111 0 0 1 -0.26,0.28 c -0.2,0.184 -0.397,0.373 -0.617,0.531 -0.759,0.544 -1.51,1.101 -2.277,1.632 -0.528,0.366 -1.073,0.708 -1.613,1.058 l -3.135,2.038 -1.332,-0.772 -5.678,-3.283 c -1.282,-0.775 -2.572,-1.537 -3.846,-2.326 -0.24,-0.149 -0.465,-0.321 -0.695,-0.486 -0.073,-0.053 -0.14,-0.113 -0.21,-0.168 -0.022,-0.017 -0.047,-0.033 -0.067,-0.051 a 2.463,2.463 0 0 1 -0.142,-0.14 0.847,0.847 0 0 1 -0.133,-0.213 0.565,0.565 0 0 1 -0.036,-0.129 0.472,0.472 0 0 1 0,-0.139 0.831,0.831 0 0 1 0.107,-0.297 2.744,2.744 0 0 1 0.438,-0.579 c 0.733,-0.763 1.478,-1.516 2.215,-2.277 l 1.988,-2.051 0.094,0.331 0.242,0.583 0.016,0.035 c 0.525,0.922 1.019,1.862 1.576,2.764 0.64,1.037 1.328,2.044 2.015,3.05 0.323,0.47 0.66,0.932 1.014,1.38 0.309,0.388 0.628,0.77 0.974,1.126 0.304,0.312 0.637,0.597 0.975,0.872 0.168,0.136 0.356,0.245 0.54,0.357 a 2.914,2.914 0 0 0 0.82,0.316 1.833,1.833 0 0 0 0.902,-0.02 1.442,1.442 0 0 0 0.481,-0.233 c 0.082,-0.063 0.165,-0.128 0.24,-0.2 0.063,-0.062 0.122,-0.13 0.175,-0.2 a 2.8,2.8 0 0 0 0.188,-0.284 4.151,4.151 0 0 0 0.363,-0.796 c 0.099,-0.305 0.193,-0.612 0.269,-0.925 0.1,-0.422 0.213,-0.845 0.258,-1.278 l 0.257,-2.505 c 0.587,0.277 1.188,0.528 1.762,0.831 0.56,0.296 1.098,0.638 1.642,0.964 0.064,0.039 0.123,0.084 0.18,0.131 0.081,0.068 0.159,0.14 0.233,0.216 a 0.903,0.903 0 0 1 0.181,0.276 c 0.02,0.05 0.032,0.102 0.042,0.155 0.005,0.026 0.003,0.053 0.002,0.08 a 0.26,0.26 0 0 1 -0.01,0.082 z"
     fill="#eac102"
     id="path12"
     clip-path="url(#clipPath2851)"
     transform="matrix(1.5325489,0,0,1.5325489,-10.522725,-17.363367)" />
</svg>
