<?xml version="1.0" standalone="no"?>
<!DOCTYPE svg PUBLIC "-//W3C//DTD SVG 20010904//EN"
 "http://www.w3.org/TR/2001/REC-SVG-20010904/DTD/svg10.dtd">
<svg version="1.0" xmlns="http://www.w3.org/2000/svg"
 width="128.000000pt" height="128.000000pt" viewBox="0 0 128.000000 128.000000"
 preserveAspectRatio="xMidYMid meet">

<g transform="translate(0.000000,128.000000) scale(0.100000,-0.100000)"
fill="#ffffff" stroke="none">
<path d="M477 1214 c-87 -21 -209 -88 -270 -149 -65 -65 -121 -159 -150 -250
-31 -98 -31 -252 0 -350 138 -436 681 -578 999 -261 184 183 226 459 106 699
-45 90 -160 208 -249 255 -126 67 -301 89 -436 56z m265 -85 c226 -47 398
-259 398 -489 0 -131 -53 -254 -149 -351 -199 -199 -503 -199 -702 0 -199 199
-199 503 0 702 123 123 287 173 453 138z"/>
<path d="M590 950 l0 -29 -77 -3 -78 -3 0 -275 0 -275 78 -3 77 -3 0 -29 c0
-26 3 -30 29 -30 26 0 30 4 33 32 3 31 6 33 50 40 64 9 105 35 128 83 23 47
25 71 9 112 -13 35 -58 83 -78 83 -10 0 -3 12 20 36 30 31 34 41 34 89 0 43
-5 58 -25 80 -32 34 -56 47 -100 54 -31 6 -35 10 -38 39 -3 28 -7 32 -33 32
-26 0 -29 -4 -29 -30z m3 -112 c-2 -5 -3 -39 -3 -78 l0 -70 -40 0 -40 0 0 81
0 80 43 -3 c23 -2 41 -6 40 -10z m125 -14 c16 -11 22 -25 22 -52 0 -43 -7 -55
-37 -71 -47 -24 -53 -17 -53 64 0 71 1 75 23 75 12 0 33 -7 45 -16z m-128
-289 c0 -47 1 -88 3 -92 1 -5 -17 -9 -40 -11 l-43 -3 0 95 0 96 40 0 40 0 0
-85z m146 60 c28 -18 39 -68 24 -105 -12 -29 -81 -67 -101 -55 -5 4 -9 47 -9
97 l0 91 32 -7 c18 -3 42 -13 54 -21z"/>
</g>
</svg>
