<?xml version="1.0" standalone="no"?>
<!DOCTYPE svg PUBLIC "-//W3C//DTD SVG 20010904//EN"
 "http://www.w3.org/TR/2001/REC-SVG-20010904/DTD/svg10.dtd">
<svg version="1.0" xmlns="http://www.w3.org/2000/svg"
 width="128.000000pt" height="128.000000pt" viewBox="0 0 128.000000 128.000000"
 preserveAspectRatio="xMidYMid meet">

<g transform="translate(0.000000,128.000000) scale(0.100000,-0.100000)"
fill="#000000" stroke="none">
<path d="M480 1224 c-82 -21 -188 -77 -249 -131 -70 -61 -141 -171 -172 -264
-34 -106 -34 -272 0 -377 79 -242 296 -407 551 -419 293 -15 543 169 615 452
19 77 19 221 -1 298 -54 210 -231 387 -440 441 -77 20 -229 20 -304 0z m286
-98 c128 -34 252 -131 313 -247 44 -81 61 -148 61 -239 0 -134 -52 -262 -145
-355 -93 -93 -221 -145 -355 -145 -134 0 -262 52 -355 145 -93 93 -145 221
-145 355 0 92 17 158 61 241 61 113 182 210 308 245 62 17 194 17 257 0z"/>
<path d="M800 901 c0 -24 -7 -34 -38 -51 -44 -25 -72 -66 -72 -105 0 -47 26
-80 92 -115 83 -43 98 -57 98 -91 0 -53 -64 -74 -137 -44 -19 8 -37 15 -38 15
-2 0 -8 -13 -13 -29 -10 -27 -8 -31 23 -45 18 -9 42 -16 54 -16 17 0 21 -6 21
-35 0 -32 2 -35 30 -35 27 0 30 3 30 33 0 28 5 36 35 50 50 24 77 71 72 125
-6 54 -34 85 -111 123 -33 16 -63 35 -68 42 -15 23 -8 56 13 68 21 11 87 8
120 -6 12 -4 19 2 27 24 9 27 8 30 -16 40 -15 5 -36 11 -47 13 -16 3 -19 10
-17 36 3 30 1 32 -27 32 -28 0 -31 -3 -31 -29z"/>
<path d="M327 883 c-4 -3 -7 -111 -7 -240 l0 -233 40 0 40 0 0 100 0 100 30 0
c56 0 100 -37 100 -84 0 -7 7 -36 15 -64 16 -51 16 -52 56 -52 37 0 40 2 33
23 -4 12 -15 53 -25 91 -10 37 -27 78 -39 91 -21 22 -21 23 -3 36 35 26 53 63
53 110 0 55 -26 94 -76 115 -34 14 -205 20 -217 7z m182 -68 c34 -17 46 -56
29 -93 -16 -33 -52 -52 -100 -52 l-38 0 0 80 0 80 40 0 c23 0 54 -7 69 -15z"/>
</g>
</svg>
