<?xml version="1.0" standalone="no"?>
<!DOCTYPE svg PUBLIC "-//W3C//DTD SVG 20010904//EN"
 "http://www.w3.org/TR/2001/REC-SVG-20010904/DTD/svg10.dtd">
<svg version="1.0" xmlns="http://www.w3.org/2000/svg"
 width="1105.000000pt" height="969.000000pt" viewBox="0 0 1105.000000 969.000000"
 preserveAspectRatio="xMidYMid meet">
<metadata>
Created by potrace 1.16, written by Peter Selinger 2001-2019
</metadata>
<g transform="translate(0.000000,969.000000) scale(0.100000,-0.100000)"
fill="#000000" stroke="none">
<path fill='rgb(0, 91, 170)' d="M5429 9400 c-449 -71 -779 -339 -1023 -831 -231 -465 -359 -1040
-438 -1974 -27 -317 -14 -973 28 -1395 157 -1586 736 -2310 1765 -2210 526 51
929 305 1143 718 42 82 96 211 96 230 0 4 -33 8 -73 10 -383 14 -664 219 -761
554 -85 295 -44 647 103 870 131 199 355 336 629 383 121 21 195 19 312 -11
419 -106 706 -335 799 -637 47 -154 53 -603 12 -918 -45 -346 -138 -695 -252
-948 -16 -35 -28 -65 -27 -66 2 -2 701 671 1555 1494 l1552 1496 -152 150
c-149 148 -592 581 -1517 1485 -464 453 -748 731 -1144 1120 -227 223 -218
220 -118 40 88 -161 202 -459 252 -662 52 -212 65 -316 64 -528 0 -212 -13
-313 -61 -464 -113 -360 -413 -600 -893 -716 -223 -54 -463 -12 -693 122 -93
53 -231 191 -285 283 -159 272 -163 700 -9 1000 62 120 181 236 307 298 124
60 227 86 373 94 136 7 132 1 91 115 -65 180 -178 360 -308 491 -206 206 -457
332 -783 393 -102 19 -456 28 -544 14z"/>
<path fill='rgb(238, 28, 37)' d="M1837 7728 l-1558 -1450 178 -182 c1690 -1714 2846 -2886 2848 -2886
1 0 -26 51 -62 113 -338 592 -602 1416 -697 2182 -57 457 -65 978 -21 1395 87
832 380 1627 808 2193 36 48 65 87 64 87 -1 -1 -703 -654 -1560 -1452z"/>
<path fill='rgb(0, 91, 170)' d="M748 1760 c-176 -30 -339 -138 -420 -280 -93 -161 -138 -450 -104
-669 57 -374 252 -575 600 -622 333 -44 635 113 702 365 16 60 18 147 4 197
-34 122 -161 182 -276 130 -53 -24 -74 -69 -80 -169 -7 -106 -10 -117 -45
-157 -80 -91 -305 -82 -396 17 -72 77 -108 239 -100 443 8 196 34 288 102 364
47 52 110 76 200 76 163 0 235 -71 235 -231 0 -77 27 -123 85 -142 51 -17 130
-10 181 16 69 36 71 45 70 333 -1 242 -2 258 -21 279 -25 28 -75 50 -115 50
-63 0 -130 -57 -130 -111 0 -16 -3 -29 -6 -29 -3 0 -26 18 -52 39 -26 21 -67
49 -91 61 -86 43 -226 59 -343 40z"/>
<path fill='rgb(0, 91, 170)' d="M6783 1756 c-181 -42 -283 -147 -299 -308 -4 -37 -12 -72 -18 -77 -6
-4 -40 -11 -75 -14 -51 -4 -69 -11 -90 -31 -22 -23 -26 -35 -26 -92 0 -59 3
-68 27 -89 19 -16 46 -25 90 -30 35 -4 69 -12 76 -17 16 -14 17 -549 1 -596
l-11 -31 -64 6 c-53 5 -68 3 -84 -12 -50 -46 -50 -162 0 -218 32 -36 52 -38
237 -23 70 6 146 5 241 -4 154 -15 177 -10 216 43 17 22 21 43 21 97 0 59 -3
72 -25 95 -23 25 -29 27 -87 22 -49 -5 -64 -3 -75 10 -16 20 -25 553 -9 595 9
23 17 27 68 33 94 9 128 22 141 50 18 40 15 129 -5 154 -20 25 -76 40 -143 41
-56 0 -70 13 -70 62 0 88 59 148 131 133 24 -6 27 -9 19 -25 -43 -81 45 -178
153 -167 81 7 137 63 145 146 9 101 -63 194 -183 235 -69 23 -224 29 -302 12z"/>
<path fill='rgb(0, 91, 170)' d="M2032 1379 c-236 -30 -374 -167 -318 -314 32 -83 114 -131 211 -123
105 9 165 66 165 159 0 58 16 73 79 72 91 -1 141 -46 141 -125 0 -95 -64 -134
-285 -173 -119 -21 -175 -38 -236 -72 -105 -56 -153 -147 -153 -288 0 -95 24
-159 82 -218 143 -149 458 -151 643 -6 l37 29 25 -39 c40 -60 121 -95 217 -96
137 0 219 51 228 144 9 96 -32 141 -126 141 -38 0 -52 4 -58 18 -4 9 -10 164
-13 343 l-6 325 -30 60 c-49 96 -135 142 -305 164 -88 11 -209 11 -298 -1z
m263 -816 c-26 -67 -72 -97 -160 -101 -65 -4 -74 -2 -102 22 -40 33 -51 78
-28 112 21 32 57 47 165 69 47 9 96 23 110 30 25 13 25 13 28 -38 2 -30 -3
-68 -13 -94z"/>
<path fill='rgb(0, 91, 170)' d="M5548 1375 c-216 -45 -376 -210 -424 -437 -24 -111 -15 -291 18 -386
61 -171 175 -283 343 -339 68 -22 98 -26 200 -26 232 -1 412 80 479 215 62
124 1 227 -135 228 -53 0 -95 -24 -168 -97 -56 -56 -94 -73 -166 -73 -129 0
-230 95 -223 208 3 43 5 47 33 53 17 4 166 7 332 8 202 1 310 5 327 12 47 22
58 112 32 252 -21 107 -59 181 -130 253 -95 94 -189 131 -356 139 -60 3 -119
-1 -162 -10z m245 -268 c23 -17 41 -42 48 -67 21 -71 22 -71 -178 -68 l-178 3
-3 27 c-4 33 43 88 101 118 62 31 160 25 210 -13z"/>
<path fill='rgb(0, 91, 170)' d="M7522 1376 c-281 -54 -433 -261 -433 -591 0 -338 154 -540 451 -591
284 -49 528 57 630 272 47 100 63 182 64 324 1 296 -119 485 -359 565 -96 33
-245 41 -353 21z m243 -289 c94 -53 138 -240 100 -422 -31 -147 -89 -205 -204
-205 -73 0 -117 24 -158 83 -39 57 -55 132 -55 248 1 148 43 249 126 300 45
28 139 26 191 -4z"/>
<path fill='rgb(0, 91, 170)' d="M3670 1367 c-119 -28 -201 -99 -241 -208 l-24 -64 -2 100 c-2 55 -5
110 -8 123 -9 36 -45 44 -130 27 -65 -12 -85 -12 -148 0 -82 16 -111 12 -145
-18 -40 -37 -54 -129 -28 -191 19 -45 62 -62 119 -48 73 19 72 23 72 -302 0
-215 -3 -287 -13 -298 -10 -12 -27 -15 -75 -11 -57 5 -64 3 -86 -21 -35 -38
-41 -120 -12 -179 32 -66 53 -72 206 -56 102 10 154 10 280 -1 184 -15 203
-11 236 57 29 59 23 141 -12 179 -22 24 -29 26 -86 21 -88 -8 -88 -7 -87 182
0 181 12 252 55 339 35 72 83 110 150 119 l42 6 -9 -29 c-25 -84 0 -152 67
-186 98 -51 219 12 249 130 13 49 13 49 54 48 23 0 53 3 68 8 49 15 53 -9 53
-309 0 -319 0 -319 -75 -309 -66 9 -97 -1 -115 -36 -20 -39 -19 -127 3 -170
28 -58 56 -65 194 -50 111 12 149 12 378 -6 82 -6 86 -6 117 20 59 50 67 182
13 231 -17 15 -31 17 -85 12 -64 -6 -66 -5 -75 19 -6 14 -10 82 -10 152 0 198
24 313 81 392 32 44 95 79 143 80 23 0 27 -3 21 -17 -4 -10 -10 -42 -13 -70
-4 -51 -3 -54 35 -92 139 -140 349 27 289 231 -48 167 -232 248 -416 183 -95
-34 -163 -105 -200 -209 l-19 -51 0 102 c-1 160 -12 172 -137 148 -62 -12 -84
-12 -153 0 -52 10 -89 11 -105 6 -25 -10 -62 -51 -71 -82 -5 -16 -9 -15 -36
16 -65 74 -195 108 -309 82z"/>
<path fill='rgb(0, 91, 170)' d="M10383 1370 c-132 -28 -219 -106 -258 -233 -14 -42 -14 -41 -15 53
-3 163 -17 178 -138 155 -62 -12 -84 -12 -153 0 -70 13 -86 13 -115 0 -49 -20
-68 -71 -65 -173 1 -23 11 -43 31 -64 27 -27 36 -30 70 -24 21 3 45 8 53 12 8
3 22 -2 31 -11 14 -14 16 -51 16 -290 0 -151 -4 -285 -10 -299 -9 -24 -12 -25
-74 -19 -59 5 -66 4 -88 -18 l-23 -24 -23 24 c-22 22 -29 23 -88 17 -63 -6
-65 -6 -74 19 -6 16 -10 184 -10 415 0 214 -4 400 -9 413 -13 33 -45 37 -141
21 -65 -12 -93 -12 -175 0 -173 24 -225 -10 -225 -144 0 -55 3 -65 30 -92 27
-27 36 -30 70 -24 21 3 45 8 53 12 8 3 22 -2 31 -11 14 -14 16 -45 16 -215 0
-175 -2 -206 -20 -253 -20 -53 -63 -103 -109 -127 -40 -20 -113 -17 -153 8
-71 44 -72 53 -78 467 l-5 369 -23 12 c-17 8 -41 8 -99 -2 -64 -11 -94 -11
-181 0 -117 15 -162 9 -198 -25 -48 -45 -56 -162 -13 -207 26 -29 59 -36 105
-23 69 19 68 22 74 -337 l5 -317 28 -60 c15 -33 42 -75 60 -93 142 -148 460
-126 616 43 23 25 44 45 46 45 3 0 5 -27 5 -60 0 -47 4 -64 20 -80 23 -23 40
-24 126 -8 50 9 81 9 147 -2 97 -15 147 -4 173 36 l16 23 34 -36 34 -36 73 7
c189 17 228 18 365 6 167 -14 190 -9 223 42 16 27 19 46 17 107 -3 64 -7 76
-28 93 -21 17 -34 19 -87 15 -86 -8 -87 -8 -81 217 6 206 23 282 79 350 36 42
98 75 143 76 23 0 27 -3 20 -17 -16 -37 -16 -110 1 -143 22 -43 92 -74 152
-67 100 11 163 91 163 209 0 79 -18 125 -71 183 -67 72 -189 108 -296 85z"/>
</g>
</svg>
