<?xml version="1.0" standalone="no"?>
<!DOCTYPE svg PUBLIC "-//W3C//DTD SVG 20010904//EN"
 "http://www.w3.org/TR/2001/REC-SVG-20010904/DTD/svg10.dtd">
<svg version="1.0" xmlns="http://www.w3.org/2000/svg"
 width="128.000000pt" height="128.000000pt" viewBox="0 0 128.000000 128.000000"
 preserveAspectRatio="xMidYMid meet">

<g transform="translate(0.000000,128.000000) scale(0.100000,-0.100000)"
fill="#ffffff" stroke="none">
<path d="M475 1231 c-105 -31 -185 -78 -266 -160 -124 -123 -179 -257 -179
-431 0 -175 55 -308 179 -430 126 -125 257 -180 431 -180 174 0 308 55 431
179 124 123 179 257 179 431 0 51 -7 119 -16 153 -54 210 -231 387 -441 441
-82 21 -240 20 -318 -3z m315 -111 c210 -61 352 -255 352 -480 0 -284 -218
-502 -502 -502 -284 0 -502 218 -502 502 0 257 179 462 436 500 66 10 135 3
216 -20z"/>
<path d="M750 885 c0 -3 15 -28 33 -55 44 -68 70 -68 115 0 17 27 32 52 32 55
0 3 -13 5 -28 5 -21 0 -32 -7 -40 -25 -6 -14 -16 -25 -22 -25 -6 0 -16 11 -22
25 -8 18 -19 25 -40 25 -15 0 -28 -2 -28 -5z"/>
<path d="M322 638 l3 -243 33 -3 32 -3 0 94 c0 85 2 95 23 115 l24 22 76 -115
77 -115 41 0 c22 0 39 4 37 9 -2 4 -43 67 -93 140 -66 98 -87 135 -80 146 6 8
45 55 89 105 l78 91 -48 -3 c-48 -3 -48 -3 -128 -105 -45 -56 -84 -102 -88
-102 -5 -1 -8 46 -8 104 l0 105 -35 0 -35 0 2 -242z"/>
<path d="M765 726 c-61 -37 -88 -93 -83 -172 7 -104 67 -164 167 -164 83 0
101 7 101 40 l0 28 -58 -5 c-68 -6 -95 5 -122 50 -36 58 -15 147 40 177 12 7
47 10 77 8 50 -3 56 -1 64 20 7 19 4 24 -17 32 -48 18 -126 12 -169 -14z"/>
</g>
</svg>
