<?xml version="1.0" standalone="no"?>
<!DOCTYPE svg PUBLIC "-//W3C//DTD SVG 20010904//EN"
 "http://www.w3.org/TR/2001/REC-SVG-20010904/DTD/svg10.dtd">
<svg version="1.0" xmlns="http://www.w3.org/2000/svg"
 width="25%" height="25%" viewBox="0 0 128.000000 128.000000"
 preserveAspectRatio="xMidYMid meet">
 <defs>
    <filter id="shadow" height="120%">
      <feGaussianBlur in="SourceAlpha" stdDeviation="1"/>
    </filter>
  </defs>

<g transform="translate(0.000000,128.000000) scale(0.100000,-0.100000)"
fill="#ffffff" stroke="none">
<path d="M540 1254 c-132 -25 -241 -83 -336 -178 -79 -80 -121 -148 -156 -251
-33 -100 -33 -270 0 -370 35 -103 77 -171 156 -251 80 -79 148 -121 251 -156
100 -33 270 -33 370 0 103 35 171 77 251 156 79 80 121 148 156 251 33 100 33
270 0 370 -35 103 -77 171 -156 251 -121 120 -242 173 -411 179 -55 2 -111 1
-125 -1z m219 -119 c183 -43 333 -193 376 -376 87 -370 -244 -701 -614 -614
-183 43 -333 193 -376 376 -87 370 244 701 614 614z"/>
<path d="M647 966 c-80 -29 -154 -108 -177 -191 -12 -42 -15 -45 -46 -45 -31
0 -34 -3 -34 -30 0 -27 3 -30 30 -30 25 0 30 -4 30 -25 0 -21 -5 -25 -30 -25
-27 0 -30 -3 -30 -29 0 -26 4 -30 31 -33 29 -3 33 -8 44 -50 24 -94 98 -172
189 -198 57 -16 150 -9 198 14 33 16 37 21 32 45 -10 39 -14 41 -79 24 -70
-19 -117 -13 -166 20 -38 25 -79 90 -79 125 0 22 1 22 140 22 l140 0 0 30 0
30 -145 0 -145 0 0 25 0 25 145 0 145 0 0 30 0 30 -141 0 -141 0 7 28 c26 108
146 167 257 128 l37 -13 12 34 c9 29 9 37 -2 44 -47 30 -158 37 -222 15z"/>
</g>
</svg>
