<?xml version="1.0" encoding="UTF-8" standalone="no"?>
<svg
   xmlns:dc="http://purl.org/dc/elements/1.1/"
   xmlns:cc="http://creativecommons.org/ns#"
   xmlns:rdf="http://www.w3.org/1999/02/22-rdf-syntax-ns#"
   xmlns:svg="http://www.w3.org/2000/svg"
   xmlns="http://www.w3.org/2000/svg"
   xmlns:sodipodi="http://sodipodi.sourceforge.net/DTD/sodipodi-0.dtd"
   xmlns:inkscape="http://www.inkscape.org/namespaces/inkscape"
   width="297mm"
   height="210mm"
   viewBox="0 0 297 210"
   version="1.1"
   id="svg900"
   inkscape:version="1.0.2-2 (e86c870879, 2021-01-15)"
   sodipodi:docname="faw.svg">
  <defs
     id="defs894" />
  <sodipodi:namedview
     id="base"
     pagecolor="#ffffff"
     bordercolor="#666666"
     borderopacity="1.0"
     inkscape:pageopacity="0.0"
     inkscape:pageshadow="2"
     inkscape:zoom="0.36069214"
     inkscape:cx="-545.60569"
     inkscape:cy="706.18347"
     inkscape:document-units="mm"
     inkscape:current-layer="layer1"
     inkscape:document-rotation="0"
     showgrid="false"
     inkscape:window-width="1920"
     inkscape:window-height="1017"
     inkscape:window-x="-8"
     inkscape:window-y="-8"
     inkscape:window-maximized="1" />
  <metadata
     id="metadata897">
    <rdf:RDF>
      <cc:Work
         rdf:about="">
        <dc:format>image/svg+xml</dc:format>
        <dc:type
           rdf:resource="http://purl.org/dc/dcmitype/StillImage" />
        <dc:title></dc:title>
      </cc:Work>
    </rdf:RDF>
  </metadata>
  <g
     inkscape:label="Слой 1"
     inkscape:groupmode="layer"
     id="layer1">
    <path
       style="fill:#000000;stroke-width:0.87202"
       d="M 128.97356,188.46957 C 121.18204,187.793 106.88884,185.30554 97.295313,182.9566 58.170152,173.37704 29.033732,154.14218 17.387389,130.20421 12.461871,120.08024 11.332258,114.67565 11.891067,103.90708 12.651382,89.254615 18.197011,77.903382 30.838198,65.124593 74.496143,20.991453 173.28774,10.94168 239.92052,43.855296 c 27.49625,13.581939 44.18587,31.816183 48.57641,53.072274 1.68466,8.15589 1.69669,12.38164 0.0574,20.11995 -7.4606,35.21657 -52.35456,63.86273 -110.79931,70.69937 -10.19248,1.19226 -38.53793,1.61222 -48.78143,0.72268 z m 54.93737,-7.6628 c 18.9148,-2.93392 40.4215,-9.49794 54.7905,-16.72245 20.27311,-10.19305 36.65757,-26.64828 42.26417,-42.44673 2.99403,-8.43666 3.15065,-19.31036 0.4041,-28.058287 C 273.00759,66.945078 241.00663,45.065227 196.11921,35.291405 173.51146,30.368774 139.97957,29.592193 115.45724,33.423326 82.245628,38.61198 53.579093,51.340017 35.997819,68.703535 11.553178,92.845487 11.717475,121.55921 36.438571,145.72592 c 19.883774,19.43781 53.474968,32.51065 94.279019,36.69095 8.6559,0.88681 43.99138,-0.18292 53.19334,-1.6101 z M 133.33365,176.3091 C 86.413863,172.46198 46.477108,154.69625 31.044847,130.80629 7.4952201,94.350166 40.432721,54.650249 104.99298,41.675773 c 18.19898,-3.657398 30.62205,-4.638237 51.87579,-4.09577 33.43399,0.853333 60.83967,7.388541 83.89796,20.006435 29.09423,15.920867 42.10713,39.107129 34.82254,62.046432 -8.67455,27.31623 -43.14873,47.70439 -93.15767,55.09374 -8.71949,1.28841 -40.27894,2.30561 -49.09795,1.58249 z m 39.67702,-22.45132 c 0,-3.5 -0.20599,-3.85628 -2.49432,-4.31398 -1.37189,-0.27421 -3.73915,-1.54629 -5.26058,-2.8265 l -2.76629,-2.32765 0.089,-43.92097 c 0.0487,-24.156524 -0.15754,-44.319982 -0.45901,-44.807666 -0.30124,-0.487684 -2.51027,-0.886677 -4.90858,-0.886677 -3.3832,0 -6.88974,1.102191 -15.6449,4.917575 -11.09163,4.833598 -11.28441,4.9653 -11.28441,7.710165 0,2.496164 0.36528,2.902012 3.44132,3.823624 1.89273,0.567081 4.29123,2.100729 5.33005,3.408119 1.87566,2.360605 1.88614,2.597608 1.50889,34.20587 -0.331,27.73365 -0.56988,32.19152 -1.85673,34.64806 -1.46437,2.79553 -5.34482,5.46492 -7.94421,5.46492 -1.04026,0 -1.35132,1.00371 -1.35132,4.36008 v 4.36012 h 21.80053 21.80057 z m 48.53168,-8.80339 c 2.03221,-1.4234 7.27769,-9.19642 7.27769,-10.78445 0,-0.72979 -4.08205,-1.01366 -14.57617,-1.01366 h -14.57614 l -7.6252,-4.40076 c -7.36957,-4.25323 -7.82371,-4.39209 -13.54655,-4.1421 l -5.92136,0.25872 -0.25608,6.32216 -0.25609,6.32213 5.48835,0.033 c 5.15442,0.0296 5.85973,0.29498 11.59249,4.35277 l 6.10414,4.32063 12.23228,0.006 c 9.36154,0.006 12.66188,-0.29366 14.06288,-1.27485 z m -101.22255,-4.89447 9.96178,-5.30464 v -7.33968 c 0,-4.0368 -0.24553,-7.33965 -0.54555,-7.33965 -0.29993,0 -5.80719,2.77997 -12.23805,6.17774 l -11.69245,6.17774 -16.538698,-0.62957 c -9.09626,-0.3463 -16.538671,-0.35991 -16.538671,-0.0297 0,0.95606 2.721465,5.95705 4.713234,8.66112 3.246326,4.40731 5.050134,4.8591 19.551848,4.89697 l 13.364787,0.035 9.96177,-5.30464 z m 117.78218,-24.61965 c 2.61115,-1.35026 6.52202,-6.40633 7.61222,-9.84131 0.56968,-1.79491 0.36425,-1.81455 -24.9463,-2.38503 -14.03638,-0.3164 -30.4917,-0.57591 -36.5674,-0.5768 l -11.04672,-0.002 -0.32201,6.32216 c -0.17698,3.4772 -0.24653,6.51836 -0.15391,6.75816 0.0926,0.23994 14.26142,0.58062 31.48657,0.75741 27.03939,0.27751 31.67635,0.13645 33.93755,-1.03297 z m -107.8204,-6.16287 c 0,-5.93978 -0.15193,-6.4792 -1.96204,-6.96428 -2.50054,-0.67011 -72.159779,-0.71925 -72.159779,-0.0511 0,1.19503 4.53114,8.07827 6.595021,10.01853 l 2.262621,2.12706 25.0019,0.46234 c 13.751057,0.25411 28.435487,0.54859 32.632107,0.65402 l 7.63017,0.19182 z M 252.46375,92.633928 c 2.60385,-2.473553 6.00502,-8.092251 6.00502,-9.920151 0,-0.602675 -7.09181,-0.907671 -21.14651,-0.909451 -11.63059,-0.0017 -27.91562,-0.259382 -36.18891,-0.573243 l -15.04236,-0.570608 v -3.786842 -3.786842 h -6.54017 -6.54015 v 10.890014 10.890048 l 33.79082,0.282782 c 45.33977,0.37958 42.44666,0.538967 45.66226,-2.515773 z M 130.71759,87.600867 V 81.186424 L 118.50931,80.62788 c -17.28076,-0.790604 -74.557863,-0.701222 -74.557863,0.116344 0,1.629887 6.211553,10.414493 8.028708,11.354464 2.345444,1.213293 10.095785,1.484441 49.524715,1.732684 l 29.21272,0.183906 z"
       id="path33" />
    <path
       style="fill:none;stroke-width:0.369327"
       d="M 136.85765,176.28271 C 118.69173,175.61971 94.211499,170.37605 76.482738,163.35043 46.195512,151.34811 27.790643,133.64601 24.201748,113.06586 21.754398,99.031694 27.387629,84.752775 40.330781,72.182547 58.807961,54.23771 89.560293,42.387781 128.17848,38.331729 c 6.16232,-0.647225 33.18001,-0.643528 41.17994,0.0052 29.7684,2.415589 54.17026,9.36323 74.28398,21.149975 24.22194,14.194216 36.60979,34.402398 33.1724,54.113836 -5.03622,28.87997 -38.08289,51.2419 -88.6207,59.96764 -3.45321,0.59622 -8.18985,1.25101 -10.52583,1.45504 -8.84436,0.77252 -33.39035,1.52967 -40.81062,1.25885 z m 36.37324,-21.63627 c -0.006,-3.72024 -0.44328,-4.6784 -2.39517,-5.25576 -2.1536,-0.63701 -3.78836,-1.55065 -6.21402,-3.47285 l -2.15146,-1.70487 0.25938,-22.35066 c 0.32761,-28.236064 -0.0936,-65.441894 -0.75096,-66.340996 -0.69314,-0.947914 -5.93473,-1.133503 -9.05284,-0.320685 -4.41883,1.152091 -19.63136,7.619662 -21.5631,9.167516 -0.84592,0.677787 -1.09851,1.224598 -1.23663,2.676905 -0.22215,2.336513 0.65442,3.55831 3.03035,4.223508 2.24554,0.628744 4.66502,2.205635 5.93127,3.86581 0.94824,1.243187 1.05552,1.714655 1.29032,5.671068 0.33175,5.590023 -0.27487,51.903744 -0.74512,56.874614 -0.20435,2.16091 -0.65722,4.47755 -1.04686,5.35527 -1.16419,2.62241 -5.35223,5.76256 -7.71692,5.78598 -1.24928,0.0132 -1.58263,1.09804 -1.58263,5.15442 v 3.71756 h 21.97496 21.97494 l -0.006,-3.04696 z m 46.7253,-8.78026 c 1.88108,-0.55261 2.42779,-1.04114 4.95074,-4.42396 2.89309,-3.87908 4.41216,-6.84975 3.81038,-7.45153 -0.62806,-0.62806 -7.25653,-0.97514 -19.32916,-1.01209 l -9.82938,-0.0297 -6.23634,-3.59005 c -3.42996,-1.97453 -7.0673,-3.88038 -8.08295,-4.2352 -1.96477,-0.68643 -5.20955,-0.82828 -9.8923,-0.43242 l -2.80185,0.23697 -0.1994,2.2561 c -0.10943,1.24088 -0.25674,4.10779 -0.32662,6.37097 l -0.12754,4.11484 5.01187,0.15095 c 6.09155,0.18325 6.41061,0.30915 13.3217,5.25187 l 4.98593,3.56586 11.63379,-0.16907 c 7.3266,-0.10651 12.18073,-0.32966 13.11111,-0.60298 z m -99.36395,-5.6198 9.85551,-5.25926 -0.11894,-7.26787 c -0.0656,-3.99728 -0.24421,-7.39278 -0.39743,-7.5455 -0.31872,-0.31805 -3.61358,1.29536 -15.60263,7.6397 l -8.49451,4.49514 -12.187774,-0.42331 c -14.298562,-0.49665 -20.751104,-0.53099 -21.010156,-0.11173 -0.440982,0.71352 3.817922,8.19307 5.998377,10.53439 1.405144,1.50884 3.487317,2.46848 6.092736,2.80808 1.249153,0.16282 7.612247,0.31707 14.14023,0.3429 l 11.869107,0.0468 z m 117.36717,-24.42062 c 2.83915,-1.41128 7.67697,-7.78122 7.79361,-10.2619 0.0508,-1.07694 -0.0682,-1.21889 -1.2366,-1.47732 -2.10527,-0.4656 -23.2935,-1.03552 -48.22952,-1.2972 l -23.29997,-0.24455 -0.24455,4.54936 c -0.2485,4.61874 -0.32003,8.82234 -0.15227,8.91789 0.51076,0.29069 20.60892,0.5587 39.97963,0.53313 22.63568,-0.0297 24.08524,-0.0709 25.38977,-0.71941 z m -107.63297,-6.13262 c -0.10115,-5.42536 -0.20533,-6.35472 -0.7761,-6.9249 -0.60571,-0.60485 -2.06572,-0.68062 -17.91237,-0.92952 -23.771635,-0.37335 -55.10512,0.0165 -55.362987,0.6881 -0.416724,1.08601 5.024032,9.16725 7.507011,11.15029 l 1.239264,0.9897 28.347003,0.58617 c 15.590849,0.32233 30.310749,0.61322 32.710909,0.64631 l 4.3639,0.0603 z M 244.81239,95.297717 c 4.34967,-0.280476 5.07551,-0.424668 6.33511,-1.258217 1.74356,-1.153837 4.47189,-4.641088 6.15019,-7.860948 1.47056,-2.821296 1.5583,-3.650429 0.42215,-3.990163 -0.45703,-0.136776 -12.38166,-0.399257 -26.49918,-0.583559 -14.11753,-0.184237 -29.65694,-0.506372 -34.53207,-0.715723 -4.87511,-0.209285 -9.23777,-0.381624 -9.6948,-0.382811 -0.80887,-0.0017 -0.83101,-0.105462 -0.83101,-3.880147 v -3.877906 h -6.64787 -6.64788 v 11.079788 c 0,6.093891 0.12458,11.10398 0.27685,11.133544 0.23961,0.04647 38.19527,0.42615 59.55397,0.595754 3.96103,0.03296 9.41249,-0.08537 12.11441,-0.259711 z m -114.04863,-7.72994 v -6.601416 l -4.33958,-0.20533 C 124.03741,80.647984 111.69729,80.36718 99.001663,80.136703 76.835128,79.734314 44.72198,80.000255 44.131136,80.591131 c -0.136447,0.136448 -0.151278,0.629536 -0.03296,1.096061 0.324309,1.280133 3.704447,6.259473 5.820765,8.57509 2.084052,2.280286 2.821131,2.574306 7.533409,3.005005 3.28703,0.300581 33.25535,0.736321 57.52263,0.836614 l 15.78871,0.06526 z"
       id="path35" />
    <path
       style="fill:#015198;fill-opacity:1;stroke-width:0.369327"
       d="M 136.85765,176.28271 C 118.69173,175.61971 94.211499,170.37605 76.482738,163.35043 46.195512,151.34811 27.790643,133.64601 24.201748,113.06586 21.754398,99.031694 27.387629,84.752775 40.330781,72.182547 58.807961,54.23771 89.560293,42.387781 128.17848,38.331729 c 6.16232,-0.647225 33.18001,-0.643528 41.17994,0.0052 29.7684,2.415589 54.17026,9.36323 74.28398,21.149975 24.22194,14.194216 36.60979,34.402398 33.1724,54.113836 -5.03622,28.87997 -38.08289,51.2419 -88.6207,59.96764 -3.45321,0.59622 -8.18985,1.25101 -10.52583,1.45504 -8.84436,0.77252 -33.39035,1.52967 -40.81062,1.25885 z m 36.37324,-21.63627 c -0.006,-3.72024 -0.44328,-4.6784 -2.39517,-5.25576 -2.1536,-0.63701 -3.78836,-1.55065 -6.21402,-3.47285 l -2.15146,-1.70487 0.25938,-22.35066 c 0.32761,-28.236064 -0.0936,-65.441894 -0.75096,-66.340996 -0.69314,-0.947914 -5.93473,-1.133503 -9.05284,-0.320685 -4.41883,1.152091 -19.63136,7.619662 -21.5631,9.167516 -0.84592,0.677787 -1.09851,1.224598 -1.23663,2.676905 -0.22215,2.336513 0.65442,3.55831 3.03035,4.223508 2.24554,0.628744 4.66502,2.205635 5.93127,3.86581 0.94824,1.243187 1.05552,1.714655 1.29032,5.671068 0.33175,5.590023 -0.27487,51.903744 -0.74512,56.874614 -0.20435,2.16091 -0.65722,4.47755 -1.04686,5.35527 -1.16419,2.62241 -5.35223,5.76256 -7.71692,5.78598 -1.24928,0.0132 -1.58263,1.09804 -1.58263,5.15442 v 3.71756 h 21.97496 21.97494 l -0.006,-3.04696 z m 46.7253,-8.78026 c 1.88108,-0.55261 2.42779,-1.04114 4.95074,-4.42396 2.89309,-3.87908 4.41216,-6.84975 3.81038,-7.45153 -0.62806,-0.62806 -7.25653,-0.97514 -19.32916,-1.01209 l -9.82938,-0.0297 -6.23634,-3.59005 c -3.42996,-1.97453 -7.0673,-3.88038 -8.08295,-4.2352 -1.96477,-0.68643 -5.20955,-0.82828 -9.8923,-0.43242 l -2.80185,0.23697 -0.1994,2.2561 c -0.10943,1.24088 -0.25674,4.10779 -0.32662,6.37097 l -0.12754,4.11484 5.01187,0.15095 c 6.09155,0.18325 6.41061,0.30915 13.3217,5.25187 l 4.98593,3.56586 11.63379,-0.16907 c 7.3266,-0.10651 12.18073,-0.32966 13.11111,-0.60298 z m -99.36395,-5.6198 9.85551,-5.25926 -0.11894,-7.26787 c -0.0656,-3.99728 -0.24421,-7.39278 -0.39743,-7.5455 -0.31872,-0.31805 -3.61358,1.29536 -15.60263,7.6397 l -8.49451,4.49514 -12.187774,-0.42331 c -14.298562,-0.49665 -20.751104,-0.53099 -21.010156,-0.11173 -0.440982,0.71352 3.817922,8.19307 5.998377,10.53439 1.405144,1.50884 3.487317,2.46848 6.092736,2.80808 1.249153,0.16282 7.612247,0.31707 14.14023,0.3429 l 11.869107,0.0468 z m 117.36717,-24.42062 c 2.83915,-1.41128 7.67697,-7.78122 7.79361,-10.2619 0.0508,-1.07694 -0.0682,-1.21889 -1.2366,-1.47732 -2.10527,-0.4656 -23.2935,-1.03552 -48.22952,-1.2972 l -23.29997,-0.24455 -0.24455,4.54936 c -0.2485,4.61874 -0.32003,8.82234 -0.15227,8.91789 0.51076,0.29069 20.60892,0.5587 39.97963,0.53313 22.63568,-0.0297 24.08524,-0.0709 25.38977,-0.71941 z m -107.63297,-6.13262 c -0.10115,-5.42536 -0.20533,-6.35472 -0.7761,-6.9249 -0.60571,-0.60485 -2.06572,-0.68062 -17.91237,-0.92952 -23.771635,-0.37335 -55.10512,0.0165 -55.362987,0.6881 -0.416724,1.08601 5.024032,9.16725 7.507011,11.15029 l 1.239264,0.9897 28.347003,0.58617 c 15.590849,0.32233 30.310749,0.61322 32.710909,0.64631 l 4.3639,0.0603 z M 244.81239,95.297717 c 4.34967,-0.280476 5.07551,-0.424668 6.33511,-1.258217 1.74356,-1.153837 4.47189,-4.641088 6.15019,-7.860948 1.47056,-2.821296 1.5583,-3.650429 0.42215,-3.990163 -0.45703,-0.136776 -12.38166,-0.399257 -26.49918,-0.583559 -14.11753,-0.184237 -29.65694,-0.506372 -34.53207,-0.715723 -4.87511,-0.209285 -9.23777,-0.381624 -9.6948,-0.382811 -0.80887,-0.0017 -0.83101,-0.105462 -0.83101,-3.880147 v -3.877906 h -6.64787 -6.64788 v 11.079788 c 0,6.093891 0.12458,11.10398 0.27685,11.133544 0.23961,0.04647 38.19527,0.42615 59.55397,0.595754 3.96103,0.03296 9.41249,-0.08537 12.11441,-0.259711 z m -114.04863,-7.72994 v -6.601416 l -4.33958,-0.20533 C 124.03741,80.647984 111.69729,80.36718 99.001663,80.136703 76.835128,79.734314 44.72198,80.000255 44.131136,80.591131 c -0.136447,0.136448 -0.151278,0.629536 -0.03296,1.096061 0.324309,1.280133 3.704447,6.259473 5.820765,8.57509 2.084052,2.280286 2.821131,2.574306 7.533409,3.005005 3.28703,0.300581 33.25535,0.736321 57.52263,0.836614 l 15.78871,0.06526 z"
       id="path37" />
    <path
       style="fill:#015198;fill-opacity:1;stroke-width:0.369327"
       d="M 129.97846,188.37999 C 118.60851,187.42478 99.383873,183.6594 87.552539,180.07037 56.825816,170.7494 33.472588,155.44819 21.316546,136.67197 16.955669,129.93616 13.254716,120.91689 12.370643,114.87066 11.732735,110.50804 12.132354,100.24255 13.121597,95.586629 15.401883,84.852869 20.426573,76.280252 30.46389,65.999076 39.760635,56.476468 49.731345,49.49033 63.467637,42.874447 82.22104,33.842153 102.58712,28.39527 127.99382,25.617008 c 8.63655,-0.94442 35.82408,-0.943138 44.50388,0.0021 26.77638,2.915966 48.52836,9.008334 68.87945,19.291994 11.40304,5.762109 19.91073,11.663952 27.6521,19.182465 11.09249,10.773144 16.75453,20.699787 19.47741,34.147662 5.3461,26.403441 -13.26229,53.774311 -48.59675,71.480471 -19.38726,9.71495 -44.07358,16.431 -67.22754,18.28961 -6.36854,0.51122 -37.77944,0.7824 -42.70391,0.36868 z m 32.81299,-5.93006 c 17.39516,-0.72268 24.58811,-1.64152 37.59042,-4.80195 18.56014,-4.5114 36.12276,-11.32392 47.05539,-18.25281 17.41289,-11.03592 30.34394,-26.00093 34.31862,-39.71672 2.4164,-8.33858 2.21819,-18.84341 -0.51024,-27.039578 C 279.29603,86.78238 275.4144,79.943204 270.91691,74.44042 267.76874,70.588584 260.91783,64.112905 256.45643,60.771989 238.8091,47.556766 212.41389,37.2695 185.97814,33.303747 164.61319,30.09869 135.40241,30.09905 115.25204,33.30461 82.161156,38.568778 54.277382,50.864395 36.632234,67.97275 25.789976,78.485161 19.870204,88.926581 18.137817,100.59372 c -0.72294,4.8688 -0.722182,7.83122 0.0032,12.71683 3.000952,20.21038 20.282075,39.33114 47.133925,52.15149 16.697233,7.97208 38.258188,13.91813 59.579528,16.43076 2.64069,0.31113 5.29983,0.62624 5.90923,0.70011 2.55051,0.30914 23.38526,0.2162 32.02769,-0.14305 z"
       id="path874" />
  </g>
</svg>
