<?xml version="1.0" standalone="no"?>
<!DOCTYPE svg PUBLIC "-//W3C//DTD SVG 20010904//EN"
 "http://www.w3.org/TR/2001/REC-SVG-20010904/DTD/svg10.dtd">
<svg version="1.0" xmlns="http://www.w3.org/2000/svg"
 width="128.000000pt" height="128.000000pt" viewBox="0 0 128.000000 128.000000"
 preserveAspectRatio="xMidYMid meet">

<g transform="translate(0.000000,128.000000) scale(0.100000,-0.100000)"
fill="#ffffff" stroke="none">
<path d="M480 1224 c-82 -21 -188 -77 -249 -131 -70 -61 -141 -171 -172 -264
-34 -106 -34 -272 0 -377 79 -242 296 -407 551 -419 293 -15 543 169 615 452
19 77 19 221 -1 298 -54 210 -231 387 -440 441 -77 20 -229 20 -304 0z m286
-98 c128 -34 252 -131 313 -247 44 -81 61 -148 61 -239 0 -134 -52 -262 -145
-355 -93 -93 -221 -145 -355 -145 -134 0 -262 52 -355 145 -93 93 -145 221
-145 355 0 92 17 158 61 241 61 113 182 210 308 245 62 17 194 17 257 0z"/>
<path d="M440 910 l0 -40 59 0 c69 0 118 -15 132 -41 9 -18 5 -19 -91 -19
l-100 0 0 -30 0 -30 100 0 c109 0 120 -7 77 -48 -29 -27 -77 -42 -134 -42 -43
0 -43 0 -43 -36 0 -30 12 -48 78 -122 42 -48 93 -106 111 -129 33 -41 37 -43
88 -43 29 0 53 3 53 6 0 3 -47 62 -105 130 l-106 124 44 11 c60 15 114 61 128
110 12 38 13 39 61 39 47 0 48 1 48 30 0 29 -1 30 -47 30 -46 0 -49 2 -65 40
l-17 40 65 0 64 0 0 30 0 30 -200 0 -200 0 0 -40z"/>
</g>
</svg>
