<?xml version="1.0" standalone="no"?>
<!DOCTYPE svg PUBLIC "-//W3C//DTD SVG 20010904//EN"
 "http://www.w3.org/TR/2001/REC-SVG-20010904/DTD/svg10.dtd">
<svg version="1.0" xmlns="http://www.w3.org/2000/svg"
 width="128.000000pt" height="128.000000pt" viewBox="0 0 128.000000 128.000000"
 preserveAspectRatio="xMidYMid meet">

<g transform="translate(0.000000,128.000000) scale(0.100000,-0.100000)"
fill="#ffffff"  stroke="none">
<path d="M515 1250 c-215 -46 -394 -207 -467 -419 -20 -56 -23 -86 -23 -196 1
-115 4 -138 27 -197 73 -192 218 -333 403 -391 99 -31 271 -31 370 0 185 58
330 199 403 391 23 60 26 81 26 202 0 121 -3 142 -26 202 -71 187 -202 318
-386 385 -52 20 -91 26 -177 29 -60 2 -128 -1 -150 -6z m250 -115 c382 -100
513 -576 235 -855 -279 -278 -755 -147 -855 235 -69 265 98 547 366 619 72 19
181 20 254 1z"/>
<path d="M515 941 l-60 -6 -3 -42 -3 -43 -50 0 -49 0 0 -35 0 -35 50 0 c46 0
50 -2 50 -24 0 -23 -5 -25 -47 -28 -46 -3 -48 -4 -48 -33 0 -29 2 -30 47 -33
l48 -3 2 -162 3 -162 37 -3 37 -3 3 121 3 121 71 3 c77 3 156 33 177 67 10 16
24 19 80 19 l68 0 -3 33 c-3 31 -4 32 -54 35 -48 3 -51 4 -46 27 4 21 11 24
51 27 44 3 46 4 46 33 0 29 -1 30 -55 33 -47 3 -60 8 -90 37 -19 19 -46 38
-60 43 -37 14 -136 20 -205 13z m175 -76 c23 -13 18 -14 -67 -15 -76 0 -93 3
-93 15 0 20 124 20 160 0z m60 -110 l0 -25 -110 0 -110 0 0 25 0 25 110 0 110
0 0 -25z m-70 -104 c-29 -18 -150 -18 -150 -1 0 6 34 10 83 10 52 0 76 -4 67
-9z"/>
</g>
</svg>
