<?xml version="1.0" standalone="no"?>
<!DOCTYPE svg PUBLIC "-//W3C//DTD SVG 20010904//EN"
 "http://www.w3.org/TR/2001/REC-SVG-20010904/DTD/svg10.dtd">
<svg version="1.0" xmlns="http://www.w3.org/2000/svg"
 width="128.000000pt" height="128.000000pt" viewBox="0 0 128.000000 128.000000"
 preserveAspectRatio="xMidYMid meet">

<g transform="translate(0.000000,128.000000) scale(0.100000,-0.100000)"
fill="#000000" stroke="none">
<path d="M482 1240 c-253 -66 -433 -274 -461 -529 -25 -239 76 -457 275 -590
208 -139 481 -139 689 1 324 216 368 676 90 953 -156 156 -384 220 -593 165z
m309 -110 c115 -35 211 -109 280 -214 107 -163 107 -389 0 -552 -101 -154
-248 -234 -431 -234 -185 0 -340 87 -439 245 -91 144 -96 347 -13 510 31 62
142 174 202 205 122 63 278 79 401 40z"/>
<path d="M790 812 l0 -158 -35 -34 c-26 -25 -35 -42 -35 -67 0 -38 9 -41 35
-13 10 11 22 20 27 20 4 0 8 -56 8 -125 l0 -125 45 0 45 0 0 163 0 163 30 29
c24 23 30 37 30 69 l0 40 -30 -29 -30 -29 0 127 0 127 -45 0 -45 0 0 -158z"/>
<path d="M357 764 c-4 -4 -7 -22 -7 -41 l0 -33 115 0 c63 0 115 -3 115 -6 0
-3 -54 -75 -120 -161 -89 -116 -120 -163 -120 -184 l0 -29 185 0 185 0 0 35 0
35 -125 0 c-114 0 -145 7 -115 25 6 3 62 74 126 157 88 117 114 157 112 177
l-3 26 -171 3 c-93 1 -173 -1 -177 -4z"/>
</g>
</svg>
