<?xml version="1.0" standalone="no"?>
<!DOCTYPE svg PUBLIC "-//W3C//DTD SVG 20010904//EN"
 "http://www.w3.org/TR/2001/REC-SVG-20010904/DTD/svg10.dtd">
<svg version="1.0" xmlns="http://www.w3.org/2000/svg"
 width="1204.000000pt" height="296.000000pt" viewBox="0 0 1204.000000 296.000000"
 preserveAspectRatio="xMidYMid meet">
<metadata>
Created by potrace 1.16, written by Peter Selinger 2001-2019
</metadata>
<g transform="translate(0.000000,296.000000) scale(0.100000,-0.100000)"
fill="rgb(0 160 176)" stroke="none">
<path d="M685 2324 c-345 -49 -541 -183 -600 -409 -38 -149 -3 -315 92 -432
77 -95 168 -150 493 -293 257 -113 290 -139 290 -227 0 -143 -200 -192 -560
-137 -84 13 -232 44 -282 60 -17 5 -18 -8 -18 -169 l0 -175 113 -21 c527 -97
879 -48 1093 151 103 97 154 216 154 364 0 196 -104 357 -302 468 -35 19 -155
76 -267 126 -290 130 -323 154 -323 235 0 61 22 92 88 122 110 50 340 40 573
-26 l101 -28 0 166 0 167 -57 12 c-176 36 -487 61 -588 46z"/>
<path d="M11083 2319 c-107 -14 -195 -40 -290 -85 -123 -59 -199 -132 -250
-240 -34 -72 -38 -88 -41 -180 -6 -155 28 -252 127 -357 71 -76 163 -130 421
-246 132 -60 256 -119 274 -132 44 -30 66 -68 66 -114 0 -171 -299 -209 -777
-97 l-83 19 0 -172 0 -173 113 -21 c537 -99 890 -47 1099 160 109 108 155 228
146 384 -10 172 -95 305 -263 415 -34 22 -166 87 -294 145 -272 123 -316 150
-332 204 -14 46 0 97 34 129 83 79 353 80 626 3 l101 -28 0 167 0 167 -122 22
c-221 39 -408 50 -555 30z"/>
<path d="M1730 1400 l0 -890 265 0 265 0 0 890 0 890 -265 0 -265 0 0 -890z"/>
<path d="M2680 1400 l0 -890 670 0 670 0 0 165 0 165 -410 0 -410 0 0 215 0
215 355 0 355 0 0 145 0 145 -355 0 -355 0 0 205 0 205 405 0 405 0 0 160 0
160 -665 0 -665 0 0 -890z"/>
<path d="M4340 1400 l0 -890 170 0 170 0 0 590 c0 325 3 590 8 590 4 0 79
-170 166 -378 88 -207 202 -477 254 -600 l94 -222 160 2 160 3 252 592 c139
326 255 596 259 599 4 4 7 -259 7 -584 l0 -592 255 0 255 0 0 890 0 890 -317
0 -318 0 -229 -545 c-127 -299 -233 -542 -236 -540 -4 2 -110 247 -236 544
l-229 541 -322 0 -323 0 0 -890z"/>
<path d="M6970 1400 l0 -890 670 0 670 0 0 165 0 165 -410 0 -410 0 0 215 0
215 355 0 355 0 0 145 0 145 -355 0 -355 0 0 205 0 205 405 0 405 0 0 160 0
160 -665 0 -665 0 0 -890z"/>
<path d="M8620 1400 l0 -890 175 0 175 0 0 575 c0 316 3 575 8 575 4 0 151
-258 327 -573 l320 -572 283 -3 282 -2 0 890 0 890 -170 0 -170 0 0 -565 c0
-311 -3 -565 -7 -565 -5 0 -149 254 -322 565 l-315 565 -293 0 -293 0 0 -890z"/>
</g>
</svg>
