<?xml version="1.0" standalone="no"?>
<!DOCTYPE svg PUBLIC "-//W3C//DTD SVG 20010904//EN"
 "http://www.w3.org/TR/2001/REC-SVG-20010904/DTD/svg10.dtd">
<svg style="background: white" version="1.0" xmlns="http://www.w3.org/2000/svg"
 width="64.000000pt" height="64.000000pt" viewBox="0 0 64.000000 64.000000"
 preserveAspectRatio="xMidYMid meet">

<g transform="translate(0.000000,64.000000) scale(0.100000,-0.100000)"
fill="#000000" stroke="none">
<path d="M220 624 c-227 -82 -293 -362 -125 -529 65 -66 125 -90 225 -90 100
0 160 24 225 90 66 65 90 125 90 225 0 100 -24 160 -90 225 -82 82 -222 116
-325 79z m157 -139 c47 -20 33 -41 -15 -24 -84 29 -182 -42 -182 -131 0 -19
18 -13 166 64 92 48 169 84 172 82 14 -15 -24 -40 -195 -128 -105 -54 -193
-98 -196 -98 -13 0 -7 28 8 40 8 7 15 26 15 42 0 85 79 164 168 167 12 1 39
-6 59 -14z m143 -89 c0 -7 -6 -19 -14 -25 -7 -6 -17 -35 -20 -63 -6 -43 -14
-59 -49 -94 -28 -28 -55 -45 -80 -49 -62 -12 -144 12 -121 35 7 7 20 7 42 -1
70 -24 152 19 173 92 7 21 9 42 5 47 -4 4 -77 -29 -162 -73 -181 -94 -174 -91
-174 -71 0 9 70 51 193 115 105 55 195 101 200 101 4 0 7 -6 7 -14z"/>
</g>
</svg>
