<?xml version="1.0" encoding="UTF-8"?><svg xmlns="http://www.w3.org/2000/svg" xmlns:xlink="http://www.w3.org/1999/xlink" viewBox="0 0 48 48" version="1.1"><g id="surface1" fill-rule="evenodd" fill="#B71C1C"><path d="M5.27 10.156c4.898-1.984 12.976-2.242 16.484-2.11L24 10.93l2.246-2.883c3.512-.133 11.59.125 16.484 2.11-.675 1.28-3.617 3.109-5.234 3.515-.094-2.524-3.656-3.05-7.078-3.05L24 45.038l-6.418-34.418c-3.426 0-6.992.527-7.082 3.05-1.613-.405-4.555-2.233-5.23-3.515z"/><path d="M3 6.734l1.254 1.84c4.754-1.668 10.394-2.472 16.348-2.652 2.25-.067 4.546-.067 6.796 0 5.954.18 11.594.98 16.348 2.652L45 6.734C39.387 4.832 33.422 4.2 27.469 4.043a136.767 136.767 0 0 0-6.934 0C14.575 4.199 8.613 4.832 3 6.734z"/></g><metadata><rdf:RDF xmlns:rdf="http://www.w3.org/1999/02/22-rdf-syntax-ns#" xmlns:rdfs="http://www.w3.org/2000/01/rdf-schema#" xmlns:dc="http://purl.org/dc/elements/1.1/"><rdf:Description about="https://iconscout.com/legal#licenses" dc:title="tesla" dc:description="tesla" dc:publisher="Iconscout" dc:date="2017-12-15" dc:format="image/svg+xml" dc:language="en"><dc:creator><rdf:Bag><rdf:li>Icons8</rdf:li></rdf:Bag></dc:creator></rdf:Description></rdf:RDF></metadata></svg>