<svg xmlns="http://www.w3.org/2000/svg" width="36" height="36" viewBox="0 0 36 36">
    <path style="line-height:normal;text-indent:0;text-align:start;text-decoration-line:
    none;text-decoration-style:solid;text-decoration-color:#000;text-transform:none;
    block-progression:tb;white-space:normal;isolation:auto;mix-blend-mode:normal;
    solid-color:#000;solid-opacity:1" d="M 27.478516 2 C 23.335386 2 20 5.3695 
    20 9.5 C 20 13.632 23.335403 17 27.478516 17 C 31.620623 17 35 13.6356 35 9.5 
    A 0.50004994 0.50004994 0 0 0 34.960938 9.3046875 A 0.50004994 0.50004994 0 0 
    0 34.958984 9.3046875 C 34.84727 5.2668875 31.55052 2.0019531 27.478516 
    2.0019531 L 27.478516 2 z M 27.478516 3 C 31.080571 3 34 5.9094 34 9.5 C 
    34 13.0924 31.080588 16 27.478516 16 C 23.875288 16 21 13.096 21 9.5 C 21
     5.9057 23.875305 3 27.478516 3 z M 27.533203 5 C 26.157747 5 25.032591 
     6.1149303 25.007812 7.484375 A 0.50004997 0.50004997 0 0 0 25.007812 
     7.4863281 A 0.50004997 0.50004997 0 0 0 25.001953 7.5742188 L 25.001953 
     9.7578125 L 25.001953 9.9921875 L 24.482422 9.9921875 A 0.50005 0.50005 
     0 0 0 24.433594 9.9921875 A 0.50059574 0.50059574 0 0 0 24.482422 10.992188 
     L 25.001953 10.992188 L 25.001953 11.003906 C 25.001953 11.849906 24.650867 
     12.369597 24.083984 13.216797 A 0.50054773 0.50054773 0 0 0 24 13.503906 
     A 0.50005 0.50005 0 0 0 24 13.505859 A 0.50005 0.50005 0 0 0 24 13.511719 
     A 0.50054773 0.50054773 0 0 0 24.009766 13.599609 A 0.50005 0.50005 
     0 0 0 24.011719 13.605469 A 0.50054773 0.50054773 0 0 0 24.023438 13.646484 
     A 0.50005 0.50005 0 0 0 24.025391 13.654297 A 0.50054773 0.50054773 
     0 0 0 24.041016 13.693359 A 0.50005 0.50005 0 0 0 24.507812 14 L 
     30.492188 14 A 0.50005 0.50005 0 1 0 30.492188 13 L 25.400391 13
      C 25.743493 12.411283 26.001953 11.795371 26.001953 11.003906 
      L 26.001953 10.992188 L 27.525391 10.992188 A 0.50005 0.50005 
      0 1 0 27.525391 9.9921875 L 26.001953 9.9921875 L 26.001953 
      9.7578125 L 26.001953 7.5742188 A 0.50004994 0.50004994 0 0 0 
      26.003906 7.5292969 C 26.003918 6.6795969 26.682502 6 27.533203 6 
      C 28.383904 6 29.062488 6.6795969 29.0625 7.5292969 A 0.50004994 
      0.50004994 0 1 0 30.0625 7.5292969 C 30.062481 6.1388969 28.924019 
      5 27.533203 5 z M 12.197266 9.0019531 C 9.3280735 9.0019531 7 11.320194 
      7 14.183594 L 7 17.273438 L 6.4589844 16.732422 A 0.50005 0.50005 0 0 0
       6.0996094 16.582031 A 0.50005 0.50005 0 0 0 5.7519531 17.439453 L 7.1660156 
       18.853516 A 0.50005 0.50005 0 0 0 7.8730469 18.853516 L 9.2871094 
       17.439453 A 0.50005 0.50005 0 1 0 8.5800781 16.732422 L 8 17.3125 
       L 8 14.183594 C 8 11.858394 9.863257 10.001953 12.197266 10.001953 
       L 18.494141 10.001953 A 0.50005 0.50005 0 1 0 18.494141 9.0019531 
       L 12.197266 9.0019531 z M 27.472656 18 A 0.50005 0.50005 0 0 0 27.126953 
       18.146484 L 25.712891 19.560547 A 0.50064305 0.50064305 0 1 0 26.419922 
       20.269531 L 26.998047 19.689453 L 26.998047 22.818359 C 26.998047 
       25.143559 25.136732 27 22.802734 27 L 16.505859 27 A 0.50005 0.50005 
       0 1 0 16.505859 28 L 22.802734 28 C 25.671917 28 27.998047 25.681759 
       27.998047 22.818359 L 27.998047 19.724609 L 28.541016 20.269531 A 0.50064305
        0.50064305 0 1 0 29.248047 19.560547 L 27.833984 18.146484 A 0.50005 
        0.50005 0 0 0 27.472656 18 z M 7.4804688 20.001953 C 3.337339 20.001953
         -5.9211895e-016 23.3695 0 27.5 C 0 31.632 3.3373562 35 7.4804688 35 
         C 11.622577 35 15 31.6356 15 27.5 A 0.50004994 0.50004994 0 0 0 
         14.960938 27.304688 A 0.50004994 0.50004994 0 0 0 14.958984 27.304688 
         C 14.84727 23.266887 11.552473 20.003906 7.4804688 20.003906 L 7.4804688 
         20.001953 z M 7.4804688 21.001953 C 11.082524 21.001953 14 23.9094 14 
         27.5 C 14 31.0924 11.082541 34 7.4804688 34 C 3.8772412 34 1 31.096 
         1 27.5 C 1 23.9057 3.8772585 21.001953 7.4804688 21.001953 z M 5.96875
          24 L 5.96875 26.009766 L 5 26.332031 L 5 27.384766 L 5.96875 27.0625 
          L 5.96875 28.009766 L 5 28.332031 L 5 29.384766 L 5.96875 29.0625 
          L 5.96875 32 L 6.46875 32 C 7.4902981 32 8.3671181 31.885275
           9.0292969 31.359375 C 9.6914756 30.833475 10 29.947828 10 28.736328
            L 9 28.736328 C 9 29.789828 8.7725269 30.286772 8.4082031 30.576172
             C 8.1378081 30.790972 7.5510201 30.838125 6.96875 30.890625 
             L 6.96875 28.728516 L 9 28.052734 L 9 27 L 6.96875 27.675781
              L 6.96875 26.728516 L 9 26.052734 L 9 25 L 6.96875 25.675781 
              L 6.96875 24 L 5.96875 24 z " color="#000" 
              enable-background="accumulate" font-family="sans-serif" 
              font-weight="400" overflow="visible" />
</svg>