<?xml version="1.0" encoding="UTF-8" standalone="no"?>
<svg xmlns:dc="http://purl.org/dc/elements/1.1/" xmlns:cc="http://creativecommons.org/ns#" xmlns:rdf="http://www.w3.org/1999/02/22-rdf-syntax-ns#" xmlns:svg="http://www.w3.org/2000/svg" xmlns="http://www.w3.org/2000/svg" xmlns:sodipodi="http://sodipodi.sourceforge.net/DTD/sodipodi-0.dtd" xmlns:inkscape="http://www.inkscape.org/namespaces/inkscape" width="36px" height="36px" viewBox="0 0 36 36.000001" id="svg2" version="1.1" inkscape:version="0.48.4 r9939" sodipodi:docname="currency money conversion euro to american dollar.svg">
  <defs id="defs4"/>
  <sodipodi:namedview id="base" pagecolor="#ffffff" bordercolor="#666666" borderopacity="1.0" inkscape:pageopacity="0.0" inkscape:pageshadow="2" inkscape:zoom="31.678384" inkscape:cx="5.4165305" inkscape:cy="8.6575081" inkscape:document-units="px" inkscape:current-layer="layer1" showgrid="true" units="px" inkscape:snap-bbox="true" inkscape:bbox-paths="true" inkscape:bbox-nodes="true" inkscape:snap-bbox-midpoints="true" inkscape:window-width="1366" inkscape:window-height="705" inkscape:window-x="-8" inkscape:window-y="-8" inkscape:window-maximized="1" inkscape:snap-bbox-edge-midpoints="true">
    <inkscape:grid type="xygrid" id="grid3336"/>
  </sodipodi:namedview>
  
  <g inkscape:label="Layer 1" inkscape:groupmode="layer" id="layer1" transform="translate(0,-1016.3622)">
    <path style="font-size:medium;font-style:normal;font-variant:normal;font-weight:normal;font-stretch:normal;text-indent:0;text-align:start;text-decoration:none;line-height:normal;letter-spacing:normal;word-spacing:normal;text-transform:none;direction:ltr;block-progression:tb;writing-mode:lr-tb;text-anchor:start;baseline-shift:baseline;color:#000000;fill:#ffffff;fill-opacity:1;fill-rule:nonzero;stroke:none;visibility:visible;display:inline;overflow:visible;enable-background:accumulate;font-family:sans-serif" d="M 27.478516,2 C 23.335386,2 20,5.3695 20,9.5 20,13.632 23.335403,17 27.478516,17 31.620623,17 35,13.6356 35,9.5 c 2.08e-4,-0.06684 -0.01316,-0.1336938 -0.03906,-0.1953125 -6.51e-4,-1.3e-6 -0.0013,-1.3e-6 -0.002,0 -0.111714,-4.0378 -3.408464,-7.3027344 -7.480468,-7.3027344 z m 0,1 C 31.080571,3 34,5.9094 34,9.5 34,13.0924 31.080588,16 27.478516,16 23.875288,16 21,13.096 21,9.5 21,5.9057 23.875305,3 27.478516,3 z M 28,5 c -1.653351,0 -3,1.3467 -3,3 l -1,0 c -0.264156,-0.00374 -0.507121,0.2358173 -0.507121,0.5 0,0.2641827 0.242965,0.5037358 0.507121,0.5 l 1,0 0,1 -1,0 c -0.264156,-0.00374 -0.507121,0.235817 -0.507121,0.5 0,0.264183 0.242965,0.503736 0.507121,0.5 l 1,0 c 0,1.6534 1.346649,3 3,3 1.653351,0 3,-1.3466 3,-3 0.0037,-0.264156 -0.235818,-0.507119 -0.5,-0.507119 -0.264182,0 -0.503735,0.242963 -0.5,0.507119 0,1.1167 -0.883351,2 -2,2 -1.116649,0 -2,-0.8833 -2,-2 l 2,0 c 0.264156,0.0037 0.507121,-0.235817 0.507121,-0.5 0,-0.264183 -0.242965,-0.5037358 -0.507121,-0.5 l -2,0 0,-1 2,0 c 0.264156,0.00374 0.507121,-0.2358173 0.507121,-0.5 C 28.507121,8.2358173 28.264156,7.9962642 28,8 l -2,0 c 0,-1.1166 0.883351,-2 2,-2 1.116649,0 2,0.8834 2,2 -0.0037,0.2641556 0.235818,0.5071189 0.5,0.5071189 C 30.764182,8.5071189 31.003735,8.2641556 31,8 31,6.3467 29.653351,5 28,5 z M 12.197266,9.0019531 C 9.3280735,9.0019531 7,11.320194 7,14.183594 l 0,3.089844 -0.5410156,-0.541016 c -0.093271,-0.09536 -0.2259871,-0.150897 -0.359375,-0.150391 -0.3938288,0.0017 -0.6291209,0.581956 -0.3476563,0.857422 l 1.4140625,1.414063 c 0.1851282,0.185052 0.5219031,0.185052 0.7070313,0 L 9.2871094,17.439453 C 9.6697347,17.072088 8.9474433,16.349797 8.5800781,16.732422 L 8,17.3125 8,14.183594 c 0,-2.3252 1.863257,-4.181641 4.197266,-4.181641 l 6.296875,0 c 0.264157,0.0037 0.507125,-0.2358161 0.507125,-0.4999999 0,-0.2641839 -0.242968,-0.5037377 -0.507125,-0.5 z M 27.472656,18 c -0.12828,0.002 -0.255006,0.05574 -0.345703,0.146484 l -1.414062,1.414063 c -0.374115,0.36955 0.33645,1.082078 0.707031,0.708984 l 0.578125,-0.580078 0,3.128906 C 26.998047,25.143559 25.136732,27 22.802734,27 l -6.296875,0 c -0.264156,-0.0037 -0.507121,0.235817 -0.507121,0.5 0,0.264183 0.242965,0.503736 0.507121,0.5 l 6.296875,0 c 2.869183,0 5.195313,-2.318241 5.195313,-5.181641 l 0,-3.09375 0.542969,0.544922 c 0.370581,0.373094 1.081146,-0.339434 0.707031,-0.708984 L 27.833984,18.146484 C 27.739604,18.052061 27.606144,17.997955 27.472656,18 z M 7.4804688,20.001953 C 3.337339,20.001953 0,23.3695 0,27.5 0,31.632 3.3373562,35 7.4804688,35 11.622577,35 15,31.6356 15,27.5 c 2.08e-4,-0.06684 -0.01316,-0.133693 -0.03906,-0.195312 -6.51e-4,-10e-7 -0.0013,-10e-7 -0.002,0 -0.111714,-4.037801 -3.406511,-7.300782 -7.4785152,-7.300782 z m 0,1 C 11.082524,21.001953 14,23.9094 14,27.5 14,31.0924 11.082541,34 7.4804688,34 3.8772412,34 1,31.096 1,27.5 1,23.9057 3.8772585,21.001953 7.4804688,21.001953 z m 0.011719,2 C 7.2310466,23.006042 6.996934,23.246657 7,23.507812 l 0,0.541016 c -0.9640919,0.210382 -1.7480469,0.909243 -1.7480469,1.892578 0,1.133898 0.9914521,2.004149 2.1601563,2.046875 0.028932,0.0058 0.058382,0.0091 0.087891,0.0098 0.730077,0 1.2480469,0.495687 1.2480469,1.054687 0,0.5588 -0.5180043,1.052735 -1.2480469,1.052735 -0.7300551,0 -1.2480469,-0.493935 -1.2480469,-1.052735 0.00374,-0.264158 -0.2358158,-0.507125 -0.5,-0.507125 -0.2641842,0 -0.5037381,0.242967 -0.5,0.507125 0,0.997691 0.7678168,1.789997 1.7480469,1.996094 l 0,0.445313 c -0.00374,0.264158 0.2358158,0.507125 0.5,0.507125 0.2641842,0 0.5037381,-0.242967 0.5,-0.507125 l 0,-0.445313 c 0.9802269,-0.206097 1.7480469,-0.998403 1.7480469,-1.996094 0,-1.096255 -0.9477778,-2.05664 -2.2480469,-2.05664 -0.7300551,0 -1.2480469,-0.495888 -1.2480469,-1.054688 0,-0.549354 0.5028847,-1.030095 1.2128907,-1.046875 0.024694,0.0018 0.049525,0.0018 0.074219,0 0.7078295,0.01854 1.2089844,0.498574 1.2089844,1.046875 -0.00374,0.264158 0.2358158,0.507125 0.5,0.507125 0.2641842,0 0.5037381,-0.242967 0.5,-0.507125 C 9.7480469,24.943544 8.9802124,24.149418 8,23.943359 L 8,23.507812 C 8.0031269,23.241449 7.7585364,22.9978 7.4921875,23.001953 z" transform="translate(0,1016.3622)" id="path5471-7-6" inkscape:connector-curvature="0" sodipodi:nodetypes="csscccccssssssccsccccsccscscsccsccccsccscscssscccccccccsscscscccccsscscssccccccsscccccssssscccsccsscscccsccccscccscccc"/>
  </g>

	
	
	
	<metadata>
		<rdf:RDF xmlns:rdf="http://www.w3.org/1999/02/22-rdf-syntax-ns#" xmlns:rdfs="http://www.w3.org/2000/01/rdf-schema#" xmlns:dc="http://purl.org/dc/elements/1.1/">
			<rdf:Description about="https://iconscout.com/legal#licenses" dc:title="Currency, Money, Conversion, Euro, To, American, Dollar" dc:description="Currency, Money, Conversion, Euro, To, American, Dollar" dc:publisher="Iconscout" dc:date="2016-12-14" dc:format="image/svg+xml" dc:language="en">
				<dc:creator>
					<rdf:Bag>
						<rdf:li>Mohit Gandhi</rdf:li>
					</rdf:Bag>
				</dc:creator>
			</rdf:Description>
		</rdf:RDF>
    </metadata></svg>
