<?xml version="1.0" encoding="UTF-8" standalone="no"?>
<svg xmlns:dc="http://purl.org/dc/elements/1.1/" xmlns:cc="http://creativecommons.org/ns#" xmlns:rdf="http://www.w3.org/1999/02/22-rdf-syntax-ns#" xmlns:svg="http://www.w3.org/2000/svg" xmlns="http://www.w3.org/2000/svg" xmlns:sodipodi="http://sodipodi.sourceforge.net/DTD/sodipodi-0.dtd" xmlns:inkscape="http://www.inkscape.org/namespaces/inkscape" width="36px" height="36px" viewBox="0 0 36 36.000001" id="svg2" version="1.1" inkscape:version="0.91 r13725" sodipodi:docname="currency pound finance financial ecommerce money united kingdom uk 1 - Copy (13).svg">
  <defs id="defs4"/>
  <sodipodi:namedview id="base" pagecolor="#ffffff" bordercolor="#666666" borderopacity="1.0" inkscape:pageopacity="0.0" inkscape:pageshadow="2" inkscape:zoom="15.839192" inkscape:cx="8.8527308" inkscape:cy="21.245422" inkscape:document-units="px" inkscape:current-layer="layer1" showgrid="true" units="px" inkscape:snap-bbox="true" inkscape:bbox-paths="true" inkscape:bbox-nodes="true" inkscape:snap-bbox-midpoints="true" inkscape:window-width="1366" inkscape:window-height="715" inkscape:window-x="-8" inkscape:window-y="-8" inkscape:window-maximized="1" inkscape:snap-bbox-edge-midpoints="true">
    <inkscape:grid type="xygrid" id="grid3336"/>
  </sodipodi:namedview>
  
  <g inkscape:label="Layer 1" inkscape:groupmode="layer" id="layer1" transform="translate(0,-1016.3622)">
    <path style="color:#000000;font-style:normal;font-variant:normal;font-weight:normal;font-stretch:normal;font-size:medium;line-height:normal;font-family:sans-serif;text-indent:0;text-align:start;text-decoration:none;text-decoration-line:none;text-decoration-style:solid;text-decoration-color:#000000;letter-spacing:normal;word-spacing:normal;text-transform:none;direction:ltr;block-progression:tb;writing-mode:lr-tb;baseline-shift:baseline;text-anchor:start;white-space:normal;clip-rule:nonzero;display:inline;overflow:visible;visibility:visible;opacity:1;isolation:auto;mix-blend-mode:normal;color-interpolation:sRGB;color-interpolation-filters:linearRGB;solid-color:#000000;solid-opacity:1;fill:#000000;fill-opacity:1;fill-rule:nonzero;stroke:none;stroke-width:0.99999988;stroke-linecap:round;stroke-linejoin:round;stroke-miterlimit:34.17825699;stroke-dasharray:none;stroke-dashoffset:0;stroke-opacity:1;color-rendering:auto;image-rendering:auto;shape-rendering:auto;text-rendering:auto;enable-background:accumulate" d="M 27.478516 2 C 23.335386 2 20 5.3695 20 9.5 C 20 13.632 23.335403 17 27.478516 17 C 31.620623 17 35 13.6356 35 9.5 A 0.50004994 0.50004994 0 0 0 34.960938 9.3046875 A 0.50004994 0.50004994 0 0 0 34.958984 9.3046875 C 34.84727 5.2668875 31.55052 2.0019531 27.478516 2.0019531 L 27.478516 2 z M 27.478516 3 C 31.080571 3 34 5.9094 34 9.5 C 34 13.0924 31.080588 16 27.478516 16 C 23.875288 16 21 13.096 21 9.5 C 21 5.9057 23.875305 3 27.478516 3 z M 27.533203 5 C 26.157747 5 25.032591 6.1149303 25.007812 7.484375 A 0.50004997 0.50004997 0 0 0 25.007812 7.4863281 A 0.50004997 0.50004997 0 0 0 25.001953 7.5742188 L 25.001953 9.7578125 L 25.001953 9.9921875 L 24.482422 9.9921875 A 0.50005 0.50005 0 0 0 24.433594 9.9921875 A 0.50059574 0.50059574 0 0 0 24.482422 10.992188 L 25.001953 10.992188 L 25.001953 11.003906 C 25.001953 11.849906 24.650867 12.369597 24.083984 13.216797 A 0.50054773 0.50054773 0 0 0 24 13.503906 A 0.50005 0.50005 0 0 0 24 13.505859 A 0.50005 0.50005 0 0 0 24 13.511719 A 0.50054773 0.50054773 0 0 0 24.009766 13.599609 A 0.50005 0.50005 0 0 0 24.011719 13.605469 A 0.50054773 0.50054773 0 0 0 24.023438 13.646484 A 0.50005 0.50005 0 0 0 24.025391 13.654297 A 0.50054773 0.50054773 0 0 0 24.041016 13.693359 A 0.50005 0.50005 0 0 0 24.507812 14 L 30.492188 14 A 0.50005 0.50005 0 1 0 30.492188 13 L 25.400391 13 C 25.743493 12.411283 26.001953 11.795371 26.001953 11.003906 L 26.001953 10.992188 L 27.525391 10.992188 A 0.50005 0.50005 0 1 0 27.525391 9.9921875 L 26.001953 9.9921875 L 26.001953 9.7578125 L 26.001953 7.5742188 A 0.50004994 0.50004994 0 0 0 26.003906 7.5292969 C 26.003918 6.6795969 26.682502 6 27.533203 6 C 28.383904 6 29.062488 6.6795969 29.0625 7.5292969 A 0.50004994 0.50004994 0 1 0 30.0625 7.5292969 C 30.062481 6.1388969 28.924019 5 27.533203 5 z M 12.197266 9.0019531 C 9.3280735 9.0019531 7 11.320194 7 14.183594 L 7 17.273438 L 6.4589844 16.732422 A 0.50005 0.50005 0 0 0 6.0996094 16.582031 A 0.50005 0.50005 0 0 0 5.7519531 17.439453 L 7.1660156 18.853516 A 0.50005 0.50005 0 0 0 7.8730469 18.853516 L 9.2871094 17.439453 A 0.50005 0.50005 0 1 0 8.5800781 16.732422 L 8 17.3125 L 8 14.183594 C 8 11.858394 9.863257 10.001953 12.197266 10.001953 L 18.494141 10.001953 A 0.50005 0.50005 0 1 0 18.494141 9.0019531 L 12.197266 9.0019531 z M 27.472656 18 A 0.50005 0.50005 0 0 0 27.126953 18.146484 L 25.712891 19.560547 A 0.50064305 0.50064305 0 1 0 26.419922 20.269531 L 26.998047 19.689453 L 26.998047 22.818359 C 26.998047 25.143559 25.136732 27 22.802734 27 L 16.505859 27 A 0.50005 0.50005 0 1 0 16.505859 28 L 22.802734 28 C 25.671917 28 27.998047 25.681759 27.998047 22.818359 L 27.998047 19.724609 L 28.541016 20.269531 A 0.50064305 0.50064305 0 1 0 29.248047 19.560547 L 27.833984 18.146484 A 0.50005 0.50005 0 0 0 27.472656 18 z M 7.4804688 20.001953 C 3.337339 20.001953 -5.9211895e-016 23.3695 0 27.5 C 0 31.632 3.3373562 35 7.4804688 35 C 11.622577 35 15 31.6356 15 27.5 A 0.50004994 0.50004994 0 0 0 14.960938 27.304688 A 0.50004994 0.50004994 0 0 0 14.958984 27.304688 C 14.84727 23.266887 11.552473 20.003906 7.4804688 20.003906 L 7.4804688 20.001953 z M 7.4804688 21.001953 C 11.082524 21.001953 14 23.9094 14 27.5 C 14 31.0924 11.082541 34 7.4804688 34 C 3.8772412 34 1 31.096 1 27.5 C 1 23.9057 3.8772585 21.001953 7.4804688 21.001953 z M 4.859375 24 L 6.4472656 27.001953 L 5 27.001953 L 5 28.001953 L 7 28.001953 L 7 29.001953 L 5 29.001953 L 5 30.001953 L 7 30.001953 L 7 32.001953 L 8 32.001953 L 8 30.001953 L 10 30.001953 L 10 29.001953 L 8 29.001953 L 8 28.001953 L 10 28.001953 L 10 27.001953 L 8.5527344 27.001953 L 10.140625 24 L 9.0097656 24 L 7.5 26.857422 L 5.9902344 24 L 4.859375 24 z " transform="translate(0,1016.3622)" id="path5631-9-57"/>
  </g>

	
	
	
	<metadata>
		<rdf:RDF xmlns:rdf="http://www.w3.org/1999/02/22-rdf-syntax-ns#" xmlns:rdfs="http://www.w3.org/2000/01/rdf-schema#" xmlns:dc="http://purl.org/dc/elements/1.1/">
			<rdf:Description about="https://iconscout.com/legal#licenses" dc:title="Currency, Money, Conversion, Pound, To, Yen, China" dc:description="Currency, Money, Conversion, Pound, To, Yen, China" dc:publisher="Iconscout" dc:date="2016-12-14" dc:format="image/svg+xml" dc:language="en">
				<dc:creator>
					<rdf:Bag>
						<rdf:li>Mohit Gandhi</rdf:li>
					</rdf:Bag>
				</dc:creator>
			</rdf:Description>
		</rdf:RDF>
    </metadata></svg>
