<?xml version="1.0" standalone="no"?>
<!DOCTYPE svg PUBLIC "-//W3C//DTD SVG 20010904//EN"
 "http://www.w3.org/TR/2001/REC-SVG-20010904/DTD/svg10.dtd">
<svg version="1.0" xmlns="http://www.w3.org/2000/svg"
 width="128.000000pt" height="128.000000pt" viewBox="0 0 128.000000 128.000000"
 preserveAspectRatio="xMidYMid meet">

<g transform="translate(0.000000,128.000000) scale(0.100000,-0.100000)"
fill="#ffffff"  stroke="none">
<path d="M515 1250 c-215 -46 -394 -207 -467 -419 -20 -56 -23 -86 -23 -196 1
-115 4 -138 27 -197 73 -192 218 -333 403 -391 99 -31 271 -31 370 0 185 58
330 199 403 391 23 60 26 81 26 202 0 121 -3 142 -26 202 -71 187 -202 318
-386 385 -52 20 -91 26 -177 29 -60 2 -128 -1 -150 -6z m250 -115 c382 -100
513 -576 235 -855 -279 -278 -755 -147 -855 235 -69 265 98 547 366 619 72 19
181 20 254 1z"/>
<path d="M380 985 c0 -2 38 -73 85 -157 l85 -153 -66 -3 -65 -3 3 -32 3 -32
78 -3 77 -3 0 -29 0 -30 -80 0 -80 0 0 -30 0 -30 80 0 79 0 3 -92 3 -93 47 -3
47 -3 3 93 3 93 83 3 82 3 0 29 0 29 -82 3 c-82 3 -83 3 -86 30 l-3 27 83 3
83 3 3 33 3 32 -65 0 c-36 0 -66 2 -66 4 0 2 41 72 90 155 50 84 90 154 90
157 0 3 -25 4 -56 2 l-56 -3 -75 -146 -75 -147 -74 149 -74 149 -55 0 c-30 0
-55 -2 -55 -5z"/>
</g>
</svg>
